<?xml version="1.0" encoding="UTF-8" standalone="no"?>
<svg
   id="svg8"
   version="1.1"
   viewBox="0 0 297 210"
   height="210mm"
   width="297mm"
   inkscape:version="1.4.3 (0d15f75, 2025-12-25)"
   sodipodi:docname="Potencia_estadística.svg"
   inkscape:export-filename="Potencia_estadística.svg"
   inkscape:export-xdpi="300"
   inkscape:export-ydpi="300"
   xmlns:inkscape="http://www.inkscape.org/namespaces/inkscape"
   xmlns:sodipodi="http://sodipodi.sourceforge.net/DTD/sodipodi-0.dtd"
   xmlns="http://www.w3.org/2000/svg"
   xmlns:svg="http://www.w3.org/2000/svg"
   xmlns:rdf="http://www.w3.org/1999/02/22-rdf-syntax-ns#"
   xmlns:cc="http://creativecommons.org/ns#"
   xmlns:dc="http://purl.org/dc/elements/1.1/">
  <defs
     id="defs2">
    <rect
       x="98.448276"
       y="133.62069"
       width="48.763613"
       height="27.145234"
       id="rect4767" />
    <rect
       x="34.482759"
       y="63.793103"
       width="27.068965"
       height="8.739803"
       id="rect4697" />
    <linearGradient
       id="linearGradient4479"
       inkscape:swatch="solid">
      <stop
         style="stop-color:#000000;stop-opacity:1;"
         offset="0"
         id="stop4477" />
    </linearGradient>
    <linearGradient
       id="linearGradient4473"
       inkscape:swatch="solid">
      <stop
         style="stop-color:#d5fff6;stop-opacity:1;"
         offset="0"
         id="stop4471" />
    </linearGradient>
    <rect
       x="232.75862"
       y="119.31034"
       width="35.172414"
       height="11.034483"
       id="rect2204" />
    <marker
       style="overflow:visible;"
       id="marker2164"
       refX="0.0"
       refY="0.0"
       orient="auto"
       inkscape:stockid="Arrow1Send"
       inkscape:isstock="true">
      <path
         transform="scale(0.2) rotate(180) translate(6,0)"
         style="fill-rule:evenodd;stroke:#000000;stroke-width:1pt;stroke-opacity:1;fill:#000000;fill-opacity:1"
         d="M 0.0,0.0 L 5.0,-5.0 L -12.5,0.0 L 5.0,5.0 L 0.0,0.0 z "
         id="path2162" />
    </marker>
    <marker
       style="overflow:visible;"
       id="marker2056"
       refX="0.0"
       refY="0.0"
       orient="auto"
       inkscape:stockid="Arrow1Send"
       inkscape:isstock="true"
       inkscape:collect="always">
      <path
         transform="scale(0.2) rotate(180) translate(6,0)"
         style="fill-rule:evenodd;stroke:#000000;stroke-width:1pt;stroke-opacity:1;fill:#000000;fill-opacity:1"
         d="M 0.0,0.0 L 5.0,-5.0 L -12.5,0.0 L 5.0,5.0 L 0.0,0.0 z "
         id="path2054" />
    </marker>
    <marker
       style="overflow:visible;"
       id="Arrow1Send"
       refX="0.0"
       refY="0.0"
       orient="auto"
       inkscape:stockid="Arrow1Send"
       inkscape:isstock="true"
       inkscape:collect="always">
      <path
         transform="scale(0.2) rotate(180) translate(6,0)"
         style="fill-rule:evenodd;stroke:#000000;stroke-width:1pt;stroke-opacity:1;fill:#000000;fill-opacity:1"
         d="M 0.0,0.0 L 5.0,-5.0 L -12.5,0.0 L 5.0,5.0 L 0.0,0.0 z "
         id="path1693" />
    </marker>
    <pattern
       patternUnits="userSpaceOnUse"
       width="209.97551"
       height="108.09514"
       patternTransform="translate(37.36684,125.45809)"
       id="pattern4455">
      <rect
         style="opacity:1;vector-effect:none;fill:#ffffff;fill-opacity:1;fill-rule:nonzero;stroke:none;stroke-width:3.77953;stroke-linecap:butt;stroke-linejoin:round;stroke-miterlimit:4;stroke-dasharray:none;stroke-dashoffset:0;stroke-opacity:1;paint-order:fill markers stroke"
         id="rect4334"
         width="161.60739"
         height="105.56612"
         x="0.42843556"
         y="2.2638741"
         rx="1.4873399e-05" />
      <path
         style="fill:none;stroke:#000000;stroke-width:0.999999px;stroke-linecap:butt;stroke-linejoin:miter;stroke-opacity:1"
         d="M 0.42843557,30.77794 19.30922,2.2638692"
         id="path4372" />
      <path
         style="fill:none;stroke:#000000;stroke-width:0.999999px;stroke-linecap:butt;stroke-linejoin:miter;stroke-opacity:1"
         d="M 0.42843557,61.889201 37.970849,2.2638692"
         id="path4374" />
      <path
         style="fill:none;stroke:#000000;stroke-width:0.999999px;stroke-linecap:butt;stroke-linejoin:miter;stroke-opacity:1"
         d="M 50.653564,107.82999 113.76932,2.263873"
         id="path4382"
         sodipodi:nodetypes="cc" />
      <path
         style="fill:none;stroke:#000000;stroke-width:0.999999px;stroke-linecap:butt;stroke-linejoin:miter;stroke-opacity:1"
         d="M 32.913494,107.82999 94.877299,2.263873"
         id="path4386"
         sodipodi:nodetypes="cc" />
      <path
         style="fill:none;stroke:#000000;stroke-width:0.999999px;stroke-linecap:butt;stroke-linejoin:miter;stroke-opacity:1"
         d="M 67.581645,107.82999 132.54053,0.96528025"
         id="path4388"
         sodipodi:nodetypes="cc" />
      <path
         id="path4384"
         style="fill:none;stroke:#000000;stroke-width:0.264583px;stroke-linecap:butt;stroke-linejoin:miter;stroke-opacity:1"
         sodipodi:type="inkscape:offset"
         inkscape:radius="0"
         inkscape:original="M 49.984375 33.792969 L 32.675781 61.724609 L 49.984375 33.792969 z "
         d="M 49.984375,33.792969 32.675781,61.724609 Z"
         transform="matrix(3.7795276,0,0,3.7795276,-37.36684,-125.45809)" />
      <path
         style="fill:none;stroke:#000000;stroke-width:0.999999px;stroke-linecap:butt;stroke-linejoin:miter;stroke-opacity:1"
         d="M 13.791084,107.82999 75.754888,2.263873"
         id="path4390"
         sodipodi:nodetypes="cc" />
      <path
         style="fill:none;stroke:#000000;stroke-width:0.999999px;stroke-linecap:butt;stroke-linejoin:miter;stroke-opacity:1"
         d="M 0.42843557,96.447776 57.09326,2.263873"
         id="path4392"
         sodipodi:nodetypes="cc" />
      <path
         id="path4395"
         style="fill:none;stroke:#000000;stroke-width:0.264583px;stroke-linecap:butt;stroke-linejoin:miter;stroke-opacity:1"
         sodipodi:type="inkscape:offset"
         inkscape:radius="0"
         inkscape:original="M 49.984375 33.792969 L 32.675781 61.724609 L 49.984375 33.792969 z "
         d="M 49.984375,33.792969 32.675781,61.724609 Z"
         transform="matrix(3.7795276,0,0,3.7795276,20.633174,-127.45809)" />
      <path
         id="path4397"
         style="fill:none;stroke:#000000;stroke-width:0.264583px;stroke-linecap:butt;stroke-linejoin:miter;stroke-opacity:1"
         sodipodi:type="inkscape:offset"
         inkscape:radius="0"
         inkscape:original="M 49.984375 33.792969 L 32.675781 61.724609 L 49.984375 33.792969 z "
         d="M 49.984375,33.792969 32.675781,61.724609 Z"
         transform="matrix(3.7795276,0,0,3.7795276,0.63316124,-125.45809)" />
      <path
         id="path4399"
         style="fill:none;stroke:#000000;stroke-width:0.264583px;stroke-linecap:butt;stroke-linejoin:miter;stroke-opacity:1"
         sodipodi:type="inkscape:offset"
         inkscape:radius="0"
         inkscape:original="M 49.984375 33.792969 L 32.675781 61.724609 L 49.984375 33.792969 z "
         d="M 49.984375,33.792969 32.675781,61.724609 Z"
         transform="matrix(3.7795276,0,0,3.7795276,-17.366839,-127.45809)" />
    </pattern>
    <rect
       x="34.482759"
       y="63.793103"
       width="34.482758"
       height="8.440461"
       id="rect4705" />
    <rect
       x="34.482759"
       y="63.793103"
       width="37.758621"
       height="8.275862"
       id="rect4711" />
    <rect
       x="34.482759"
       y="63.793103"
       width="17.63163"
       height="7.930536"
       id="rect4725" />
    <rect
       x="34.482759"
       y="63.793103"
       width="17.703047"
       height="7.959482"
       id="rect4731" />
    <rect
       x="34.482759"
       y="63.793103"
       width="57.217212"
       height="8.0167936"
       id="rect4739" />
    <rect
       x="98.448273"
       y="133.6207"
       width="59.470679"
       height="27.171067"
       id="rect4767-8" />
    <rect
       x="98.448273"
       y="133.6207"
       width="48.620689"
       height="15.86207"
       id="rect4840" />
    <rect
       x="98.448273"
       y="133.6207"
       width="60.334741"
       height="27.637195"
       id="rect4767-8-7" />
    <rect
       x="98.448273"
       y="133.6207"
       width="48.620689"
       height="15.86207"
       id="rect4918" />
    <rect
       x="98.448273"
       y="133.6207"
       width="60.197582"
       height="27.611357"
       id="rect4767-8-7-4" />
    <rect
       x="98.448273"
       y="133.6207"
       width="50.344826"
       height="16.896553"
       id="rect4978" />
    <pattern
       patternUnits="userSpaceOnUse"
       width="95.831949"
       height="91.951768"
       patternTransform="translate(153.4416,165.15635)"
       id="pattern5101">
      <path
         style="fill:none;stroke:#000000;stroke-width:0.999999px;stroke-linecap:butt;stroke-linejoin:miter;stroke-opacity:1"
         d="M 95.48589,0.36089084 0.34605976,91.590877"
         id="path5099" />
    </pattern>
    <pattern
       patternUnits="userSpaceOnUse"
       width="108.11079"
       height="134.90055"
       patternTransform="translate(39.781155,74.607848)"
       id="pattern5124">
      <rect
         style="opacity:1;vector-effect:none;fill:#e5ff80;fill-opacity:1;fill-rule:nonzero;stroke:#241f1c;stroke-width:1.88976;stroke-linecap:square;stroke-linejoin:miter;stroke-miterlimit:4;stroke-dasharray:none;stroke-dashoffset:0;stroke-opacity:1;paint-order:fill markers stroke"
         id="rect5120"
         width="26.065708"
         height="122.50883"
         x="54.131447"
         y="-29.006289"
         transform="rotate(29.385346)" />
      <rect
         style="opacity:1;vector-effect:none;fill:#e5ff80;fill-opacity:1;fill-rule:nonzero;stroke:#241f1c;stroke-width:1.88976;stroke-linecap:square;stroke-linejoin:miter;stroke-miterlimit:4;stroke-dasharray:none;stroke-dashoffset:0;stroke-opacity:1;paint-order:fill markers stroke"
         id="rect5122"
         width="26.065708"
         height="122.50883"
         x="80.197151"
         y="-29.006289"
         transform="rotate(29.385346)" />
    </pattern>
  </defs>
  <sodipodi:namedview
     id="base"
     pagecolor="#ffffff"
     bordercolor="#666666"
     borderopacity="1.0"
     inkscape:pageopacity="0.0"
     inkscape:pageshadow="2"
     inkscape:zoom="0.76729167"
     inkscape:cx="560.4127"
     inkscape:cy="671.19196"
     inkscape:document-units="mm"
     inkscape:current-layer="layer1"
     inkscape:document-rotation="0"
     showgrid="false"
     inkscape:window-width="1440"
     inkscape:window-height="830"
     inkscape:window-x="-6"
     inkscape:window-y="-6"
     inkscape:window-maximized="1"
     showguides="false"
     inkscape:guide-bbox="true"
     inkscape:snap-bbox="true"
     inkscape:bbox-paths="false"
     inkscape:object-paths="true"
     inkscape:snap-midpoints="true"
     inkscape:snap-bbox-midpoints="true"
     inkscape:snap-nodes="true"
     inkscape:snap-page="false"
     inkscape:bbox-nodes="true"
     inkscape:snap-global="true"
     inkscape:snap-intersection-paths="true"
     inkscape:snap-smooth-nodes="true"
     inkscape:snap-text-baseline="true"
     inkscape:lockguides="false"
     inkscape:pagecheckerboard="0"
     inkscape:showpageshadow="2"
     inkscape:deskcolor="#d1d1d1">
    <sodipodi:guide
       position="154.48276,50.172428"
       orientation="1,0"
       id="guide4639"
       inkscape:locked="false" />
    <sodipodi:guide
       position="154.481,44.964146"
       orientation="0,-1"
       id="guide4643"
       inkscape:locked="false" />
    <sodipodi:guide
       position="224.48,94.482768"
       orientation="-1,0"
       id="guide4658"
       inkscape:label=""
       inkscape:locked="false"
       inkscape:color="rgb(0,0,255)" />
    <sodipodi:guide
       position="224.48,94.482768"
       orientation="0,-1"
       id="guide4660"
       inkscape:locked="false" />
    <sodipodi:guide
       position="84.482,94.482766"
       orientation="-1,0"
       id="guide4671"
       inkscape:label=""
       inkscape:locked="false"
       inkscape:color="rgb(0,0,255)" />
    <sodipodi:guide
       position="73.982752,94.982768"
       orientation="1,0"
       id="guide4673"
       inkscape:locked="false" />
    <sodipodi:guide
       position="74.48276,5.9482799"
       orientation="0,-1"
       id="guide4675"
       inkscape:locked="false" />
    <sodipodi:guide
       position="84.482002,83.98"
       orientation="0,1"
       id="guide4677"
       inkscape:label=""
       inkscape:locked="false"
       inkscape:color="rgb(0,0,255)" />
  </sodipodi:namedview>
  <metadata
     id="metadata5">
    <rdf:RDF>
      <cc:Work
         rdf:about="">
        <dc:format>image/svg+xml</dc:format>
        <dc:type
           rdf:resource="http://purl.org/dc/dcmitype/StillImage" />
        <dc:title />
      </cc:Work>
    </rdf:RDF>
  </metadata>
  <g
     inkscape:label="Capa 1"
     inkscape:groupmode="layer"
     id="layer1">
    <rect
       style="fill:#ffffff;stroke:none;stroke-width:0.498308;stroke-linecap:square;paint-order:fill markers stroke"
       id="rect1045"
       width="295.51724"
       height="210"
       x="1.0443951"
       y="0.46532711" />
    <path
       id="rect4687"
       style="opacity:1;vector-effect:none;fill:#ececec;fill-opacity:1;fill-rule:nonzero;stroke:#666666;stroke-width:1;stroke-linecap:square;stroke-linejoin:miter;stroke-miterlimit:4;stroke-dasharray:none;stroke-dashoffset:0;stroke-opacity:1;paint-order:fill markers stroke"
       d="M 154.48276,115.56033 H 224.48 v 88.53448 H 154.48276 Z M 73.98275,126.0631 h 150.49724 v 39.01585 H 73.98275 Z m 4e-6,0 h 10.49924 c 2e-6,0 3e-6,0 3e-6,0 v 78.0317 c 0,0 -1e-6,0 -3e-6,0 h -10.49924 c -2e-6,0 -4e-6,0 -4e-6,0 v -78.0317 c 0,0 2e-6,0 4e-6,0 z M 84.481999,115.56033 H 224.47999 c 0,0 1e-5,0 1e-5,0 v 10.50276 c 0,0 -1e-5,0 -1e-5,0 H 84.481999 c -3e-6,0 -4e-6,0 -4e-6,0 v -10.50276 c 0,0 10e-7,0 4e-6,0 z m 0,10.50277 H 224.47999 c 0,0 1e-5,0 1e-5,0 v 78.03171 c 0,0 -1e-5,0 -1e-5,0 H 84.481999 c -3e-6,0 -4e-6,0 -4e-6,0 V 126.0631 c 0,0 10e-7,0 4e-6,0 z" />
    <g
       id="g4599"
       transform="matrix(0.51851994,0,0,0.51851994,74.047025,-1.0352051)">
      <text
         xml:space="preserve"
         style="font-style:normal;font-variant:normal;font-weight:normal;font-stretch:normal;line-height:1.25;font-family:Arial;-inkscape-font-specification:Arial;letter-spacing:0px;word-spacing:0px;baseline-shift:baseline;fill:#000000;fill-opacity:1;stroke:none;stroke-width:0.264583"
         x="93.239052"
         y="16.205633"
         id="text1666"><tspan
           sodipodi:role="line"
           id="tspan1664"
           x="93.239052"
           y="16.205633">Potencia Estadística</tspan></text>
      <g
         id="g2256">
        <text
           xml:space="preserve"
           style="font-style:normal;font-variant:normal;font-weight:normal;font-stretch:normal;font-size:12.7px;line-height:1.25;font-family:Arial;-inkscape-font-specification:Arial;letter-spacing:0px;word-spacing:0px;fill:#000000;fill-opacity:1;stroke:none;stroke-width:0.264583"
           x="114.15263"
           y="38.696682"
           id="text1636"><tspan
             sodipodi:role="line"
             id="tspan1634"
             x="114.15263"
             y="38.696682"
             style="font-size:12.7px;stroke-width:0.264583">H<tspan
   style="font-size:65%;baseline-shift:sub"
   id="tspan1640">0</tspan></tspan></text>
        <text
           xml:space="preserve"
           style="font-style:normal;font-variant:normal;font-weight:normal;font-stretch:normal;font-size:12.7px;line-height:1.25;font-family:Arial;-inkscape-font-specification:Arial;letter-spacing:0px;word-spacing:0px;fill:#000000;fill-opacity:1;stroke:none;stroke-width:0.264583"
           x="180.29073"
           y="38.797451"
           id="text1646"><tspan
             sodipodi:role="line"
             id="tspan1644"
             x="180.29073"
             y="38.797451"
             style="font-size:12.7px;stroke-width:0.264583">H<tspan
   style="font-size:65%;baseline-shift:sub"
   id="tspan1652">1</tspan></tspan></text>
        <path
           id="path1626"
           style="fill:#d5f6ff;fill-opacity:1;fill-rule:nonzero;stroke:none;stroke-width:1;stroke-linecap:butt;stroke-linejoin:round;stroke-miterlimit:4;stroke-dasharray:none;stroke-opacity:1"
           d="m 290.63424,199.47232 c -2.395,-0.013 -4.791,-0.034 -7.186,-0.072 -2.395,-0.039 -4.79,-0.095 -7.185,-0.196 -2.395,-0.1 -4.79,-0.244 -7.185,-0.483 -2.395,-0.239 -4.791,-0.573 -7.186,-1.095 -2.395,-0.522 -4.79,-1.232 -7.185,-2.276 -2.395,-1.044 -4.79,-2.422 -7.185,-4.329 -2.395,-1.907 -4.79,-4.343 -7.186,-7.515 -2.395,-3.172 -4.79,-7.082 -7.185,-11.87 -2.395,-4.788 -4.79,-10.456 -7.185,-16.975 -2.395,-6.518 -4.79,-13.886 -7.186,-21.813 -2.395,-7.92699 -4.79,-16.40658 -7.185,-24.87168 -2.395,-8.46501 -4.79,-16.90461 -7.185,-24.57361 -2.395,-7.669 -4.79,-14.5559 -7.185,-19.9469 -2.396,-5.391 -4.791,-9.2801 -7.186,-11.224 -2.395,-1.9439 -4.79,-1.9477 -7.185,0 -2.395,1.9477 -4.79,5.83 -7.185,11.224 -2.396,5.3939 -4.791,12.2764 -7.186,19.9469 -2.1492,6.883353 -4.29839,13.805904 -6.44759,21.39021 v 94.12806 l 128.59859,0.55099"
           sodipodi:nodetypes="csssscsccsscsscsccccc" />
        <path
           id="path777"
           style="fill:#ddff55;stroke:none;stroke-width:1;stroke-linecap:butt;stroke-linejoin:miter;stroke-miterlimit:4;stroke-dasharray:none;stroke-opacity:1"
           d="m 225.53201,199 c -2.395,-0.013 -4.791,-0.034 -7.186,-0.072 -2.395,-0.039 -4.79,-0.095 -7.185,-0.196 -2.395,-0.1 -4.79,-0.244 -7.185,-0.483 -2.395,-0.239 -4.791,-0.573 -7.186,-1.095 -2.395,-0.522 -4.79,-1.232 -7.185,-2.276 -2.395,-1.044 -4.79,-2.422 -7.185,-4.329 -2.395,-1.907 -4.79,-4.343 -7.186,-7.515 -2.395,-3.172 -4.79,-7.082 -7.185,-11.87 -1.86749,-3.73343 -3.73498,-8.00189 -5.6025,-12.79166 L 162.41381,199 h 63.11822"
           sodipodi:nodetypes="csssscsccccc" />
        <path
           id="path1631"
           style="fill:#ff9955;stroke:none;stroke-width:1;stroke-linecap:butt;stroke-linejoin:miter;stroke-miterlimit:4;stroke-dasharray:none;stroke-opacity:1"
           d="m 82.357292,199.5 c 2.3951,-0.013 4.7903,-0.034 7.1854,-0.072 2.395095,-0.039 4.79018,-0.095 7.185268,-0.196 2.395085,-0.1 4.79018,-0.244 7.18528,-0.483 2.3951,-0.239 4.7902,-0.573 7.1853,-1.095 2.3951,-0.522 4.7902,-1.233 7.1853,-2.276 2.3951,-1.044 4.7902,-2.423 7.1853,-4.329 2.3952,-1.906 4.7903,-4.345 7.1854,-7.515 2.3951,-3.171 4.7902,-7.084 7.1853,-11.87 2.3951,-4.786 4.7902,-10.458 7.1853,-16.975 2.3947,-6.516 4.7907,-13.887 7.1857,-21.813 2.395,-7.925 5.42978,-19.03888 7.82481,-27.50407 1.27345,15.0419 0.005,68.52318 2e-5,94.12807 H 82.357292"
           sodipodi:nodetypes="cccsscccsscccc" />
        <text
           xml:space="preserve"
           style="font-style:normal;font-variant:normal;font-weight:normal;font-stretch:normal;font-size:8.46667px;line-height:1.25;font-family:GreekC;-inkscape-font-specification:GreekC;letter-spacing:0px;word-spacing:0px;baseline-shift:baseline;fill:#000000;fill-opacity:1;stroke:none;stroke-width:0.264583"
           x="232.97693"
           y="113.61796"
           id="text1660"><tspan
             sodipodi:role="line"
             id="tspan1658"
             x="232.97693"
             y="113.61796">1-b </tspan></text>
        <text
           xml:space="preserve"
           style="font-style:normal;font-variant:normal;font-weight:normal;font-stretch:normal;font-size:8.46667px;line-height:1.25;font-family:GreekC;-inkscape-font-specification:GreekC;letter-spacing:0px;word-spacing:0px;baseline-shift:baseline;fill:#000000;fill-opacity:1;stroke:none;stroke-width:0.264583"
           x="190.6731"
           y="179.03555"
           id="text1670"><tspan
             sodipodi:role="line"
             id="tspan1668"
             x="190.6731"
             y="179.03555">a/2 </tspan></text>
        <text
           xml:space="preserve"
           style="font-style:normal;font-variant:normal;font-weight:normal;font-stretch:normal;font-size:8.46667px;line-height:1.25;font-family:GreekC;-inkscape-font-specification:GreekC;letter-spacing:0px;word-spacing:0px;baseline-shift:baseline;fill:#000000;fill-opacity:1;stroke:none;stroke-width:0.264583"
           x="118.10662"
           y="164.63831"
           id="text1674"><tspan
             sodipodi:role="line"
             id="tspan1672"
             x="118.10662"
             y="164.63831">b </tspan></text>
        <path
           style="fill:none;stroke:#000000;stroke-width:1;stroke-linecap:butt;stroke-linejoin:miter;stroke-miterlimit:4;stroke-dasharray:none;stroke-opacity:1;marker-end:url(#Arrow1Send)"
           d="m 236.99841,125.24319 -23.6798,20.43102"
           id="path1676"
           sodipodi:nodetypes="cc" />
        <path
           style="fill:none;stroke:#000000;stroke-width:1;stroke-linecap:butt;stroke-linejoin:miter;stroke-miterlimit:4;stroke-dasharray:none;stroke-opacity:1;marker-end:url(#marker2056)"
           d="m 189.92505,179.6405 -20.92118,14.56895"
           id="path2052"
           sodipodi:nodetypes="cc" />
        <path
           style="fill:none;stroke:#000000;stroke-width:1;stroke-linecap:butt;stroke-linejoin:miter;stroke-miterlimit:4;stroke-dasharray:none;stroke-opacity:1;marker-end:url(#marker2164)"
           d="m 124.04345,166.39409 20.16792,18.36206"
           id="path2092"
           sodipodi:nodetypes="cc" />
        <text
           xml:space="preserve"
           id="text2202"
           style="font-style:normal;font-variant:normal;font-weight:normal;font-stretch:normal;font-size:8.46667px;line-height:1.25;font-family:Arial;-inkscape-font-specification:Arial;letter-spacing:0px;word-spacing:0px;white-space:pre;shape-inside:url(#rect2204);fill:#000000;fill-opacity:1;stroke:none"
           transform="translate(-5.2916669,-4.2333335)"><tspan
             x="232.75781"
             y="126.93694"
             id="tspan2"><tspan
               style="shape-inside:url(#rect2204)"
               id="tspan1">Potencia</tspan></tspan></text>
        <path
           id="path5095"
           style="fill:#ddff55;stroke:none;stroke-width:1;stroke-linecap:butt;stroke-linejoin:miter;stroke-miterlimit:4;stroke-dasharray:none;stroke-opacity:1"
           d="m 17.157059,199 c 2.395,-0.013 4.791,-0.034 7.186,-0.072 2.395,-0.039 4.79,-0.095 7.185,-0.196 2.395,-0.1 4.79,-0.244 7.185,-0.483 2.395,-0.239 4.791,-0.573 7.186,-1.095 2.395,-0.522 4.79,-1.232 7.185,-2.276 2.395,-1.044 4.79,-2.422 7.185,-4.329 2.395,-1.907 4.79,-4.343 7.186,-7.515 2.395,-3.172 4.79,-7.082 7.185,-11.87 1.86749,-3.73343 3.73498,-8.00189 5.6025,-12.79166 L 80.275259,199 h -63.11822"
           sodipodi:nodetypes="csssscsccccc" />
        <path
           style="vector-effect:none;fill:none;fill-opacity:1;fill-rule:nonzero;stroke:#333333;stroke-width:1.28364;stroke-linecap:butt;stroke-linejoin:round;stroke-miterlimit:4;stroke-dasharray:none;stroke-dashoffset:0;stroke-opacity:1;paint-order:fill markers stroke"
           d="m 17.157771,199 c 2.3951,-0.013 4.790299,-0.034 7.185398,-0.072 2.395099,-0.039 4.790197,-0.095 7.185296,-0.196 2.395098,-0.1 4.790197,-0.244 7.185295,-0.483 2.395099,-0.239 4.790199,-0.573 7.185299,-1.095 2.3951,-0.522 4.7902,-1.233 7.1853,-2.276 2.3951,-1.044 4.7902,-2.423 7.1853,-4.329 2.3952,-1.906 4.7903,-4.345 7.1854,-7.515 2.3951,-3.171 4.7902,-7.084 7.185289,-11.87 2.395088,-4.786 4.790173,-10.458 7.185261,-16.975 2.394685,-6.516 4.79067,-13.887 7.185658,-21.813 2.394985,-7.925 4.789973,-16.4065 7.184958,-24.8717 2.394988,-8.465097 4.789965,-16.902997 7.184955,-24.573597 2.39499,-7.6705 4.78998,-14.553 7.18597,-19.9469 2.39498,-5.394 4.78997,-9.2763 7.18496,-11.224 2.39498,-1.9477 4.78997,-1.9439 7.18496,0 2.39498,1.9439 4.78997,5.833 7.18596,11.224 2.395,5.391 4.79,12.2779 7.185,19.9469 2.395,7.669 4.79,16.1086 7.185,24.573597 2.395,8.4651 4.79,16.9447 7.185,24.8717 2.396,7.927 4.791,15.295 7.186,21.813 2.395,6.519 4.79,12.187 7.185,16.975 2.395,4.788 4.79,8.698 7.185,11.87 2.396,3.172 4.791,5.608 7.186,7.515 2.395,1.907 4.79,3.285 7.185,4.329 2.395,1.044 4.79,1.754 7.185,2.276 2.395,0.522 4.791,0.856 7.186,1.095 2.395,0.239 4.79,0.383 7.185,0.483 2.395,0.101 4.79,0.157 7.185,0.196 2.395,0.038 4.791,0.059 7.186,0.072"
           title="t 9 * exp(-pow(t * 1, 2) / 3)"
           id="path779"
           sodipodi:nodetypes="cccsscccsscsccsscssccscssssccc" />
        <path
           style="vector-effect:none;fill:none;fill-opacity:1;fill-rule:nonzero;stroke:#999999;stroke-width:1.28364;stroke-linecap:butt;stroke-linejoin:round;stroke-miterlimit:4;stroke-dasharray:none;stroke-dashoffset:0;stroke-opacity:1;paint-order:fill markers stroke"
           d="m 82.125889,199.36575 c 2.3951,-0.013 4.7903,-0.034 7.1854,-0.072 2.39509,-0.039 4.79018,-0.095 7.18526,-0.196 2.39509,-0.1 4.790181,-0.244 7.185281,-0.483 2.3951,-0.239 4.7902,-0.573 7.1853,-1.095 2.3951,-0.522 4.7902,-1.233 7.1853,-2.276 2.3951,-1.044 4.7902,-2.423 7.1853,-4.329 2.3952,-1.906 4.7903,-4.345 7.1854,-7.515 2.3951,-3.171 4.7902,-7.084 7.1853,-11.87 2.3951,-4.786 4.7902,-10.458 7.1853,-16.975 2.3947,-6.516 4.7907,-13.887 7.1857,-21.813 2.395,-7.925 4.79,-16.4065 7.185,-24.87171 2.395,-8.465098 4.79,-16.902998 7.185,-24.573598 2.395,-7.6705 4.79,-14.553 7.186,-19.9469 2.395,-5.394 4.79,-9.2763 7.185,-11.224 2.395,-1.9477 4.79,-1.9439 7.185,0 2.395,1.9439 4.79,5.833 7.186,11.224 2.395,5.391 4.79,12.2779 7.185,19.9469 2.395,7.669 4.79,16.1086 7.185,24.573598 2.395,8.46511 4.79,16.94471 7.185,24.87171 2.396,7.927 4.791,15.295 7.186,21.813 2.395,6.519 4.79,12.187 7.185,16.975 2.395,4.788 4.79,8.698 7.185,11.87 2.396,3.172 4.791,5.608 7.186,7.515 2.395,1.907 4.79,3.285 7.185,4.329 2.395,1.044 4.79,1.754 7.185,2.276 2.395,0.522 4.791,0.856 7.186,1.095 2.395,0.239 4.79,0.383 7.185,0.483 2.395,0.101 4.79,0.157 7.185,0.196 2.395,0.038 4.791,0.059 7.186,0.072"
           title="t 9 * exp(-pow(t * 1, 2) / 3)"
           id="path763"
           sodipodi:nodetypes="cccsscccsscsccsscssccscssssccc" />
        <path
           style="fill:#784421;stroke:#000000;stroke-width:2;stroke-linecap:butt;stroke-linejoin:miter;stroke-miterlimit:4;stroke-dasharray:none;stroke-opacity:1"
           d="M -0.1604885,199 H 296.83951"
           id="path775"
           sodipodi:nodetypes="cc" />
        <path
           style="fill:none;stroke:#000000;stroke-width:1;stroke-linecap:butt;stroke-linejoin:miter;stroke-miterlimit:4;stroke-dasharray:1, 1;stroke-dashoffset:0;stroke-opacity:1"
           d="M 162.03565,198.26853 V 106.53347 49.56897"
           id="path785"
           sodipodi:nodetypes="ccc" />
        <path
           style="fill:none;stroke:#000000;stroke-width:1;stroke-linecap:butt;stroke-linejoin:miter;stroke-miterlimit:4;stroke-dasharray:1, 1;stroke-dashoffset:0;stroke-opacity:1"
           d="M 80.601872,198.72393 V 154.73989"
           id="path5097"
           sodipodi:nodetypes="cc" />
      </g>
    </g>
    <text
       xml:space="preserve"
       id="text4695"
       style="font-style:normal;font-variant:normal;font-weight:normal;font-stretch:normal;font-size:6.35px;line-height:1.25;font-family:Arial;-inkscape-font-specification:Arial;letter-spacing:0px;word-spacing:0px;white-space:pre;shape-inside:url(#rect4697);fill:#000000;fill-opacity:1;stroke:none"
       transform="translate(107.79622,42.984324)"><tspan
         x="34.482422"
         y="69.512759"
         id="tspan4"><tspan
           style="shape-inside:url(#rect4697)"
           id="tspan3">Decisión</tspan></tspan></text>
    <text
       xml:space="preserve"
       id="text4703"
       style="font-style:normal;font-variant:normal;font-weight:normal;font-stretch:normal;font-size:5.64444px;line-height:1.25;font-family:Arial;-inkscape-font-specification:Arial;letter-spacing:0px;word-spacing:0px;white-space:pre;shape-inside:url(#rect4705);fill:#000000;fill-opacity:1;stroke:none"
       transform="translate(138.44183,53.781112)"><tspan
         x="34.482422"
         y="68.877223"
         id="tspan6">Rechazar H<tspan
   style="font-size:4.23333px;baseline-shift:sub"
   id="tspan5">0</tspan></tspan></text>
    <text
       xml:space="preserve"
       id="text4709"
       style="font-style:normal;font-variant:normal;font-weight:normal;font-stretch:normal;font-size:5.64444px;line-height:1.25;font-family:Arial;-inkscape-font-specification:Arial;letter-spacing:0px;word-spacing:0px;white-space:pre;shape-inside:url(#rect4711);fill:#000000;fill-opacity:1;stroke:none"
       transform="translate(71.021134,53.781112)"><tspan
         x="34.482422"
         y="68.877223"
         id="tspan8">Aceptar H<tspan
   style="font-size:4.23333px;baseline-shift:sub"
   id="tspan7">0</tspan></tspan></text>
    <text
       xml:space="preserve"
       id="text4723"
       style="font-style:normal;font-variant:normal;font-weight:normal;font-stretch:normal;font-size:5.64444px;line-height:1.25;font-family:Arial;-inkscape-font-specification:Arial;letter-spacing:0px;word-spacing:0px;white-space:pre;shape-inside:url(#rect4725);fill:#000000;fill-opacity:1;stroke:none"
       transform="rotate(-90,100.21128,87.452928)"><tspan
         x="34.482422"
         y="68.877223"
         id="tspan10"><tspan
           style="shape-inside:url(#rect4725)"
           id="tspan9">Cierta</tspan></tspan></text>
    <text
       xml:space="preserve"
       id="text4729"
       style="font-style:normal;font-variant:normal;font-weight:normal;font-stretch:normal;font-size:5.64444px;line-height:1.25;font-family:Arial;-inkscape-font-specification:Arial;letter-spacing:0px;word-spacing:0px;white-space:pre;shape-inside:url(#rect4731);fill:#000000;fill-opacity:1;stroke:none"
       transform="rotate(-90,119.41335,106.68394)"><tspan
         x="34.482422"
         y="68.877223"
         id="tspan12"><tspan
           style="shape-inside:url(#rect4731)"
           id="tspan11">Falsa</tspan></tspan></text>
    <text
       xml:space="preserve"
       id="text4737"
       style="font-style:normal;font-variant:normal;font-weight:normal;font-stretch:normal;font-size:6.35px;line-height:1.25;font-family:Arial;-inkscape-font-specification:Arial;letter-spacing:0px;word-spacing:0px;white-space:pre;shape-inside:url(#rect4739);fill:#000000;fill-opacity:1;stroke:none"
       transform="rotate(-90,113.03653,114.65678)"><tspan
         x="34.482422"
         y="69.512759"
         id="tspan14"><tspan
           style="shape-inside:url(#rect4739)"
           id="tspan13">La hipótesis nula es</tspan></tspan></text>
    <text
       xml:space="preserve"
       id="text4765"
       style="font-style:normal;font-variant:normal;font-weight:normal;font-stretch:normal;font-size:4.93889px;line-height:1.25;font-family:Arial;-inkscape-font-specification:Arial;text-align:center;letter-spacing:0px;word-spacing:0px;white-space:pre;shape-inside:url(#rect4767);fill:#000000;fill-opacity:1;stroke:none"
       x="12.793697"
       y="0"
       transform="translate(-3.203008,3.1371972)"><tspan
         x="112.53871"
         y="138.06982"
         id="tspan17"><tspan
           style="font-weight:bold;-inkscape-font-specification:'Arial Bold'"
           id="tspan15">Correcto</tspan><tspan
           style="shape-inside:url(#rect4767)"
           id="tspan16">
</tspan></tspan><tspan
         x="102.65129"
         y="144.25543"
         id="tspan20"><tspan
           style="font-style:italic;-inkscape-font-specification:'Arial Italic'"
           id="tspan18">Nivel de confianza</tspan><tspan
           style="shape-inside:url(#rect4767)"
           id="tspan19"> </tspan></tspan><tspan
         x="102.60788"
         y="150.48622"
         id="tspan23"><tspan
           style="shape-inside:url(#rect4767)"
           id="tspan21">Probabilidad = 1-</tspan><tspan
           style="font-family:GreekC;-inkscape-font-specification:GreekC"
           id="tspan22">a</tspan></tspan></text>
    <rect
       style="opacity:1;vector-effect:none;fill:#ddff55;fill-opacity:1;fill-rule:nonzero;stroke:#666666;stroke-width:1;stroke-linecap:square;stroke-linejoin:miter;stroke-miterlimit:4;stroke-dasharray:none;stroke-dashoffset:0;stroke-opacity:1;paint-order:fill markers stroke"
       id="rect5053"
       width="69.997238"
       height="39.015854"
       x="154.48276"
       y="126.0631" />
    <text
       xml:space="preserve"
       id="text4765-4"
       style="font-style:normal;font-variant:normal;font-weight:normal;font-stretch:normal;font-size:4.93889px;line-height:1.25;font-family:Arial;-inkscape-font-specification:Arial;text-align:center;letter-spacing:0px;word-spacing:0px;white-space:pre;shape-inside:url(#rect4767-8);fill:#000000;fill-opacity:1;stroke:none"
       x="12.793697"
       y="0"
       transform="translate(61.106292,3.1070526)"><tspan
         x="115.56243"
         y="138.06982"
         id="tspan26"><tspan
           style="font-weight:bold;-inkscape-font-specification:'Arial Bold'"
           id="tspan24">Error tipo I</tspan><tspan
           style="text-anchor:middle"
           id="tspan25">
</tspan></tspan><tspan
         x="113.08695"
         y="144.25543"
         id="tspan28"><tspan
           style="font-style:italic;-inkscape-font-specification:'Arial Italic';text-anchor:middle"
           id="tspan27">Falso positivo
</tspan></tspan><tspan
         x="110.1581"
         y="150.48622"
         id="tspan32"><tspan
           style="text-anchor:middle"
           id="tspan29">Probabilidad = </tspan><tspan
           style="font-family:GreekC;-inkscape-font-specification:GreekC"
           id="tspan30">a</tspan><tspan
           style="text-anchor:middle"
           id="tspan31"> </tspan></tspan></text>
    <rect
       style="opacity:1;vector-effect:none;fill:#ff9955;fill-opacity:1;fill-rule:nonzero;stroke:#666666;stroke-width:1;stroke-linecap:square;stroke-linejoin:miter;stroke-miterlimit:4;stroke-dasharray:none;stroke-dashoffset:0;stroke-opacity:1;paint-order:fill markers stroke"
       id="rect5055"
       width="69.997238"
       height="39.015854"
       x="84.481995"
       y="165.07895" />
    <text
       xml:space="preserve"
       id="text4765-4-6"
       style="font-style:normal;font-variant:normal;font-weight:normal;font-stretch:normal;font-size:4.93889px;line-height:1.25;font-family:Arial;-inkscape-font-specification:Arial;text-align:center;letter-spacing:0px;word-spacing:0px;white-space:pre;shape-inside:url(#rect4767-8-7);fill:#000000;fill-opacity:1;stroke:none"
       x="12.793697"
       y="0"
       transform="translate(-9.3243478,41.532372)"><tspan
         x="115.30798"
         y="138.06982"
         id="tspan35"><tspan
           style="font-weight:bold;-inkscape-font-specification:'Arial Bold'"
           id="tspan33">Error tipo II</tspan><tspan
           style="text-anchor:middle"
           id="tspan34">
</tspan></tspan><tspan
         x="112.55517"
         y="144.25543"
         id="tspan37"><tspan
           style="font-style:italic;-inkscape-font-specification:'Arial Italic';text-anchor:middle"
           id="tspan36">Falso negativo
</tspan></tspan><tspan
         x="110.53428"
         y="150.48622"
         id="tspan41"><tspan
           style="text-anchor:middle"
           id="tspan38">Probabilidad = </tspan><tspan
           style="font-family:GreekC;-inkscape-font-specification:GreekC"
           id="tspan39">b</tspan><tspan
           style="text-anchor:middle"
           id="tspan40"> </tspan></tspan></text>
    <rect
       style="opacity:1;vector-effect:none;fill:#d5f6ff;fill-opacity:1;fill-rule:nonzero;stroke:#666666;stroke-width:1;stroke-linecap:square;stroke-linejoin:miter;stroke-miterlimit:4;stroke-dasharray:none;stroke-dashoffset:0;stroke-opacity:1;paint-order:fill markers stroke"
       id="rect5147"
       width="69.997238"
       height="39.015854"
       x="154.48276"
       y="165.07895" />
    <text
       xml:space="preserve"
       id="text4765-4-6-8"
       style="font-style:normal;font-variant:normal;font-weight:normal;font-stretch:normal;font-size:4.93889px;line-height:1.25;font-family:Arial;-inkscape-font-specification:Arial;text-align:center;letter-spacing:0px;word-spacing:0px;white-space:pre;shape-inside:url(#rect4767-8-7-4);fill:#000000;fill-opacity:1;stroke:none"
       x="12.793697"
       y="0"
       transform="translate(60.90097,41.562516)"><tspan
         x="118.25649"
         y="138.06982"
         id="tspan44"><tspan
           style="font-weight:bold;-inkscape-font-specification:'Arial Bold'"
           id="tspan42">Correcto</tspan><tspan
           style="text-anchor:middle"
           id="tspan43">
</tspan></tspan><tspan
         x="104.52141"
         y="144.25543"
         id="tspan46"><tspan
           style="font-style:italic;-inkscape-font-specification:'Arial Italic'"
           id="tspan45">Potencia de la prueba
</tspan></tspan><tspan
         x="108.27019"
         y="150.48622"
         id="tspan50"><tspan
           style="text-anchor:middle"
           id="tspan47">Probabilidad = 1-</tspan><tspan
           style="font-family:GreekC;-inkscape-font-specification:GreekC"
           id="tspan48">b</tspan><tspan
           style="text-anchor:middle"
           id="tspan49"> </tspan></tspan></text>
  </g>
</svg>
