<?xml version="1.0" encoding="UTF-8" standalone="no"?>
<svg
   width="1400"
   height="800"
   viewBox="0 0 1400 800"
   version="1.1"
   id="svg14"
   sodipodi:docname="ilustracion_fenomenologia_percepcion_accion.svg"
   inkscape:version="1.4 (86a8ad7, 2024-10-11)"
   inkscape:export-filename="ilustracion_fenomenologia_percepcion_accion.png"
   inkscape:export-xdpi="96"
   inkscape:export-ydpi="96"
   xmlns:inkscape="http://www.inkscape.org/namespaces/inkscape"
   xmlns:sodipodi="http://sodipodi.sourceforge.net/DTD/sodipodi-0.dtd"
   xmlns:xlink="http://www.w3.org/1999/xlink"
   xmlns="http://www.w3.org/2000/svg"
   xmlns:svg="http://www.w3.org/2000/svg">
  <sodipodi:namedview
     id="namedview14"
     pagecolor="#ffffff"
     bordercolor="#000000"
     borderopacity="0.25"
     inkscape:showpageshadow="2"
     inkscape:pageopacity="0.0"
     inkscape:pagecheckerboard="0"
     inkscape:deskcolor="#d1d1d1"
     inkscape:zoom="0.58891893"
     inkscape:cx="523.8412"
     inkscape:cy="347.24644"
     inkscape:window-width="1680"
     inkscape:window-height="1027"
     inkscape:window-x="-8"
     inkscape:window-y="-8"
     inkscape:window-maximized="1"
     inkscape:current-layer="svg14"
     showguides="true" />
  <defs
     id="defs1">
    <marker
       style="overflow:visible"
       id="ArrowTriangleStylized"
       refX="0"
       refY="0"
       orient="auto-start-reverse"
       inkscape:stockid="Stylized triangle arrow"
       markerWidth="0.4"
       markerHeight="0.4"
       viewBox="0 0 1 1"
       inkscape:isstock="true"
       inkscape:collect="always"
       preserveAspectRatio="xMidYMid">
      <path
         transform="scale(0.5)"
         style="fill:context-stroke;fill-rule:evenodd;stroke:context-stroke;stroke-width:1pt"
         d="m 6,0 c -3,1 -7,3 -9,5 0,0 0,-4 2,-5 -2,-1 -2,-5 -2,-5 2,2 6,4 9,5 z"
         id="path4" />
    </marker>
    <linearGradient
       id="linearGradient18"
       inkscape:collect="always">
      <stop
         style="stop-color:#ffcc00;stop-opacity:1"
         offset="0.06332801"
         id="stop19" />
      <stop
         style="stop-color:#2b1100;stop-opacity:1"
         offset="1"
         id="stop18" />
    </linearGradient>
    <linearGradient
       id="linearGradient16"
       inkscape:collect="always">
      <stop
         style="stop-color:#ccff00;stop-opacity:1"
         offset="0"
         id="stop16" />
      <stop
         style="stop-color:#1a1a1a;stop-opacity:1"
         offset="1"
         id="stop17" />
    </linearGradient>
    <style
       type="text/css"
       id="style1"><![CDATA[
      .bg { fill:#fafafa; }
      .title { font-family:"Inter","Segoe UI",Arial,sans-serif; font-size:30px; font-weight:800; fill:#111; }
      .subtitle { font-family:"Inter","Segoe UI",Arial,sans-serif; font-size:16px; font-weight:500; fill:#333; }
      .h { font-family:"Inter","Segoe UI",Arial,sans-serif; font-size:20px; font-weight:800; fill:#111; }
      .t { font-family:"Inter","Segoe UI",Arial,sans-serif; font-size:16px; font-weight:600; fill:#111; }
      .s { font-family:"Inter","Segoe UI",Arial,sans-serif; font-size:14px; font-weight:500; fill:#222; }
      .small { font-family:"Inter","Segoe UI",Arial,sans-serif; font-size:13px; font-weight:500; fill:#444; }
      .muted { fill:#555; }
      .box { fill:#fff; stroke:#111; stroke-width:2.2; rx:18; ry:18; }
      .pill { fill:#fff; stroke:#111; stroke-width:2.2; rx:999; ry:999; }
      .panel { fill:#f4f4f5; stroke:#111; stroke-width:2.2; rx:22; ry:22; }
      .dash { fill:none; stroke:#111; stroke-width:2.2; stroke-dasharray:7 7; }
      .arrow { fill:none; stroke:#111; stroke-width:2.2; marker-end:url(#arrow); }
    ]]></style>
    <marker
       id="arrow"
       viewBox="0 0 10 10"
       refX="9.2"
       refY="5"
       markerWidth="8"
       markerHeight="8"
       orient="auto-start-reverse">
      <path
         d="M 0 0 L 10 5 L 0 10 z"
         fill="#111"
         id="path1" />
    </marker>
    <filter
       id="shadow"
       x="-0.00087301589"
       y="-0.0018333334"
       width="1.001746"
       height="1.0036667">
      <feDropShadow
         dx="0"
         dy="2"
         stdDeviation="3"
         flood-color="#000"
         flood-opacity="0.12" />
    </filter>
    <linearGradient
       inkscape:collect="always"
       xlink:href="#linearGradient16"
       id="linearGradient17"
       x1="641.73236"
       y1="712.3446"
       x2="670"
       y2="214"
       gradientUnits="userSpaceOnUse" />
    <linearGradient
       inkscape:collect="always"
       xlink:href="#linearGradient18"
       id="linearGradient19"
       x1="727.58362"
       y1="214.68739"
       x2="718"
       y2="714"
       gradientUnits="userSpaceOnUse"
       gradientTransform="matrix(1,0,0,-1,-5.9999437,926.43708)" />
  </defs>
  <rect
     class="bg"
     x="0"
     y="0"
     width="1400"
     height="800"
     id="rect1"
     style="fill:#f4e3d7"
     ry="138.90364" />
  <text
     class="title"
     id="text1"
     style="font-style:normal;font-variant:normal;font-weight:normal;font-stretch:semi-expanded;font-size:85.3333px;font-family:Chiller;-inkscape-font-specification:'Chiller Semi-Expanded';fill:#a05a2c;stroke:#2b1100;stroke-width:2;stroke-dasharray:none"
     transform="translate(60.606339,-16)"><textPath
       xlink:href="#path2"
       id="textPath2"><tspan
         style="font-style:normal;font-variant:normal;font-weight:normal;font-stretch:semi-expanded;font-size:85.3333px;font-family:Chiller;-inkscape-font-specification:'Chiller Semi-Expanded';fill:#a05a2c;stroke:#2b1100;stroke-width:2;stroke-dasharray:none"
         id="tspan14">Fenomenología: percepción–acción encarnada</tspan></textPath></text>
  <text
     class="subtitle"
     id="text2"
     style="font-size:29.3333px;text-align:start;text-anchor:start;fill:#552200"
     transform="translate(60.606339,-44)"><textPath
       xlink:href="#path3"
       id="textPath3">La decisión emerge del acoplamiento cuerpo–mundo (no del cálculo previo)</textPath></text>
  <g
     filter="url(#shadow)"
     id="g2"
     transform="translate(0,74)" />
  <g
     id="g4"
     transform="translate(5.819271)">
    <path
       class="arrow"
       d="m 283.21708,429.75723 c 15.56906,-151.97567 178.51246,-42.88408 244.10463,-49.0592"
       id="path10"
       sodipodi:nodetypes="cc"
       style="stroke-width:11.3386;stroke-dasharray:none;marker-end:url(#ArrowTriangleStylized)" />
    <rect
       class="box"
       x="116.0908"
       y="424.09079"
       width="352.15247"
       height="109.8184"
       id="rect3"
       style="fill:#935329;fill-opacity:1" />
    <text
       class="h"
       x="132"
       y="469"
       id="text3"
       style="font-size:29.3333px;fill:#ffd42a">Cuerpo</text>
    <text
       class="s muted"
       x="132"
       y="499"
       id="text4"
       style="font-size:21.3333px;fill:#ffd42a">habilidades, afecto, atención</text>
    <rect
       class="box"
       x="930.07404"
       y="424.07404"
       width="342.19662"
       height="109.85195"
       id="rect4"
       style="fill:#0044aa" />
    <text
       class="h"
       x="990"
       y="469"
       id="text5"
       style="font-size:29.3333px;fill:#afe9dd">Mundo</text>
    <text
       class="s muted"
       x="990"
       y="499"
       id="text6"
       style="font-size:21.3333px;fill:#afe9dd">situación, tareas, normas</text>
    <rect
       class="box"
       x="550"
       y="324"
       width="300"
       height="110"
       id="rect6"
       style="fill:#eed7f4" />
    <text
       class="h"
       x="566"
       y="369"
       id="text7"
       style="font-size:29.3333px">Percepción</text>
    <text
       class="s muted"
       x="566"
       y="399"
       id="text8"
       style="font-size:21.3333px">saliencia, significado práctico</text>
    <rect
       class="box"
       x="550"
       y="544"
       width="300"
       height="110"
       id="rect8"
       style="fill:#ffff91;fill-opacity:1" />
    <text
       class="h"
       x="580"
       y="589"
       id="text9"
       style="font-size:29.3333px">Acción</text>
    <text
       class="s muted"
       x="580"
       y="619"
       id="text10"
       style="font-size:21.3333px">respuesta situada</text>
    <path
       class="arrow"
       d="m 850,379 c 129.43093,28.49013 258.748,-78.48095 243.9559,21.70262"
       id="path11"
       sodipodi:nodetypes="cc"
       style="stroke-width:11.3386;stroke-dasharray:none;marker-end:url(#ArrowTriangleStylized)" />
    <path
       class="arrow"
       d="m 700,434 c 0,35 0,35 0,110"
       id="path12" />
    <path
       class="arrow"
       d="M 550,599 C 474.56507,555.39754 272.34144,664.76718 284.22763,556.16993"
       id="path13"
       sodipodi:nodetypes="cc"
       style="stroke-width:11.3386;stroke-dasharray:none;marker-end:url(#ArrowTriangleStylized)" />
    <path
       class="arrow"
       d="m 1080,534 c -11.6828,142.55778 -174.04791,49.71776 -206.22763,58.20789"
       id="path14"
       sodipodi:nodetypes="cc"
       style="stroke-width:11.3386;stroke-dasharray:none;marker-end:url(#ArrowTriangleStylized)" />
    <g
       id="path15"
       transform="translate(0,20)">
      <g
         id="g24">
        <path
           style="fill:context-stroke;fill-rule:evenodd;stroke:context-stroke;stroke-width:0.2pt"
           d="m 710.80002,712.43712 c 0.6,-0.2 1.4,-0.6 1.8,-1 0,0 0,0.8 -0.4,1 0.4,0.2 0.4,1 0.4,1 -0.4,-0.4 -1.2,-0.8 -1.8,-1 z"
           id="path24" />
      </g>
    </g>
    <g
       id="circle14"
       transform="translate(0,20)">
      <g
         id="g3"
         transform="rotate(15,691.00017,463.39114)">
        <path
           style="fill:url(#linearGradient19);stroke-dasharray:60.1301, 60.1301"
           d="m 715.95312,203.01953 -0.27539,18.89453 c 19.28826,0.28238 38.54748,2.87145 57.19532,7.74024 l 4.77343,-18.28516 c -20.14058,-5.25853 -40.90037,-8.0452 -61.69336,-8.34961 z m 119.59961,31.22266 -9.00976,16.61133 c 16.94828,9.19223 32.79105,20.44417 47.07031,33.4082 l 12.70313,-13.99219 c -15.40019,-13.9817 -32.47352,-26.10732 -50.76368,-36.02734 z m 91.53321,83.05664 -15.6543,10.58789 c 10.80192,15.97361 19.67932,33.25549 26.3418,51.3418 l 17.73242,-6.53125 c -7.19447,-19.5305 -16.76646,-38.16559 -28.41992,-55.39844 z m 42.74023,115.97461 -18.77734,2.1289 c 0.20482,1.80716 0.38461,3.63081 0.54883,5.47071 1.54,17.38983 1.2161,34.94959 -0.98633,52.25976 l 18.74804,2.38477 c 2.37531,-18.66889 2.72224,-37.58168 1.0625,-56.31836 v -0.002 -0.004 c -0.17503,-1.96111 -0.37074,-3.9352 -0.5957,-5.91992 z m -33.34765,115.80468 c -6.94201,17.98267 -16.08178,35.1303 -27.12696,50.93555 l 15.49024,10.82422 c 11.91709,-17.05294 21.77065,-35.53805 29.26562,-54.95312 z M 870.875,643.05859 c -14.4733,12.74607 -30.48586,23.75751 -47.57227,32.6875 l 8.75391,16.74805 c 18.4414,-9.63816 35.69848,-21.50474 51.30859,-35.25195 z m -101.56055,53.06055 c -18.72201,4.58045 -38.01856,6.87332 -57.3125,6.86914 l 3.0883,-10.49414 -31.99488,21.26488 31.99488,17.00479 -3.0923,-8.87709 c 20.79233,0.005 41.58728,-2.46337 61.80664,-7.41016 z"
           id="path25"
           sodipodi:nodetypes="ccccccccccccccccccccsccsccccccccccccccccccc" />
        <path
           style="fill:url(#linearGradient17);stroke-dasharray:60.1288, 60.1288"
           d="m 666.0293,204.58203 c -20.79254,0.30574 -41.55162,3.09386 -61.69141,8.35352 l 4.77539,18.28515 c 18.64716,-4.86985 37.90555,-7.45857 57.19336,-7.74218 l -5.96029,9.41376 35.08121,-20.21418 -35.08121,-16.65962 z M 546.43359,235.8125 c -18.28913,9.9209 -35.36062,22.04715 -50.75976,36.0293 l 12.70312,13.99218 c 14.27835,-12.96447 30.12096,-24.21707 47.06836,-33.41015 z m -91.52539,83.06055 c -11.65232,17.23302 -21.22446,35.86611 -28.41797,55.39648 l 17.73243,6.53125 c 6.66158,-18.0862 15.53892,-35.3699 26.33984,-51.34375 z M 412.17383,434.8457 c -0.22458,1.98181 -0.42095,3.95232 -0.59571,5.91016 v 0.004 0.002 c -1.65994,18.73933 -1.31183,37.65467 1.06446,56.32617 l 18.74609,-2.38477 c -2.20333,-17.31254 -2.52654,-34.87522 -0.98633,-52.26757 v -0.006 c 0.16385,-1.83516 0.34461,-3.65293 0.54883,-5.45508 z m 33.35156,115.80078 -17.63086,6.80664 c 7.49534,19.41442 17.35039,37.90081 29.26758,54.95313 l 15.48828,-10.82617 c -11.04527,-15.8047 -20.18263,-32.95148 -27.125,-50.9336 z m 65.60156,93.97852 -12.48828,14.18164 c 15.60998,13.74666 32.86556,25.6142 51.30664,35.25195 l 8.75391,-16.74804 C 541.61307,668.38092 525.60016,657.37058 511.12695,644.625 Z m 101.56055,53.05859 -4.49219,18.35547 c 20.21893,4.94656 41.01477,7.41466 61.80664,7.41016 l -0.004,-18.89844 c -19.29354,0.004 -38.5889,-2.28693 -57.31055,-6.86719 z"
           id="path23"
           sodipodi:nodetypes="ccccccccccccccccccccccccccccccccccccccccccsc" />
      </g>
      <g
         id="g22">
        <path
           style="fill:context-stroke;fill-rule:evenodd;stroke:context-stroke;stroke-width:0.2pt"
           d="m 671.2,214 c -0.6,0.2 -1.4,0.6 -1.8,1 0,0 0,-0.8 0.4,-1 -0.4,-0.2 -0.4,-1 -0.4,-1 0.4,0.4 1.2,0.8 1.8,1 z"
           id="path22" />
      </g>
    </g>
  </g>
  <g
     inkscape:groupmode="layer"
     id="layer1"
     inkscape:label="base" />
  <g
     inkscape:groupmode="layer"
     id="layer2"
     inkscape:label="notas"
     style="display:none">
    <text
       class="s muted"
       x="124"
       y="734"
       id="text14"
       style="font-size:26.6667px">Bucle encarnado: percibir ↔ actuar reconfigura el mundo y lo que se vuelve perceptivamente relevante.</text>
    <path
       style="opacity:0.5;fill:none;stroke:#552200;stroke-width:18.898;stroke-linecap:square;stroke-dasharray:60.1301, 60.1301"
       d="M 93.307759,183.77237 C 660.34635,87.448369 660.34635,87.389878 1211.7975,188.70724"
       id="path2"
       sodipodi:nodetypes="cc" />
    <path
       style="opacity:0.5;fill:none;stroke:#552200;stroke-width:18.898;stroke-linecap:square;stroke-dasharray:60.1301, 60.1301"
       d="M 170.14798,253.16721 C 660.34635,185.0849 660.34635,185.0849 1149.4955,252.94186"
       id="path3"
       sodipodi:nodetypes="cc" />
  </g>
</svg>
