<?xml version="1.0" encoding="UTF-8" standalone="no"?>
<svg
   width="465"
   height="373"
   xml:space="preserve"
   overflow="hidden"
   version="1.1"
   id="svg32"
   sodipodi:docname="tipos-relacion-dag.svg"
   inkscape:version="1.4 (86a8ad7, 2024-10-11)"
   xmlns:inkscape="http://www.inkscape.org/namespaces/inkscape"
   xmlns:sodipodi="http://sodipodi.sourceforge.net/DTD/sodipodi-0.dtd"
   xmlns="http://www.w3.org/2000/svg"
   xmlns:svg="http://www.w3.org/2000/svg"><sodipodi:namedview
     id="namedview32"
     pagecolor="#ffffff"
     bordercolor="#000000"
     borderopacity="0.25"
     inkscape:showpageshadow="2"
     inkscape:pageopacity="0.0"
     inkscape:pagecheckerboard="0"
     inkscape:deskcolor="#d1d1d1"
     inkscape:zoom="9.1689008"
     inkscape:cx="168.23173"
     inkscape:cy="49.89693"
     inkscape:window-width="1920"
     inkscape:window-height="1057"
     inkscape:window-x="-8"
     inkscape:window-y="-8"
     inkscape:window-maximized="1"
     inkscape:current-layer="svg32" /><defs
     id="defs1"><clipPath
       id="clip0"><rect
         x="753"
         y="175"
         width="465"
         height="373"
         id="rect1" /></clipPath></defs><g
     clip-path="url(#clip0)"
     transform="translate(-753 -175)"
     id="g32"><path
       d="M 392.658,80.1443 C 378.934,56.576 341.14694,35.837578 285.43094,45.822078"
       stroke="#000000"
       stroke-width="4.39864"
       fill="none"
       transform="matrix(1.00138,0,0,1,632.874,147.483)"
       id="path1"
       sodipodi:nodetypes="cc" /><path
       d="M0 0 4.39883-4.39883-10.9971 0 4.39883 4.39883Z"
       fill-rule="evenodd"
       transform="matrix(0.985636 -0.176387 0.176631 0.984277 921.285 192.919)"
       id="path2" /><path
       d="m 154.913,174.982 c 36.175,77.014 72.92718,166.31642 161.59018,192.86042"
       stroke="#000000"
       stroke-width="4.39864"
       fill="none"
       transform="matrix(1.00138,0,0,1,632.874,147.483)"
       id="path3"
       sodipodi:nodetypes="cc" /><path
       d="M0 0 4.39914-4.39914-10.9979 0 4.39914 4.39914Z"
       fill-rule="evenodd"
       transform="matrix(-0.959205 -0.286766 0.287162 -0.957882 948.787 514.793)"
       id="path4" /><path
       d="M 367.091,366.515 C 422.507,341.568 477.00353,316.74437 477.72253,263.43537"
       stroke="#000000"
       stroke-width="4.39864"
       fill="none"
       transform="matrix(1.00138,0,0,1,632.874,147.483)"
       id="path5"
       sodipodi:nodetypes="cc" /><path
       d="M0 0 4.39864-4.39864-10.9966 0 4.39864 4.39864Z"
       fill-rule="evenodd"
       transform="matrix(-0.0135081 0.999909 -1.00129 -0.0134894 1110.99 413.073)"
       id="path6" /><path
       d="m 154.913,174.982 c 99.427,0.089 199.52098,-15.27258 287.01898,22.58942"
       stroke="#000000"
       stroke-width="4.39864"
       fill="none"
       transform="matrix(1.00138,0,0,1,632.874,147.483)"
       id="path7"
       sodipodi:nodetypes="cc" /><path
       d="M0 0 4.3996-4.3996-10.999 0 4.3996 4.3996Z"
       fill-rule="evenodd"
       transform="matrix(-0.918831 -0.397041 0.397589 -0.917564 1073.07 343.94)"
       id="path8" /><path
       d="m 550.314,94.8512 -37.61703,85.22432"
       stroke="#000000"
       stroke-width="4.39864"
       fill="none"
       transform="matrix(1.00138,0,0,1,632.874,147.483)"
       id="path9"
       sodipodi:nodetypes="cc" /><path
       d="M0 0 4.39964-4.39964-10.9991 0 4.39964 4.39964Z"
       fill-rule="evenodd"
       transform="matrix(0.406008 -0.913869 0.915131 0.405448 1147.11 325.242)"
       id="path10" /><path
       d="m 392.658,80.1443 c 30.32,17.8427 48.41612,41.25022 74.99112,91.46522"
       stroke="#000000"
       stroke-width="4.39864"
       fill="none"
       transform="matrix(1.00138,0,0,1,632.874,147.483)"
       id="path11"
       sodipodi:nodetypes="cc" /><path
       d="M0 0 4.39997-4.39997-10.9999 0 4.39997 4.39997Z"
       fill-rule="evenodd"
       transform="matrix(-0.46825 -0.883596 0.884816 -0.467605 1100.11 316.936)"
       id="path12" /><path
       d="m 483.299,215.291 -83.00313,37.28524"
       stroke="#000000"
       stroke-width="4.39864"
       fill="none"
       transform="matrix(1.00138,0,0,1,632.874,147.483)"
       id="path13"
       sodipodi:nodetypes="cc" /><path
       d="M0 0 4.39965-4.39965-10.9991 0 4.39965 4.39965Z"
       fill-rule="evenodd"
       transform="matrix(0.913671 -0.408712 0.409276 0.912411 1036.5 398.711)"
       id="path14" /><path
       d="m 154.913,174.982 154.96011,84.01896"
       stroke="#000000"
       stroke-width="4.39864"
       fill="none"
       transform="matrix(1.00138,0,0,1,632.874,147.483)"
       id="path15"
       sodipodi:nodetypes="cc" /><path
       d="M0 0 4.40002-4.40002-11.0001 0 4.40002 4.40002Z"
       fill-rule="evenodd"
       transform="matrix(-0.879753 -0.477012 0.477671 -0.87854 940.728 405.276)"
       id="path16" /><path
       d="M 154.9,362.76 154.25646,226.48219"
       stroke="#000000"
       stroke-width="4.39864"
       fill="none"
       transform="matrix(1.00138,0,0,1,632.874,147.483)"
       id="path17"
       sodipodi:nodetypes="cc" /><path
       d="M0 0 4.39864-4.39864-10.9966 0 4.39864 4.39864Z"
       fill-rule="evenodd"
       transform="matrix(0.00498875 0.999988 -1.00137 0.00498187 787.316 375.535)"
       id="path18" /><path
       d="m 240.111,61.7591 c -33.852,11.4473 -73.88643,16.409677 -81.21543,62.20278"
       stroke="#000000"
       stroke-width="4.39864"
       fill="none"
       transform="matrix(1.00138,0,0,1,632.874,147.483)"
       id="path19"
       sodipodi:nodetypes="cc" /><path
       d="M0 0 4.39879-4.39879-10.997 0 4.39879 4.39879Z"
       fill-rule="evenodd"
       transform="matrix(0.15824 -0.987401 0.988764 0.158022 792.279 269.832)"
       id="path20" /><path
       d="M517.542 215.291C517.533 234.203 502.197 249.528 483.288 249.522 464.384 249.515 449.064 234.192 449.057 215.291 449.064 196.38 464.4 181.054 483.312 181.061 502.213 181.068 517.533 196.389 517.542 215.291Z"
       fill="#D38D5F"
       transform="matrix(1.00138 0 0 1 632.874 147.483)"
       id="path21" /><path
       d="M426.899 80.1443C426.893 99.0556 411.557 114.381 392.645 114.374 373.744 114.367 358.423 99.046 358.417 80.1443 358.423 61.2328 373.759 45.9075 392.671 45.9143 411.572 45.9212 426.893 61.2425 426.899 80.1443Z"
       fill="#55DDFF"
       transform="matrix(1.00138 0 0 1 632.874 147.483)"
       id="path22" /><path
       d="M189.155 174.982C189.148 193.894 173.812 209.219 154.901 209.212 135.999 209.205 120.677 193.884 120.671 174.982 120.677 156.071 136.014 140.746 154.925 140.752 173.827 140.759 189.148 156.081 189.155 174.982Z"
       fill="#AAD400"
       transform="matrix(1.00138 0 0 1 632.874 147.483)"
       id="path23" /><path
       d="M188.444 362.76C188.438 381.672 173.102 396.997 154.19 396.991 135.288 396.984 119.967 381.664 119.96 362.76 119.967 343.848 135.303 328.524 154.215 328.53 173.116 328.537 188.438 343.859 188.444 362.76Z"
       fill="#D4AA00"
       transform="matrix(1.00138 0 0 1 632.874 147.483)"
       id="path24" /><path
       d="M274.352 61.7591C274.352 80.6704 259.021 96.0012 240.111 96.0012 221.199 96.0012 205.868 80.6704 205.868 61.7591 205.868 42.8476 221.199 27.517 240.111 27.517 259.021 27.517 274.352 42.8476 274.352 61.7591Z"
       fill="#DDAFE9"
       transform="matrix(1.00138 0 0 1 632.874 147.483)"
       id="path25" /><text
       font-family="Calibri,Calibri_MSFontService,sans-serif"
       font-weight="700"
       font-size="43"
       transform="matrix(0.582706 0 0 0.581903 1109.3 371)"
       id="text25">Y</text><text
       font-family="Calibri,Calibri_MSFontService,sans-serif"
       font-weight="700"
       font-size="43"
       transform="matrix(0.582706 0 0 0.581903 865.778 217)"
       id="text26">B</text><text
       font-family="Calibri,Calibri_MSFontService,sans-serif"
       font-weight="700"
       font-size="43"
       transform="matrix(0.582706 0 0 0.581903 779.751 518)"
       id="text27">D</text><text
       font-family="Calibri,Calibri_MSFontService,sans-serif"
       font-weight="700"
       font-size="43"
       transform="matrix(0.582706 0 0 0.581903 780.463 330)"
       id="text28">X</text><text
       font-family="Calibri,Calibri_MSFontService,sans-serif"
       font-weight="700"
       font-size="43"
       transform="matrix(0.582706 0 0 0.581903 1018.54 235)"
       id="text29">A</text><path
       d="M389.79 270.316C389.783 289.228 374.448 304.553 355.536 304.547 336.635 304.54 321.312 289.217 321.305 270.316 321.312 251.404 336.648 236.079 355.56 236.086 374.463 236.093 389.783 251.415 389.79 270.316Z"
       fill="#9955FF"
       transform="matrix(1.00138 0 0 1 632.874 147.483)"
       id="path29" /><text
       font-family="Calibri,Calibri_MSFontService,sans-serif"
       font-weight="700"
       font-size="43"
       transform="matrix(0.582706 0 0 0.581903 981.374 426)"
       id="text30">E</text><path
       d="M584.494 94.8512C584.487 113.763 569.151 129.088 550.239 129.081 531.338 129.074 516.018 113.753 516.011 94.8512 516.018 75.9399 531.354 60.6146 550.266 60.6214 569.167 60.6282 584.487 75.9494 584.494 94.8512Z"
       fill="#DE8787"
       transform="matrix(1.00138 0 0 1 632.874 147.483)"
       id="path30" /><text
       font-family="Calibri,Calibri_MSFontService,sans-serif"
       font-weight="700"
       font-size="43"
       transform="matrix(0.582706 0 0 0.581903 1176.35 250)"
       id="text31">G</text><path
       d="M401.334 366.515C401.328 385.427 385.992 400.751 367.08 400.745 348.177 400.738 332.856 385.416 332.85 366.515 332.856 347.603 348.192 332.278 367.104 332.284 386.005 332.291 401.328 347.614 401.334 366.515Z"
       fill="#FFFF00"
       transform="matrix(1.00138 0 0 1 632.874 147.483)"
       id="path31" /><text
       font-family="Calibri,Calibri_MSFontService,sans-serif"
       font-weight="700"
       font-size="43"
       transform="matrix(0.582706 0 0 0.581903 992.934 522)"
       id="text32">F</text></g></svg>
