<?xml version="1.0" encoding="UTF-8" standalone="no"?>
<svg
   width="210"
   height="371"
   version="1.1"
   id="svg1"
   sodipodi:docname="pointing-backpack-girl.svg"
   inkscape:export-filename="pointing-backpack-girl.png"
   inkscape:export-xdpi="15.525606"
   inkscape:export-ydpi="15.525606"
   inkscape:version="1.4.2 (f4327f4, 2025-05-13)"
   xmlns:inkscape="http://www.inkscape.org/namespaces/inkscape"
   xmlns:sodipodi="http://sodipodi.sourceforge.net/DTD/sodipodi-0.dtd"
   xmlns="http://www.w3.org/2000/svg"
   xmlns:svg="http://www.w3.org/2000/svg">
  <defs
     id="defs1" />
  <sodipodi:namedview
     id="namedview1"
     pagecolor="#ffffff"
     bordercolor="#000000"
     borderopacity="0.25"
     inkscape:showpageshadow="2"
     inkscape:pageopacity="0.0"
     inkscape:pagecheckerboard="0"
     inkscape:deskcolor="#d1d1d1"
     inkscape:zoom="2.2337713"
     inkscape:cx="133.40667"
     inkscape:cy="204.13907"
     inkscape:window-width="1440"
     inkscape:window-height="830"
     inkscape:window-x="-6"
     inkscape:window-y="-6"
     inkscape:window-maximized="1"
     inkscape:current-layer="imagebot_1" />
  <metadata
     id="imagebot_34">image/svg+xml</metadata>
  <g
     label="Layer 1"
     id="imagebot_1"
     transform="translate(-0.45321063,27.050698)"
     inkscape:export-filename="imagebot_1.png"
     inkscape:export-xdpi="6.2156243"
     inkscape:export-ydpi="6.2156243">
    <rect
       label="Layer 1"
       transform="matrix(0.819086,-0.0104337,0.0102396,0.834612,-1179.88,-445.7)"
       ry="6.5960002"
       rx="40.689999"
       y="840.09998"
       x="1535"
       height="106.2"
       width="82.970001"
       id="imagebot_33"
       stroke-miterlimit="4"
       stroke-width="2.3996"
       stroke="#000000"
       fill="#5a5c8c" />
    <path
       label="Layer 1"
       id="imagebot_32"
       d="m 1649,939.20001 c -1,-11.5 -11,-20.40002 -22,-21.79999 -12,-3.10003 -24,-1 -36,-0.70001 -9,2.29999 -19,4.79999 -24,13.39997 -5,4.5 0,11 6,8.90002 22,2.5 44,2 65,1.5 4,-0.59998 8,1.09998 11,-1.29999 z"
       stroke-miterlimit="4"
       stroke-width="2.4"
       stroke="#000000"
       fill="#666666"
       transform="matrix(0.819168,0,0,0.834696,-1179.88,-445.7)" />
    <rect
       label="Layer 1"
       id="imagebot_31"
       width="82.989998"
       height="106.2"
       x="1480"
       y="845.5"
       rx="40.689999"
       ry="6.5970001"
       transform="matrix(0.819086,-0.0104337,0.0102396,0.834612,-1179.88,-445.7)"
       stroke-miterlimit="4"
       stroke-width="2.3996"
       stroke="#000000"
       fill="#5a5c8c" />
    <path
       label="Layer 1"
       id="imagebot_30"
       d="m 1581,941.79999 c -1,-11.29999 -11,-20.20001 -22,-21.59998 -11,-3.60003 -23,-1 -35,-1.20001 -9,2.20001 -20,5.20001 -26,13.59998 -4,5.30004 1,10.80004 7,9 22,2.5 44,2.20001 66,1.40002 4,-0.59998 7,1.20001 10,-1.20001 z"
       stroke-miterlimit="4"
       stroke-width="2.4"
       stroke="#000000"
       fill="#666666"
       transform="matrix(0.819168,0,0,0.834696,-1179.88,-445.7)" />
    <path
       transform="matrix(0.814499,-0.0888116,0.0871595,0.829938,-1327,-436.819)"
       label="Layer 1"
       d="m 1548,953.20001 c 11,0.70001 23,1.29999 33,2 -1,23.89997 -3,46.79999 -4,69.79999 -9,17 -34,15 -38,2 0,-27.70001 7,-49 9,-73.79999 z"
       id="imagebot_29"
       stroke-miterlimit="4"
       stroke-linejoin="round"
       stroke-linecap="round"
       stroke-width="2.4001"
       stroke="#000000"
       fill-rule="evenodd"
       fill="#d9cdcb" />
    <path
       transform="matrix(0.814499,-0.0888116,0.0871595,0.829938,-1327,-436.819)"
       label="Layer 1"
       d="m 1579,960.79999 c 4,-2.5 7,-16.70001 4,-22.29999 -14,-1.79999 -26,-11.5 -40,-3.40002 0,0 -11,54.30004 -7,56.90002 15,2.90002 22,-33.40002 22,-33.40002 z"
       id="imagebot_28"
       stroke-miterlimit="4"
       stroke-linejoin="round"
       stroke-linecap="round"
       stroke-width="2.4001"
       stroke="#000000"
       fill-rule="evenodd"
       fill="#d9cdcb" />
    <path
       label="Layer 1"
       id="imagebot_26"
       d="m -1064,429.39999 c 0,65.70002 -61,119.00003 -136,119.00003 -75,0 -283.4394,-212.81213 -244.807,-271.69313 17.3523,-26.44733 67.0465,21.34928 130.8277,71.45061 38.9183,30.57099 105.1194,-19.27408 141.3505,-19.27408 75,0 108.6288,34.81659 108.6288,100.51657 z"
       transform="matrix(0.00746326,0.0965708,-0.107933,-0.0219054,249.266,288.677)"
       stroke-dashoffset="0"
       stroke-miterlimit="4"
       stroke-linejoin="round"
       stroke-linecap="round"
       stroke-width="19.5924"
       stroke="#000000"
       fill-rule="evenodd"
       fill="#d9c59d"
       sodipodi:nodetypes="ssssss" />
    <path
       transform="matrix(-0.0896079,-0.829674,0.814239,-0.0913065,-346.414,1608.44)"
       label="Layer 1"
       d="m 1590,736.20001 c -29,14 6,83.5 20,111 7,13.79999 65,-15.79999 59,-29.60003 -14,-27.5 -49,-96.69996 -79,-81.39997 z"
       id="imagebot_25"
       stroke-miterlimit="4"
       stroke-width="2.4"
       stroke="#000000"
       fill="#ffffff" />
    <path
       transform="matrix(0.819168,0,0,0.834696,3,34)"
       label="Layer 1"
       id="imagebot_23"
       d="m 105,120.5 c -1,0 -1,0 -1,0 v 0 h -2 v 0 c -17,1.2 -35,13.5 -48,27.10001 -24,29.79998 -35,70.29998 -36,108.29998 1,9.5 -2,21.5 4,29.70002 25,10.69998 54,13.5 80,13.5 v 0 c 2,0 2,0 3,0 v 0 c 24,-1.60001 65,-2.70002 82,-13.5 5,-8.20002 3,-20.20002 3,-29.70002 0,-38 -11,-78.5 -35,-108.29998 C 140,134 125,121.7 105,120.5 Z"
       stroke-dashoffset="0"
       stroke-miterlimit="4"
       stroke-linejoin="round"
       stroke-linecap="round"
       stroke-width="2.4003"
       stroke="#000000"
       fill-rule="evenodd"
       fill="#ffffff" />
    <path
       transform="matrix(0.819168,0,0,0.834696,-1261.39,-432.487)"
       stroke-miterlimit="4"
       stroke-width="2.4"
       label="Layer 1"
       d="m 1642,690.29999 -1,0.10003 h -1 c -1,0.1 -1,0.39997 -2,0.5 l 1,-0.10003 h 1 c 13,1 22,13.20001 31,26.79999 16,29.70001 23,70 23,107.90002 0,9.59998 2,21.5 -1,29.79999 -0.6,0.60003 -1.4,1.29999 -2.1999,1.90002 0.6999,-0.20001 1.3999,-0.29999 2,-0.40002 0.7999,-0.70001 1.5,-1.39997 2.1999,-2.09998 3,-8.20001 1,-20.20001 2,-29.70001 -1,-37.90002 -8,-78.29999 -23,-107.90002 -9,-13.59998 -18,-25.79999 -31,-26.79999 z"
       id="imagebot_22"
       fill-rule="evenodd"
       fill="#202020" />
    <path
       label="Layer 1"
       transform="matrix(0.0755273,0,0,0.0641047,151.679,197.876)"
       d="m -238,555.40002 c 0,30.39997 -23.70001,55 -53,55 -29.29999,0 -53,-24.60003 -53,-55 0,-30.40002 23.70001,-55.00003 53,-55.00003 29.29999,0 53,24.60001 53,55.00003 z"
       id="imagebot_21"
       stroke-dashoffset="0"
       stroke-miterlimit="4"
       stroke-linejoin="round"
       stroke-linecap="round"
       stroke-width="28.521"
       stroke="#000000"
       fill="none" />
    <path
       label="Layer 1"
       transform="matrix(0.0755273,0,0,0.0641047,152.498,213.735)"
       d="m -238,555.40002 c 0,30.39997 -23.70001,55 -53,55 -29.29999,0 -53,-24.60003 -53,-55 0,-30.40002 23.70001,-55.00003 53,-55.00003 29.29999,0 53,24.60001 53,55.00003 z"
       id="imagebot_20"
       stroke-dashoffset="0"
       stroke-miterlimit="4"
       stroke-linejoin="round"
       stroke-linecap="round"
       stroke-width="28.521"
       stroke="#000000"
       fill="none" />
    <path
       label="Layer 1"
       transform="matrix(0.0755273,0,0,0.0641047,153.317,230.262)"
       d="m -238,555.40002 c 0,30.39997 -23.70001,55 -53,55 -29.29999,0 -53,-24.60003 -53,-55 0,-30.40002 23.70001,-55.00003 53,-55.00003 29.29999,0 53,24.60001 53,55.00003 z"
       id="imagebot_19"
       stroke-dashoffset="0"
       stroke-miterlimit="4"
       stroke-linejoin="round"
       stroke-linecap="round"
       stroke-width="28.521"
       stroke="#000000"
       fill="none" />
    <path
       label="Layer 1"
       transform="matrix(0.0755273,0,0,0.0641047,141.849,150.716)"
       d="m -238,555.40002 c 0,30.39997 -23.70001,55 -53,55 -29.29999,0 -53,-24.60003 -53,-55 0,-30.40002 23.70001,-55.00003 53,-55.00003 29.29999,0 53,24.60001 53,55.00003 z"
       id="imagebot_18"
       stroke-dashoffset="0"
       stroke-miterlimit="4"
       stroke-linejoin="round"
       stroke-linecap="round"
       stroke-width="28.521"
       stroke="#000000"
       fill="none" />
    <path
       label="Layer 1"
       transform="matrix(0.0755273,0,0,0.0641047,146.764,166.658)"
       d="m -238,555.40002 c 0,30.39997 -23.70001,55 -53,55 -29.29999,0 -53,-24.60003 -53,-55 0,-30.40002 23.70001,-55.00003 53,-55.00003 29.29999,0 53,24.60001 53,55.00003 z"
       id="imagebot_17"
       stroke-dashoffset="0"
       stroke-miterlimit="4"
       stroke-linejoin="round"
       stroke-linecap="round"
       stroke-width="28.521"
       stroke="#000000"
       fill="none" />
    <path
       label="Layer 1"
       transform="matrix(0.0755273,0,0,0.0641047,150.041,183.185)"
       d="m -238,555.40002 c 0,30.39997 -23.70001,55 -53,55 -29.29999,0 -53,-24.60003 -53,-55 0,-30.40002 23.70001,-55.00003 53,-55.00003 29.29999,0 53,24.60001 53,55.00003 z"
       id="imagebot_16"
       stroke-dashoffset="0"
       stroke-miterlimit="4"
       stroke-linejoin="round"
       stroke-linecap="round"
       stroke-width="28.521"
       stroke="#000000"
       fill="none" />
    <path
       label="Layer 1"
       id="imagebot_13"
       d="m 1492,723.79999 c -4,5.60003 -8,11.5 -11,17.60003 -1,2.29999 -2,4.5 -3,6.79999 32,10.20001 75,17.89997 86,17.29999 l 11,-25.29999 c -25,0.39997 -56,-6.20001 -83,-16.40002 z"
       stroke-miterlimit="4"
       stroke-width="2.4"
       stroke="#000000"
       fill="#ffffff"
       transform="matrix(0.819168,0,0,0.834696,-1179.88,-445.7)" />
    <path
       transform="matrix(0.852754,-0.160095,0.157116,0.868918,-1402.04,-252.718)"
       label="Layer 1"
       d="m 1659,787.29999 c -31,12.60003 -82,27.60003 -113,39.90002 -6,2.89997 -9,12.59998 -3,17.5 3,3 6,5.79999 11,5.29999 4,-0.59998 7,-3.29999 11,-4.29999 28,-10.60003 72,-27.90002 100,-38.60003 2,-4.39997 0,-15.29999 -6,-19.79999 z"
       id="imagebot_12"
       stroke-miterlimit="4"
       stroke-linejoin="round"
       stroke-linecap="round"
       stroke-width="2.2663"
       stroke="#000000"
       fill-rule="evenodd"
       fill="#d9cdcb" />
    <path
       label="Layer 1"
       id="imagebot_11"
       d="m -77.75,423.79999 c 0,2.90002 -1.73,5.20001 -3.87,5.20001 -2.14,0 -3.88,-2.29999 -3.88,-5.20001 0,-2.9 1.74,-5.29999 3.88,-5.29999 2.14,0 3.87,2.39999 3.87,5.29999 z"
       transform="matrix(0.80831,-0.552174,0.541902,0.823632,-110.739,-167.133)"
       stroke-miterlimit="4"
       stroke-linejoin="round"
       stroke-linecap="round"
       stroke-width="2.0194"
       stroke="#000000"
       fill-rule="evenodd"
       fill="#d9cdcb" />
    <rect
       label="Layer 1"
       rx="96.419998"
       ry="74.040001"
       y="596.90002"
       x="1454"
       height="148.10001"
       width="192.8"
       id="imagebot_9"
       stroke-dashoffset="0"
       stroke-miterlimit="4"
       stroke-linejoin="round"
       stroke-linecap="round"
       stroke-width="2.4"
       stroke="#000000"
       fill-rule="evenodd"
       fill="#d9c59d"
       transform="matrix(0.819168,0,0,0.834696,-1179.88,-445.7)" />
    <path
       label="Layer 1"
       id="imagebot_6"
       d="m -1064,429.39999 c 0,65.70002 -61,119.00003 -136,119.00003 -75,0 -136,-53.30001 -136,-119.00003 0,-65.69998 61,-119 136,-119 75,0 136,53.30002 136,119 z"
       transform="matrix(-0.0749033,0.0596334,0.0886627,0.0662723,-80.3808,314.334)"
       stroke-dashoffset="0"
       stroke-miterlimit="4"
       stroke-linejoin="round"
       stroke-linecap="round"
       stroke-width="19.6008"
       stroke="#000000"
       fill-rule="evenodd"
       fill="#d9c59d" />
    <path
       transform="matrix(-0.814417,-0.0890621,-0.0874052,0.829855,1395.59,-285.271)"
       label="Layer 1"
       d="m 1582,713.59998 c 32,2.90002 25,80.10003 21,110.70001 -2,15.40002 -67,8.70001 -65,-6.79999 3,-30.70001 11,-107.59998 44,-103.90002 z"
       id="imagebot_5"
       stroke-miterlimit="4"
       stroke-width="2.4002"
       stroke="#000000"
       fill="#ffffff" />
    <path
       label="Layer 1"
       id="imagebot_3"
       d="m 1551,574.70001 c -54,0 -107,41.29999 -107,92.29999 0,23 7,44.40002 21,60.70001 12,2.39997 28,-5 48,-8.90002 -14,-16.20001 -18,-28.89997 -12,-55.79999 20,-14.29999 67,-15.20001 83,-15.79999 30,0 47,5.29999 60,8.29999 4,17 -2,46.29999 -15,59.79999 3,0.40002 6,0.5 6,0.70001 12,-14 16,-30.90002 16,-49 0,-9.90002 0,-19.20001 -3,-27.90002 -12,-45 -51,-64.09998 -97,-64.39997 z"
       fill-rule="evenodd"
       fill="#3f322d"
       transform="matrix(0.819168,0,0,0.834696,-1179.88,-445.7)" />
    <path
       label="Layer 1"
       fill="#be8889"
       stroke="#000000"
       stroke-width="2.4"
       stroke-linejoin="null"
       stroke-linecap="null"
       d="M 156.38699,129.13901 C 153.638,131.877 143.87399,144.88 108.384,131.192 c 5.851,11.293 15.598,18.47901 26.905,17.453 9.371,-0.68499 18.743,-9.582 21.09799,-19.50599 z"
       id="imagebot_2"
       transform="matrix(0.819168,0,0,0.834696,5.04792,36.0867)" />
    <path
       label="Layer 1"
       id="imagebot_8"
       d="m 55,152.5 a 2.5,2.5 0 1 1 -5,0 2.5,2.5 0 1 1 5,0 z"
       transform="matrix(2.169,0,0,2.166,-18.8,-215.5)"
       fill-rule="evenodd"
       fill="#000000" />
    <path
       label="Layer 1"
       id="imagebot_7"
       d="m 55,152.5 a 2.5,2.5 0 1 1 -5,0 2.5,2.5 0 1 1 5,0 z"
       transform="matrix(2.169,0,0,2.166,20.4,-216.5)"
       fill-rule="evenodd"
       fill="#000000" />
    <title
       label="Layer 1"
       id="title1" />
  </g>
</svg>
