<?xml version="1.0" encoding="UTF-8" standalone="no"?>
<svg
   width="645"
   height="471"
   xml:space="preserve"
   overflow="hidden"
   version="1.1"
   id="svg64"
   sodipodi:docname="causal-diagram.svg"
   inkscape:version="1.4 (86a8ad7, 2024-10-11)"
   xmlns:inkscape="http://www.inkscape.org/namespaces/inkscape"
   xmlns:sodipodi="http://sodipodi.sourceforge.net/DTD/sodipodi-0.dtd"
   xmlns="http://www.w3.org/2000/svg"
   xmlns:svg="http://www.w3.org/2000/svg"><sodipodi:namedview
     id="namedview64"
     pagecolor="#ffffff"
     bordercolor="#000000"
     borderopacity="0.25"
     inkscape:showpageshadow="2"
     inkscape:pageopacity="0.0"
     inkscape:pagecheckerboard="0"
     inkscape:deskcolor="#d1d1d1"
     inkscape:zoom="0.90764331"
     inkscape:cx="2.754386"
     inkscape:cy="126.15088"
     inkscape:window-width="1920"
     inkscape:window-height="1057"
     inkscape:window-x="-8"
     inkscape:window-y="-8"
     inkscape:window-maximized="1"
     inkscape:current-layer="g64" /><defs
     id="defs1"><clipPath
       id="clip0"><rect
         x="579"
         y="102"
         width="645"
         height="471"
         id="rect1" /></clipPath></defs><g
     clip-path="url(#clip0)"
     transform="translate(-579 -102)"
     id="g64"><path
       d="m 365.575,323.454 60.02761,27.23319"
       stroke="#000000"
       stroke-width="4.54235"
       fill="none"
       transform="matrix(1,0,0,1.00028,583.897,90.8707)"
       id="path1"
       sodipodi:nodetypes="cc" /><path
       d="M0 0 4.54257-4.54257-11.3564 0 4.54257 4.54257Z"
       fill-rule="evenodd"
       transform="matrix(-0.909926 -0.414771 0.414656 -0.910178 1007.29 440.771)"
       id="path2" /><path
       d="m 440.279,127.951 -52.61877,34.51319"
       stroke="#000000"
       stroke-width="4.54235"
       fill="none"
       transform="matrix(1,0,0,1.00028,583.897,90.8707)"
       id="path3"
       sodipodi:nodetypes="cc" /><path
       d="M0 0 4.54273-4.54273-11.3568 0 4.54273 4.54273Z"
       fill-rule="evenodd"
       transform="matrix(0.837216 -0.546873 0.546721 0.837448 973.78 251.776)"
       id="path4" /><path
       d="m 194.966,127.951 52.44305,34.10015"
       stroke="#000000"
       stroke-width="4.54235"
       fill="none"
       transform="matrix(1,0,0,1.00028,583.897,90.8707)"
       id="path5"
       sodipodi:nodetypes="cc" /><path
       d="M0 0 4.54273-4.54273-11.3568 0 4.54273 4.54273Z"
       fill-rule="evenodd"
       transform="matrix(-0.837042 -0.547139 0.546987 -0.837274 829.223 251.775)"
       id="path6" /><path
       d="M 150.204,155.767 306.11818,292.88539"
       stroke="#000000"
       stroke-width="4.54235"
       fill="none"
       transform="matrix(1,0,0,1.00028,583.897,90.8707)"
       id="path7"
       sodipodi:nodetypes="cc" /><path
       d="M0 0 4.5429-4.5429-11.3573 0 4.5429 4.5429Z"
       fill-rule="evenodd"
       transform="matrix(-0.75062 -0.660735 0.660552 -0.750828 888.953 382.99)"
       id="path8" /><path
       d="m 182.787,158.946 c 75.428,64.44 173.2183,131.92651 288.8803,190.01351"
       stroke="#000000"
       stroke-width="4.54235"
       fill="none"
       transform="matrix(1,0,0,1.00028,583.897,90.8707)"
       id="path9"
       sodipodi:nodetypes="cc" /><path
       d="M0 0 4.54261-4.54261-11.3565 0 4.54261 4.54261Z"
       fill-rule="evenodd"
       transform="matrix(-0.893583 -0.448898 0.448774 -0.89383 1054.27 438.995)"
       id="path10" /><path
       d="M 367.958,185.171 509.32605,339.77339"
       stroke="#000000"
       stroke-width="4.54235"
       fill="none"
       transform="matrix(1,0,0,1.00028,583.897,90.8707)"
       id="path11"
       sodipodi:nodetypes="cc" /><path
       d="M0 0 4.54293-4.54293-11.3573 0 4.54293 4.54293Z"
       fill-rule="evenodd"
       transform="matrix(-0.67463 -0.738189 0.737985 -0.674817 1092.02 429.469)"
       id="path12" /><path
       d="M 540.415,127.951 542.8,338.1533"
       stroke="#000000"
       stroke-width="4.54235"
       fill="none"
       transform="matrix(1,0,0,1.00028,583.897,90.8707)"
       id="path13"
       sodipodi:nodetypes="cc" /><path
       d="M0 0 4.54235-4.54235-11.3559 0 4.54235 4.54235Z"
       fill-rule="evenodd"
       transform="matrix(-0.0111543 -1.00021 0.999938 -0.0111574 1126.64 427.246)"
       id="path14" /><path
       d="M 56.4256,151.793 91.214578,337.46454"
       stroke="#000000"
       stroke-width="4.54235"
       fill="none"
       transform="matrix(1,0,0,1.00028,583.897,90.8707)"
       id="path15"
       sodipodi:nodetypes="cc" /><path
       d="M0 0 4.5424-4.5424-11.356 0 4.5424 4.5424Z"
       fill-rule="evenodd"
       transform="matrix(-0.184287 -0.983135 0.982863 -0.184338 675.081 428.134)"
       id="path16" /><path
       d="m 163.714,377.497 24.16181,45.81127"
       stroke="#000000"
       stroke-width="4.54235"
       fill="none"
       transform="matrix(1,0,0,1.00028,583.897,90.8707)"
       id="path17"
       sodipodi:nodetypes="cc" /><path
       d="M0 0 4.54263-4.54263-11.3566 0 4.54263 4.54263Z"
       fill-rule="evenodd"
       transform="matrix(-0.469059 -0.883343 0.883098 -0.469188 770.594 511.753)"
       id="path18" /><path
       d="M 514.982,127.951 356.20804,417.82615"
       stroke="#000000"
       stroke-width="4.54235"
       fill="none"
       transform="matrix(1,0,0,1.00028,583.897,90.8707)"
       id="path19"
       sodipodi:nodetypes="cc" /><path
       d="M0 0 4.54264-4.54264-11.3566 0 4.54264 4.54264Z"
       fill-rule="evenodd"
       transform="matrix(0.480324 -0.877261 0.877018 0.480457 941.759 505.821)"
       id="path20" /><path
       d="M 502.466,127.951 332.15223,294.50647"
       stroke="#000000"
       stroke-width="4.54235"
       fill="none"
       transform="matrix(1,0,0,1.00028,583.897,90.8707)"
       id="path21"
       sodipodi:nodetypes="cc" /><path
       d="M0 0 4.54297-4.54297-11.3574 0 4.54297 4.54297Z"
       fill-rule="evenodd"
       transform="matrix(0.715604 -0.698506 0.698313 0.715802 917.609 383.579)"
       id="path22" /><path
       d="m 278.156,324.249 -68.31339,26.64674"
       stroke="#000000"
       stroke-width="4.54235"
       fill="none"
       transform="matrix(1,0,0,1.00028,583.897,90.8707)"
       id="path23"
       sodipodi:nodetypes="cc" /><path
       d="M0 0 4.54252-4.54252-11.3563 0 4.54252 4.54252Z"
       fill-rule="evenodd"
       transform="matrix(0.931974 -0.362525 0.362425 0.932232 795.607 441.056)"
       id="path24" /><path
       d="M 269.414,185.171 121.44879,343.27313"
       stroke="#000000"
       stroke-width="4.54235"
       fill="none"
       transform="matrix(1,0,0,1.00028,583.897,90.8707)"
       id="path25"
       sodipodi:nodetypes="cc" /><path
       d="M0 0 4.54294-4.54294-11.3573 0 4.54294 4.54294Z"
       fill-rule="evenodd"
       transform="matrix(0.683132 -0.73032 0.730118 0.683322 706.83 432.692)"
       id="path26" /><path
       d="M 483.99,127.951 C 394.487,228.794 271.4797,298.66745 155.3147,344.73345"
       stroke="#000000"
       stroke-width="4.54235"
       fill="none"
       transform="matrix(1,0,0,1.00028,583.897,90.8707)"
       id="path27"
       sodipodi:nodetypes="cc" /><path
       d="M0 0 4.54252-4.54252-11.3563 0 4.54252 4.54252Z"
       fill-rule="evenodd"
       transform="matrix(0.929541 -0.368719 0.368617 0.929798 741.552 434.664)"
       id="path28" /><path
       d="m 499.523,373.157 -50.36705,49.94475"
       stroke="#000000"
       stroke-width="4.54235"
       fill="none"
       transform="matrix(1,0,0,1.00028,583.897,90.8707)"
       id="path29"
       sodipodi:nodetypes="cc" /><path
       d="M0 0 4.54298-4.54298-11.3574 0 4.54298 4.54298Z"
       fill-rule="evenodd"
       transform="matrix(0.709841 -0.704362 0.704167 0.710038 1034.44 512.729)"
       id="path30" /><path
       d="m 418.821,371.932 -196.89271,0.0974"
       stroke="#000000"
       stroke-width="4.54235"
       fill="none"
       transform="matrix(1,0,0,1.00028,583.897,90.8707)"
       id="path31"
       sodipodi:nodetypes="cc" /><path
       d="M0 0 4.54235-4.54235-11.3559 0 4.54235 4.54235Z"
       fill-rule="evenodd"
       transform="matrix(-1 1.22499e-16 -1.22465e-16 -1.00028 997.267 462.906)"
       id="path32" /><path
       d="M0 0 4.54235-4.54235-11.3559 0 4.54235 4.54235Z"
       fill-rule="evenodd"
       transform="matrix(1 -1.22499e-16 1.22465e-16 1.00028 807.381 462.906)"
       id="path33" /><path
       d="M 262.26,54.7379 218.79654,88.892747"
       stroke="#000000"
       stroke-width="4.54235"
       fill="none"
       transform="matrix(1,0,0,1.00028,583.897,90.8707)"
       id="path34"
       sodipodi:nodetypes="cc" /><path
       d="M0 0 4.54283-4.54283-11.3571 0 4.54283 4.54283Z"
       fill-rule="evenodd"
       transform="matrix(0.786275 -0.617877 0.617706 0.786493 803.813 178.899)"
       id="path35" /><path
       d="m 372.727,54.7379 42.96549,40.948289"
       stroke="#000000"
       stroke-width="4.54235"
       fill="none"
       transform="matrix(1,0,0,1.00028,583.897,90.8707)"
       id="path36"
       sodipodi:nodetypes="cc" /><path
       d="M0 0 4.54295-4.54295-11.3574 0 4.54295 4.54295Z"
       fill-rule="evenodd"
       transform="matrix(-0.72408 -0.689716 0.689525 -0.72428 997.846 184.889)"
       id="path37" /><path
       d="M407.219 11.1262C413.116 11.1262 417.896 15.9065 417.896 21.8034L417.896 55.1869C417.896 61.0837 413.116 65.864 407.219 65.864L228.71 65.864C222.813 65.864 218.033 61.0837 218.033 55.1869L218.033 21.8034C218.033 15.9065 222.813 11.1262 228.71 11.1262Z"
       fill="#ABC837"
       transform="matrix(1 0 0 1.00028 583.897 90.8707)"
       id="path38" /><path
       d="M201.542 91.371C209.322 91.371 215.629 97.6783 215.629 105.459L215.629 149.505C215.629 157.286 209.322 163.593 201.542 163.593L9.19044 163.593C1.41006 163.593-4.89719 157.286-4.89719 149.505L-4.89719 105.459C-4.89719 97.6783 1.41006 91.371 9.19044 91.371Z"
       fill="#7FFF2A"
       transform="matrix(1 0 0 1.00028 583.897 90.8707)"
       id="path39" /><path
       d="M626.39 76.2711C633.913 76.2711 640.012 82.3701 640.012 89.8937L640.012 132.486C640.012 140.01 633.913 146.109 626.39 146.109L431.519 146.109C423.995 146.109 417.896 140.01 417.896 132.486L417.896 89.8936C417.896 82.3701 423.995 76.2711 431.519 76.2711Z"
       fill="#D38D5F"
       transform="matrix(1 0 0 1.00028 583.897 90.8707)"
       id="path40" /><path
       d="M370.593 163.841C378.727 163.841 385.32 170.435 385.32 178.568L385.32 194.071C385.32 202.204 378.727 208.798 370.593 208.798L264.616 208.798C256.482 208.798 249.888 202.204 249.888 194.071L249.888 178.568C249.888 170.435 256.482 163.841 264.616 163.841Z"
       fill="#9955FF"
       transform="matrix(1 0 0 1.00028 583.897 90.8707)"
       id="path41" /><path
       d="M369.952 301.91C378.086 301.91 384.68 308.503 384.68 316.637L384.68 332.139C384.68 340.273 378.086 346.866 369.952 346.866L263.975 346.866C255.842 346.866 249.248 340.273 249.248 332.139L249.248 316.637C249.248 308.503 255.842 301.91 263.975 301.91Z"
       fill="#80FFB3"
       transform="matrix(1 0 0 1.00028 583.897 90.8707)"
       id="path42" /><path
       d="M552.51 350.679C560.643 350.679 567.237 357.272 567.237 365.406L567.237 380.908C567.237 389.042 560.643 395.635 552.51 395.635L446.532 395.635C438.399 395.635 431.805 389.042 431.805 380.908L431.805 365.406C431.805 357.272 438.399 350.679 446.532 350.679Z"
       fill="#DEAA87"
       transform="matrix(1 0 0 1.00028 583.897 90.8707)"
       id="path43" /><path
       d="M188.44 350.679C196.573 350.679 203.167 357.272 203.167 365.406L203.167 380.908C203.167 389.042 196.573 395.635 188.44 395.635L82.4625 395.635C74.3289 395.635 67.7353 389.042 67.7353 380.908L67.7353 365.406C67.7353 357.272 74.3289 350.679 82.4625 350.679Z"
       fill="#FF5599"
       transform="matrix(1 0 0 1.00028 583.897 90.8707)"
       id="path44" /><path
       d="m 1049.4357,518.23933 c 6.2908,0 11.3911,4.78134 11.3911,10.67999 v 33.39335 c 0,5.89865 -5.1003,10.67999 -11.3911,10.67999 H 773.01701 c -6.2908,0 -11.39001,-4.78134 -11.39001,-10.67999 v -33.39335 c 0,-5.89865 5.09921,-10.67999 11.39001,-10.67999 z"
       fill="#a05a2c"
       id="path45"
       style="stroke-width:1.033" /><text
       font-family="Calibri,Calibri_MSFontService,sans-serif"
       font-weight="400"
       font-size="29"
       transform="matrix(0.600915 0 0 0.601081 850.598 122)"
       id="text45">Composici칩n </text><text
       font-family="Calibri,Calibri_MSFontService,sans-serif"
       font-weight="400"
       font-size="29"
       transform="matrix(0.600915 0 0 0.601081 867.747 141)"
       id="text46">Arborea</text><text
       font-family="Calibri,Calibri_MSFontService,sans-serif"
       font-weight="400"
       font-size="29"
       transform="matrix(0.600915 0 0 0.601081 609.004 214)"
       id="text47">Atributos del arbolado </text><text
       font-family="Calibri,Calibri_MSFontService,sans-serif"
       font-weight="400"
       font-size="29"
       transform="matrix(0.600915 0 0 0.601081 588.227 232)"
       id="text48">(</text><text
       font-family="Calibri,Calibri_MSFontService,sans-serif"
       font-weight="400"
       font-size="29"
       transform="matrix(0.600915 0 0 0.601081 593.635 232)"
       id="text49">estructurales y funcionales</text><text
       font-family="Calibri,Calibri_MSFontService,sans-serif"
       font-weight="400"
       font-size="29"
       transform="matrix(0.600915 0 0 0.601081 781.722 232)"
       id="text50">)</text><text
       font-family="Calibri,Calibri_MSFontService,sans-serif"
       font-weight="400"
       font-size="29"
       transform="matrix(0.600915 0 0 0.601081 1034.78 197)"
       id="text51">Atributos del Mantillo </text><text
       font-family="Calibri,Calibri_MSFontService,sans-serif"
       font-weight="400"
       font-size="29"
       transform="matrix(0.600915 0 0 0.601081 1011.82 216)"
       id="text52">(</text><text
       font-family="Calibri,Calibri_MSFontService,sans-serif"
       font-weight="400"
       font-size="29"
       transform="matrix(0.600915 0 0 0.601081 1017.22 216)"
       id="text53">estructurales y funcionales</text><text
       font-family="Calibri,Calibri_MSFontService,sans-serif"
       font-weight="400"
       font-size="29"
       transform="matrix(0.600915 0 0 0.601081 1205.31 216)"
       id="text54">)</text><text
       font-family="Calibri,Calibri_MSFontService,sans-serif"
       font-weight="400"
       font-size="29"
       transform="matrix(0.600915 0 0 0.601081 856.348 282)"
       id="text55">pH del Suelo</text><text
       font-family="Calibri,Calibri_MSFontService,sans-serif"
       font-weight="400"
       font-size="29"
       transform="matrix(0.600915 0 0 0.601081 855.184 412)"
       id="text56">Composici칩n </text><text
       font-family="Calibri,Calibri_MSFontService,sans-serif"
       font-weight="400"
       font-size="29"
       transform="matrix(0.600915 0 0 0.601081 849.654 431)"
       id="text57">flora herb치cea</text><text
       font-family="Calibri,Calibri_MSFontService,sans-serif"
       font-weight="400"
       font-size="29"
       transform="matrix(0.600915 0 0 0.601081 1059.88 460)"
       id="text58">Fauna  </text><text
       font-family="Calibri,Calibri_MSFontService,sans-serif"
       font-weight="400"
       font-size="29"
       transform="matrix(0.600915 0 0 0.601081 1050.63 479)"
       id="text59">del Suelo</text><text
       font-family="Calibri,Calibri_MSFontService,sans-serif"
       font-weight="400"
       font-size="29"
       transform="matrix(0.600915 0 0 0.601081 677.381 461)"
       id="text60">Microfbiota </text><text
       font-family="Calibri,Calibri_MSFontService,sans-serif"
       font-weight="400"
       font-size="29"
       transform="matrix(0.600915 0 0 0.601081 687.089 479)"
       id="text61">del suelo</text><text
       font-family="Calibri,Calibri_MSFontService,sans-serif"
       font-weight="700"
       font-size="37"
       transform="matrix(0.600915 0 0 0.601081 778.586 551)"
       id="text62">Descomposici칩n del Mant</text><text
       font-family="Calibri, Calibri_MSFontService, sans-serif"
       font-weight="700"
       font-size="22.2369px"
       transform="scale(0.99986191,1.0001381)"
       id="text63"
       x="1017.2627"
       y="550.92389"
       style="stroke-width:0.600998">i</text><text
       font-family="Calibri, Calibri_MSFontService, sans-serif"
       font-weight="700"
       font-size="22.2369px"
       transform="scale(0.99986191,1.0001381)"
       id="text64"
       x="1022.8714"
       y="550.92389"
       style="stroke-width:0.600998">llo</text></g></svg>
