<?xml version="1.0" encoding="UTF-8" standalone="no"?>
<svg
   width="439"
   height="305"
   xml:space="preserve"
   overflow="hidden"
   version="1.1"
   id="svg21"
   sodipodi:docname="elementos-de-un-dag.svg"
   inkscape:version="1.4 (86a8ad7, 2024-10-11)"
   xmlns:inkscape="http://www.inkscape.org/namespaces/inkscape"
   xmlns:sodipodi="http://sodipodi.sourceforge.net/DTD/sodipodi-0.dtd"
   xmlns="http://www.w3.org/2000/svg"
   xmlns:svg="http://www.w3.org/2000/svg"><sodipodi:namedview
     id="namedview21"
     pagecolor="#ffffff"
     bordercolor="#000000"
     borderopacity="0.25"
     inkscape:showpageshadow="2"
     inkscape:pageopacity="0.0"
     inkscape:pagecheckerboard="0"
     inkscape:deskcolor="#d1d1d1"
     inkscape:zoom="1.4016393"
     inkscape:cx="173.72515"
     inkscape:cy="332.82456"
     inkscape:window-width="1920"
     inkscape:window-height="1057"
     inkscape:window-x="-8"
     inkscape:window-y="-8"
     inkscape:window-maximized="1"
     inkscape:current-layer="svg21" /><defs
     id="defs1"><clipPath
       id="clip0"><rect
         x="784"
         y="228"
         width="439"
         height="305"
         id="rect1" /></clipPath></defs><g
     clip-path="url(#clip0)"
     transform="translate(-784 -228)"
     id="g21"><path
       d="m 142.979,203.246 317.98784,43.7593"
       stroke="#000000"
       stroke-width="4.50261"
       fill="none"
       transform="matrix(1,0,0,1.00008,680.012,116.898)"
       id="path1"
       sodipodi:nodetypes="cc" /><path
       d="M0 0 4.50262-4.50262-11.2566 0 4.50262 4.50262Z"
       fill-rule="evenodd"
       transform="matrix(-0.990687 -0.136156 0.136146 -0.990762 1138.66 363.544)"
       id="path2" /><path
       d="m 354.889,146.132 117.35975,76.06547"
       stroke="#000000"
       stroke-width="4.50261"
       fill="none"
       transform="matrix(1,0,0,1.00008,680.012,116.898)"
       id="path3"
       sodipodi:nodetypes="cc" /><path
       d="M0 0 4.50272-4.50272-11.2568 0 4.50272 4.50272Z"
       fill-rule="evenodd"
       transform="matrix(-0.839118 -0.543949 0.543908 -0.839181 1151.29 338.492)"
       id="path4" /><path
       d="M 281.627,340.319 463.49457,280.90844"
       stroke="#000000"
       stroke-width="4.50261"
       fill="none"
       transform="matrix(1,0,0,1.00008,680.012,116.898)"
       id="path5"
       sodipodi:nodetypes="cc" /><path
       d="M0 0 4.50265-4.50265-11.2566 0 4.50265 4.50265Z"
       fill-rule="evenodd"
       transform="matrix(-0.950477 0.310794 -0.31077 -0.950549 1142.03 398.258)"
       id="path6" /><path
       d="m 142.979,203.246 96.81827,98.66038"
       stroke="#000000"
       stroke-width="4.50261"
       fill="none"
       transform="matrix(1,0,0,1.00008,680.012,116.898)"
       id="path7"
       sodipodi:nodetypes="cc" /><path
       d="M0 0 4.50278-4.50278-11.257 0 4.50278 4.50278Z"
       fill-rule="evenodd"
       transform="matrix(-0.700134 -0.714013 0.713959 -0.700187 918.863 417.933)"
       id="path8" /><path
       d="m 139.04,381.284 1.972,-127.49311"
       stroke="#000000"
       stroke-width="4.50261"
       fill="none"
       transform="matrix(1,0,0,1.00008,680.012,116.898)"
       id="path9"
       sodipodi:nodetypes="cc" /><path
       d="M0 0 4.50262-4.50262-11.2565 0 4.50262 4.50262Z"
       fill-rule="evenodd"
       transform="matrix(-0.0150774 0.999962 -0.999886 -0.0150785 820.942 372.832)"
       id="path10" /><path
       d="M 354.889,146.132 189.28926,183.01696"
       stroke="#000000"
       stroke-width="4.50261"
       fill="none"
       transform="matrix(1,0,0,1.00008,680.012,116.898)"
       id="path11"
       sodipodi:nodetypes="cc" /><path
       d="M0 0 4.50263-4.50263-11.2566 0 4.50263 4.50263Z"
       fill-rule="evenodd"
       transform="matrix(0.976129 -0.217192 0.217175 0.976203 871.989 299.29)"
       id="path12" /><path
       d="M542.77 256.422C542.763 275.778 527.065 291.468 507.706 291.459 488.358 291.452 472.673 275.769 472.667 256.422 472.673 237.063 488.374 221.375 507.731 221.382 527.081 221.389 542.763 237.072 542.77 256.422Z"
       fill="#D38D5F"
       transform="matrix(1 0 0 1.00008 680.012 116.898)"
       id="path13" /><path
       d="M389.942 146.132C389.935 165.491 374.237 181.178 354.878 181.171 335.528 181.164 319.845 165.481 319.839 146.132 319.845 126.774 335.544 111.086 354.903 111.093 374.251 111.1 389.935 126.784 389.942 146.132Z"
       fill="#55DDFF"
       transform="matrix(1 0 0 1.00008 680.012 116.898)"
       id="path14" /><path
       d="M178.03 203.246C178.023 222.604 162.325 238.292 142.966 238.285 123.617 238.278 107.934 222.595 107.927 203.246 107.934 183.887 123.633 168.2 142.991 168.207 162.34 168.214 178.023 183.897 178.03 203.246Z"
       fill="#AAD400"
       transform="matrix(1 0 0 1.00008 680.012 116.898)"
       id="path15" /><path
       d="M174.091 381.284C174.085 400.643 158.386 416.33 139.027 416.323 119.679 416.316 103.995 400.631 103.988 381.284 103.995 361.925 119.694 346.238 139.052 346.244 158.401 346.251 174.085 361.934 174.091 381.284Z"
       fill="#D4AA00"
       transform="matrix(1 0 0 1.00008 680.012 116.898)"
       id="path16" /><path
       d="M316.678 340.319C316.671 359.678 300.973 375.365 281.614 375.358 262.266 375.352 246.583 359.667 246.577 340.319 246.583 320.96 262.282 305.273 281.641 305.28 300.989 305.286 316.671 320.971 316.678 340.319Z"
       fill="#DDAFE9"
       transform="matrix(1 0 0 1.00008 680.012 116.898)"
       id="path17" /><text
       font-family="Calibri,Calibri_MSFontService,sans-serif"
       font-weight="700"
       font-size="43"
       transform="matrix(0.595658 0 0 0.595703 1180.03 381)"
       id="text17">Y</text><text
       font-family="Calibri,Calibri_MSFontService,sans-serif"
       font-weight="700"
       font-size="43"
       transform="matrix(0.595658 0 0 0.595703 953.933 465)"
       id="text18">B</text><text
       font-family="Calibri,Calibri_MSFontService,sans-serif"
       font-weight="700"
       font-size="43"
       transform="matrix(0.595658 0 0 0.595703 811.346 506)"
       id="text19">C</text><text
       font-family="Calibri,Calibri_MSFontService,sans-serif"
       font-weight="700"
       font-size="43"
       transform="matrix(0.595658 0 0 0.595703 815.285 328)"
       id="text20">X</text><text
       font-family="Calibri,Calibri_MSFontService,sans-serif"
       font-weight="700"
       font-size="43"
       transform="matrix(0.595658 0 0 0.595703 1027.2 271)"
       id="text21">A</text></g></svg>
