<?xml version="1.0" encoding="UTF-8" standalone="no"?>
<!-- Uploaded to: SVG Repo, www.svgrepo.com, Generator: SVG Repo Mixer Tools -->

<svg
   width="800px"
   height="800px"
   viewBox="0 0 17 17"
   version="1.1"
   id="svg1"
   sodipodi:docname="vector-svgrepo-com.svg"
   inkscape:version="1.4.2 (f4327f4, 2025-05-13)"
   inkscape:export-filename="causalidad-2026.png"
   inkscape:export-xdpi="300"
   inkscape:export-ydpi="300"
   xmlns:inkscape="http://www.inkscape.org/namespaces/inkscape"
   xmlns:sodipodi="http://sodipodi.sourceforge.net/DTD/sodipodi-0.dtd"
   xmlns="http://www.w3.org/2000/svg"
   xmlns:svg="http://www.w3.org/2000/svg">
  <defs
     id="defs1">
    <rect
       x="400"
       y="494.19795"
       width="446.41638"
       height="158.36178"
       id="rect1" />
  </defs>
  <sodipodi:namedview
     id="namedview1"
     pagecolor="#ffffff"
     bordercolor="#000000"
     borderopacity="0.25"
     inkscape:showpageshadow="2"
     inkscape:pageopacity="0.0"
     inkscape:pagecheckerboard="0"
     inkscape:deskcolor="#d1d1d1"
     inkscape:zoom="0.36625"
     inkscape:cx="32.764505"
     inkscape:cy="229.35154"
     inkscape:window-width="1440"
     inkscape:window-height="830"
     inkscape:window-x="-6"
     inkscape:window-y="-6"
     inkscape:window-maximized="1"
     inkscape:current-layer="svg1" />
  <g
     id="g2"
     transform="rotate(-90,8.5,8.5)">
    <rect
       style="fill:#a05a2c;fill-rule:evenodd;stroke-width:0.080315"
       id="rect2"
       width="17"
       height="17"
       x="0"
       y="0" />
    <path
       d="M 14.94,6 C 13.908,5.353 12.726,5 11.5,5 10.722,5 9.971,5.144 9.261,5.404 L 11.83,2.835 C 12.033,2.937 12.258,3 12.5,3 13.327,3 14,2.327 14,1.5 14,0.673 13.327,0 12.5,0 11.673,0 11,0.673 11,1.5 c 0,0.22 0.05,0.428 0.136,0.616 L 7.226,6.025 C 7.145,6.011 7.062,6 6.976,6 c -0.827,0 -1.5,0.673 -1.5,1.5 0,0.085 0.011,0.168 0.025,0.25 L 2.115,11.136 C 1.927,11.05 1.72,11 1.5,11 0.673,11 0,11.673 0,12.5 0,13.327 0.673,14 1.5,14 2.327,14 3,13.327 3,12.5 3,12.258 2.937,12.033 2.835,11.831 l 2.57,-2.57 C 5.143,9.976 5,10.734 5,11.5 c 0,1.469 0.612,2.735 1,3.391 V 17 H 9 V 14 H 6.664 C 6.246,13.174 6,12.287 6,11.5 6,10.613 6.22,9.736 6.628,8.955 6.741,8.982 6.856,9 6.976,9 7.803,9 8.476,8.327 8.476,7.5 8.476,7.32 8.439,7.15 8.381,6.99 10.025,5.859 12.228,5.722 14,6.617 V 9 h 3 V 6 Z M 12.5,1 C 12.776,1 13,1.224 13,1.5 13,1.776 12.776,2 12.5,2 12.224,2 12,1.776 12,1.5 12,1.224 12.224,1 12.5,1 Z M 1.5,13 C 1.224,13 1,12.776 1,12.5 1,12.224 1.224,12 1.5,12 1.776,12 2,12.224 2,12.5 2,12.776 1.776,13 1.5,13 Z M 7,15 h 1 v 1 H 7 Z M 6.976,8 C 6.7,8 6.476,7.776 6.476,7.5 6.476,7.224 6.7,7 6.976,7 c 0.276,0 0.5,0.224 0.5,0.5 0,0.276 -0.224,0.5 -0.5,0.5 z M 16,8 H 15 V 7 h 1 z"
       fill="#000000"
       id="path1"
       style="fill:#00ff00" />
    <text
       xml:space="preserve"
       transform="matrix(0.03168746,0.02563809,-0.02563809,0.03168746,4.4339649,-24.579129)"
       id="text1"
       style="font-style:normal;font-variant:normal;font-weight:normal;font-stretch:normal;font-size:192px;line-height:0.9;font-family:Forte;-inkscape-font-specification:Forte;text-align:start;text-decoration-color:#000000;word-spacing:1.5px;writing-mode:lr-tb;direction:ltr;white-space:pre;shape-inside:url(#rect1);shape-padding:0;display:inline;fill:#ffcc00;fill-rule:evenodd;stroke-width:3.77953"><tspan
         x="400"
         y="630.28889"
         id="tspan1">2026</tspan></text>
  </g>
</svg>
