<?xml version="1.0" encoding="UTF-8" standalone="no"?>
<svg
   width="716"
   height="262"
   xml:space="preserve"
   overflow="hidden"
   version="1.1"
   id="svg10"
   sodipodi:docname="sesgo-sistematico.svg"
   inkscape:version="1.4 (86a8ad7, 2024-10-11)"
   xmlns:inkscape="http://www.inkscape.org/namespaces/inkscape"
   xmlns:sodipodi="http://sodipodi.sourceforge.net/DTD/sodipodi-0.dtd"
   xmlns="http://www.w3.org/2000/svg"
   xmlns:svg="http://www.w3.org/2000/svg"><sodipodi:namedview
     id="namedview10"
     pagecolor="#ffffff"
     bordercolor="#000000"
     borderopacity="0.25"
     inkscape:showpageshadow="2"
     inkscape:pageopacity="0.0"
     inkscape:pagecheckerboard="0"
     inkscape:deskcolor="#d1d1d1"
     inkscape:zoom="2.4804469"
     inkscape:cx="358.20158"
     inkscape:cy="130.8232"
     inkscape:window-width="1920"
     inkscape:window-height="1057"
     inkscape:window-x="-8"
     inkscape:window-y="-8"
     inkscape:window-maximized="1"
     inkscape:current-layer="svg10" /><defs
     id="defs1"><clipPath
       id="clip0"><rect
         x="177"
         y="201"
         width="716"
         height="262"
         id="rect1" /></clipPath></defs><g
     clip-path="url(#clip0)"
     transform="translate(-177 -201)"
     id="g10"><text
       font-family="Calibri,Calibri_MSFontService,sans-serif"
       font-weight="700"
       font-size="85"
       transform="matrix(1.02575 0 0 1.02575 507.678 375)"
       id="text1">A</text><text
       font-family="Calibri,Calibri_MSFontService,sans-serif"
       font-weight="700"
       font-size="85"
       transform="matrix(1.02575 0 0 1.02575 791.127 375)"
       id="text2">Y</text><text
       font-family="Calibri,Calibri_MSFontService,sans-serif"
       font-weight="700"
       font-size="85"
       transform="matrix(1.02575 0 0 1.02575 198.6 375)"
       id="text3">L</text><path
       d="m 233.549,288.094 c 11.492,-6.463 22.983,-12.575 34.474,-18.324 7.018,-3.511 14.036,-6.887 21.054,-10.124 6.964,-3.213 13.928,-6.289 20.892,-9.226 6.924,-2.92 13.849,-5.703 20.773,-8.345 5.987,-2.285 11.975,-4.465 17.963,-6.539 5.83,-2.018 11.66,-3.936 17.49,-5.751 6.113,-1.902 12.227,-3.692 18.34,-5.366 7.118,-1.95 14.236,-3.745 21.354,-5.38 7.292,-1.675 14.589,-3.183 21.881,-4.521 8.638,-1.585 17.271,-2.931 25.909,-4.032 8.382,-1.07 16.764,-1.909 25.149,-2.514 7.932,-0.572 15.864,-0.933 23.8,-1.081 9.522,-0.176 19.047,-0.043 28.569,0.406 7.75,0.366 15.499,0.941 23.249,1.73 9.642,0.981 19.28,2.293 28.922,3.943 10.793,1.847 21.582,4.117 32.375,6.822 9.39,2.353 18.78,5.035 28.169,8.053 5.614,1.803 11.224,3.726 16.834,5.771 6.451,2.35 12.902,4.861 19.353,7.534 7.304,3.028 14.612,6.264 21.916,9.712 9.075,4.285 18.155,8.897 27.231,13.841 7.191,3.919 14.387,8.047 21.578,12.387 7.847,4.736 10.05386,5.69347 17.89986,10.93947"
       stroke="#000000"
       stroke-width="11.6306"
       fill="none"
       id="path3"
       sodipodi:nodetypes="ccccccccsscccccsccccccsc" /><path
       d="M762.766 284.304 746.633 287.509 786.938 300.465 759.562 268.171Z"
       fill-rule="evenodd"
       id="path4" /><path
       d="m 259.09,347.599 h 29.091 27.768 33.057 27.109 34.376 28.433 l 21.4791,0"
       stroke="#000000"
       stroke-width="11.6306"
       fill="none"
       id="path5"
       sodipodi:nodetypes="cccccccc" /><path
       d="M459.347 347.599 447.716 359.23 488.423 347.599 447.716 335.969Z"
       fill-rule="evenodd"
       id="path6" /><text
       font-family="Calibri,Calibri_MSFontService,sans-serif"
       font-weight="400"
       font-size="37"
       transform="matrix(0.999999 0 0 0.999999 173.864 444)"
       id="text6">Fumador</text><text
       font-family="Calibri,Calibri_MSFontService,sans-serif"
       font-weight="400"
       font-size="37"
       transform="matrix(0.999999 0 0 0.999999 491.775 432)"
       id="text7">Dedos </text><text
       font-family="Calibri,Calibri_MSFontService,sans-serif"
       font-weight="400"
       font-size="37"
       transform="matrix(0.999999 0 0 0.999999 470.201 463)"
       id="text8">amarillos</text><text
       font-family="Calibri,Calibri_MSFontService,sans-serif"
       font-weight="400"
       font-size="37"
       transform="matrix(0.999999 0 0 0.999999 760.398 425)"
       id="text9">Cancer </text><text
       font-family="Calibri,Calibri_MSFontService,sans-serif"
       font-weight="400"
       font-size="37"
       transform="matrix(0.999999 0 0 0.999999 732.371 455)"
       id="text10">pulmornar</text></g></svg>
