<?xml version="1.0" encoding="UTF-8" standalone="no"?>
<svg id="svg4447" xmlns:rdf="http://www.w3.org/1999/02/22-rdf-syntax-ns#" xmlns="http://www.w3.org/2000/svg" height="491" viewBox="0 0 1057 491" width="1057" version="1.1" xmlns:cc="http://creativecommons.org/ns#" xmlns:dc="http://purl.org/dc/elements/1.1/">
<path id="path4457" d="m496 489.91c-4.675-0.43756-19.525-1.2871-33-1.8878-13.475-0.60075-26.75-1.5363-29.5-2.0789-2.75-0.54266-12.2-1.6503-21-2.4614-8.8-0.81113-19.375-2.1227-23.5-2.9145-4.125-0.79187-15.15-2.163-24.5-3.047-26.881-2.5414-45.194-5.339-56-8.555-5.5-1.6368-14.5-3.834-20-4.8826s-13.825-2.8167-18.5-3.929c-8.9685-2.1339-23.791-4.6847-33-5.679-16.362-1.7666-59.404-16.806-76.5-26.73-17.3-10.03-48.53-11.67-108.92-5.7-48.13 4.75-48.843 4.74-50.2-0.66-1.8197-7.25-0.5472-7.55 57.62-13.4 69.682-7.0157 73.33-6.8039 89.5 5.1968 10.266 7.6188 14.244 9.4279 41 18.644 26.254 9.0437 26.646 9.1385 60.5 14.641 27.258 4.4304 39.65 6.8891 50.867 10.092 6.8016 1.9424 17.152 4.194 23 5.0035 5.8484 0.80944 11.205 1.6806 11.904 1.9359 0.69908 0.2553 7.2241 0.94029 14.5 1.5222s18.404 1.9618 24.729 3.0664 21.175 2.8722 33 3.928 24.875 2.4564 29 3.1124c4.2834 0.68122 20.152 1.284 37 1.4055 17.426 0.12567 31.342 0.66595 34 1.32 14.863 3.6573 27.355-2.9671 13.5-7.1593-3.3-0.99851-10.95-3.3336-17-5.1892-6.05-1.8555-15.5-4.5179-21-5.9164-14.036-3.5691-30.089-10.048-36.082-14.562-2.7952-2.1056-9.3202-5.9508-14.5-8.545-23.212-11.625-43.726-30.014-48.027-43.051-1.014-3.0737-3.3745-7.6883-5.2456-10.255-1.871-2.5663-4.8682-7.591-6.6604-11.166s-4.9071-8.975-6.9221-12-6.3409-9.9813-9.6131-15.458l-5.9495-9.9584 0.18984-9.6019c0.13288-6.7207 0.76696-11.084 2.1131-14.542 1.0578-2.7168 2.2474-6.7187 2.6436-8.8931 1.9758-10.843 13.843-22.233 27.233-26.137 7.4988-2.1865 9.8428-4.4629 12.348-11.993 4.166-12.519 15.585-24.347 26.972-27.939 8.8406-2.7886 12.006-8.4479 7.1713-12.823-4.2332-3.831-8.6294-1.6099-22.671 11.454-14.169 13.182-39.834 33.708-49.5 39.587-17.421 10.597-49.694 24.306-57.206 24.301-25.354-0.0166-32.174-5.147-13.285-9.9936 13.94-3.5768 50.939-21.376 63.874-30.727 7.3692-5.3279 30.454-24.273 42.118-34.565 5.5-4.853 11.238-9.8716 12.75-11.152 5.48-4.6405 3.179-7.5775-13.517-17.253-16.907-9.7978-12.543-12.095 10.463-5.5083 26.401 7.5592 34.326 8.7891 48.558 7.536 14.574-1.2833 28.889 0.31989 41.789 4.6804 10.661 3.6038 13.443 3.7048 17.13 0.62235 4.7876-4.0024 6.2842-3.9702 19.462 0.41951 17.728 5.9052 28.569 11.374 43.364 21.877 47.347 33.61 73.623 46.098 96.886 46.046 24.716-0.0545 29.17-4.0776 13.114-11.846-2.2-1.0644-8.05-3.8911-13-6.2816-8.6209-4.1633-12.333-7.1611-21-16.961-1.65-1.8656-5.0959-4.8158-7.6576-6.5562-7.9453-5.3978-12.732-16.246-10.679-24.203 0.98-3.75 27.81-31.15 30.51-31.15 9.8718 0 3.875 15.686-10.138 26.518-16.765 12.96-15.348 22.846 4.9794 34.724 3.3 1.9282 11.817 7.1571 18.926 11.62 7.1092 4.4626 14.534 8.3948 16.5 8.7384 4.7787 0.83506 7.711 2.7971 9.579 6.4095 2.3244 4.4949 5.403 3.9064 15.987-3.056 19.084-12.554 19.823-30.954 1.8729-46.617-3.6787-3.2099-15.965-15.088-27.304-26.397-11.338-11.308-23.116-22.558-26.173-25-3.0569-2.4418-8.376-6.8191-11.82-9.7273-6.67-5.63-19.28-12.5-25.07-13.66-6.8554-1.371-22.567-6.7459-26.668-9.1228-2.2924-1.3288-9.7174-4.3951-16.5-6.814s-14.709-5.3456-17.613-6.5037c-2.9048-1.1581-8.6802-2.8077-12.834-3.6658-4.1541-0.85805-11.424-2.9263-16.154-4.5961-4.7308-1.6698-13.13-4.3791-18.666-6.0206-5.86-1.737-17.16-6.506-27.06-11.42-12.16-6.033-18.85-8.758-23.5-9.565-19.28-3.347-33.01-12.553-25.07-16.806 4.2771-2.2891 22.769 2.4059 39.905 10.132 11.089 4.9993 25.368 10.193 52.661 19.153 36.522 11.99 55.176 19.127 76 29.078 3.85 1.8398 9.25 3.924 12 4.6316 9.5225 2.4503 14.635 5.0125 29.07 14.568 16.012 10.599 17.728 11.142 35.628 11.27 4.234 0.0302 12.334 0.50536 18 1.056 5.666 0.55062 24.477 1.4886 41.802 2.0844 17.325 0.59579 35.775 1.5332 41 2.0832 5.225 0.54994 16.475 1.4087 25 1.9083 12.457 0.73001 17.562 1.5068 26 3.9562 5.775 1.6763 14.325 3.7486 19 4.6052 4.675 0.85659 11.79 2.4372 15.811 3.5124 17.263 4.6164 84.816 7.1189 106.92 3.9608 3.7227-0.53185 12.543-1.4026 19.6-1.9349 66.28-4.9996 49.067-82.549-19.331-87.093-6.875-0.45671-13.175-1.0865-14-1.3996-0.825-0.31308-7.125-1.247-14-2.0754-13.185-1.5886-15.548-2.0472-34.168-6.631-12.02-2.968-25.73-5.233-38.83-6.425-4.12-0.375-12.45-2.164-18.5-3.975-9.51-2.846-36.24-9.596-65.5-16.543-13.48-3.199-27.4-4.288-58.5-4.577-46.18-0.428-79.09-3.761-92.28-9.347-15.98-6.771-53.61-15.517-77.6-18.038-5.43-0.571-10.32-1.315-10.87-1.654-3.46-2.139-95.34-2.199-115.75-0.075-6.325 0.6582-16.831 1.0709-23.346 0.91715-15.967-0.37682-30.109 1.7529-57.154 8.6065-4.4 1.1151-14.846 3.6498-23.214 5.6327-17.136 4.0609-31.977 9.1318-49.771 17.007-6.6665 2.9502-23.554 9.4712-37.528 14.491-13.974 5.0199-28.8 10.99-32.947 13.268-21.223 11.655-26.181 14.213-33.54 17.301-4.4 1.8466-11.6 5.153-16 7.3476-15.441 7.7013-9.4543 7.2482-91.645 6.9367-81.764-0.31-77.86 0.03-77.86-6.78 0-6.771-3.5049-6.442 74.854-7.028 84.786-0.633 70.976 2.016 122.65-23.519 12.45-6.154 26.09-12.054 33.5-14.496 14.871-4.9003 42.254-14.985 61-22.465 16.153-6.4458 31.747-11.247 54-16.627 9.075-2.194 19.427-4.8472 23.005-5.8959 12.06-3.536 21.87-4.3901 74-6.4453 67.378-2.6565 71.855-2.7407 86.5-1.6277 15.575 1.1836 28.727 3.1223 38.968 5.7439 3.2822 0.84024 10.032 2.1733 15 2.9625 9.6603 1.5345 34.963 6.9887 50.532 10.893 29.277 7.3413 56.283 10.503 89.755 10.509 38.45 0.0066 57.575 1.8019 78.438 7.3635 35.095 9.3554 70.033 17.559 74.958 17.601 3.5332 0.03019 30.572 5.0764 59.349 11.076 7.7 1.6054 19.263 3.5865 25.695 4.4024 16.017 2.0316 23.255 3.8475 32.397 8.1277 4.2907 2.0088 9.5803 4.2801 11.755 5.0473 69.327 24.46 66.562 95.605-3.8472 98.981-6.6 0.3164-15.6 1.2716-20 2.1227-21.833 4.2231-68.444 2.5178-93.5-3.4209-3.575-0.84733-7.85-1.7404-9.5-1.9847-4.3368-0.64193-39.672-7.0656-48.5-8.8168-9.5447-1.8935-10.07-1.9358-68.5-5.5172-35.474-2.1744-50.43-3.4535-54.182-4.6342-6.818-2.1457-22.551-1.2516-20.154 1.1454 1.0693 1.0693 16.357 4.4966 22.671 5.0826 49.223 4.5684 80.391 88.256 40.344 108.32-8.9908 4.505-30.1 12.191-46.769 17.029-12.001 3.4831-13.084 6.6116-6.1592 17.8 9.901 15.998 10.842 43.955 2.0902 62.106-6.8191 14.142-30.487 22.883-65.174 24.069-22.178 0.75843-22.174 0.75489-18.049 15.791 3.098 11.292 2.3187 16.465-3.9395 26.149-2.7201 4.209-6.7925 10.872-9.0496 14.806-8.2403 14.362-19.39 21.291-34.314 21.325-11.681 0.0265-12.95 0.46749-22.881 7.9506-10.86 8.1831-21.919 9.6995-50.934 6.9838zm81.855-26.476c35.575-17.797 41.253-65.462 7.8674-66.045-7.8222-0.13639-19.397-0.98587-25.722-1.8877-6.325-0.90186-15.775-2.0183-21-2.4809-26.721-2.366-29.919-3.9752-90.5-45.538-7.15-4.9054-16.15-12.123-20-16.039-13.885-14.123-14.915-13.808-13.448 4.1086 1.7653 21.565-0.28894 25.918-14.355 30.419-9.617 3.0773-11.022-1.0918-3.6982-10.971 6.9751-9.4088 8.1963-13.371 7.3946-23.99-0.52341-6.9335-0.33259-9.228 0.97822-11.763 2.7804-5.3767-2.3776-23.368-8.5976-29.989-10.09-10.741-36.556 20.59-31.235 36.976 8.8741 27.323 22.899 53.56 34.808 65.116 7.5332 7.31 10.926 11.438 13.152 16l3 6.1486 13 6.7232c7.15 3.6978 16.375 8.1395 20.5 9.8706 4.125 1.731 15.139 6.7189 24.475 11.084 27.1 12.671 44.077 17.783 59.134 17.807 8.3019 0.0135 9.6313 0.29504 15 3.177 11.358 6.0972 18.944 6.4277 29.246 1.274zm63.957-79.452c39.912-4.2044 52.147-16.497 52.182-52.433 0.0242-24.401-7.8877-31.444-33.331-29.669-26.669 1.8604-79.405 2.1784-89.663 0.54066-4.675-0.74637-13.675-2.0107-20-2.8096-14.539-1.8364-25.337-5.2528-31.517-9.9714-2.6334-2.0108-9.7819-6.0814-15.885-9.0459-6.11-2.96-16.72-9.17-23.6-13.8-6.875-4.631-14.975-10.064-18-12.073s-7.382-5.0078-9.6822-6.6639c-18.081-13.018-45.391 5.8326-47.103 32.511-0.67744 10.556 12.102 29.755 27.786 41.741 2.475 1.8917 5.9425 5.2461 7.7056 7.4544 10.215 12.795 67.904 46.543 82.571 48.304 3.9727 0.4772 11.048 1.5856 15.723 2.4631 22.214 4.1697 78.19 6.0533 102.81 3.4596zm-197.57-63.6c-2.1539-0.946-1.3286-4.6786 2.2907-10.36 10.403-16.33 11.962-28.718 5.2547-41.766-3.8889-7.5656-4.1054-8.3752-2.633-9.8476 4.71-4.71 18.84 22.34 18.84 36.07 0 15.848-13.391 30.455-23.75 25.905zm203.14-29.337c13.296-0.81114 16.644-1.3431 20.5-3.2573 7.0652-3.5075 6.4897-3.9989-7.8837-6.7318-3.5706-0.67892-9.1956-2.3815-12.5-3.7834-3.3044-1.402-9.1888-3.3522-13.077-4.3338-11.239-2.8377-42.328-19.946-54.2-29.826-12.53-10.43-41.2-20.11-59.55-20.11-8.3009 0-9.1802 1.0116-9.1802 10.562 0 8.248-2.5616 12.673-9.7228 16.795-7.492 4.3126-9.275 0.14996-4.8503-11.324 7.4266-19.258 0.0256-26.802-25.749-26.246-18.568 0.40018-25.136 3.6678-28.248 14.052-2.3828 7.9533 1.3981 12.061 16.353 17.768 5.6211 2.1451 13.053 6.1228 19.064 10.204 32.202 21.863 56.506 33.027 76.927 35.339 23.897 2.705 57.148 3.0279 92.118 0.8945zm98.006-31.644c6.7843-2.6034 10.694-25.419 6.6168-38.618-6.1178-19.807-47.315-56.638-48.82-43.646-0.25903 2.2357 2.3764 5.3538 17.327 20.5 25.261 25.592 29.337 34.878 23.492 53.524-2.7953 8.9174-2.649 9.7879 1.3851 8.2399z"/>
</svg>
