<?xml version="1.0" encoding="UTF-8" standalone="no"?>
<svg xmlns:rdf="http://www.w3.org/1999/02/22-rdf-syntax-ns#" xmlns="http://www.w3.org/2000/svg" height="492.19" viewBox="0 0 1374.375 492.1875" width="1374.4" version="1.1" xmlns:cc="http://creativecommons.org/ns#" xmlns:dc="http://purl.org/dc/elements/1.1/">
<path d="m782.34 491.24c-6.2581-1.1197-30.457-2.7127-58.594-3.8571-12.633-0.51382-25.31-1.0296-28.171-1.1463-3.4907-0.14229-6.112-0.85376-7.9688-2.1629-1.5218-1.073-4.5185-2.8372-6.6594-3.9204-2.1409-1.0833-7.9527-5.3444-12.915-9.4693-4.9625-4.1248-11.016-8.8471-13.451-10.494-2.4357-1.6468-6.5379-4.9316-9.1161-7.2995-2.5781-2.3679-10.228-8.457-17-13.531-13.342-9.9974-15.395-12.551-13.01-16.19 3.8832-5.9265 14.075-0.0371 47.354 27.363 20.57 16.936 26.313 20.096 36.524 20.096 2.3697 0 10.203 0.82929 17.408 1.8429 7.2047 1.0136 19.568 2.2763 27.475 2.806 7.9067 0.5297 14.694 1.1596 15.082 1.3998 2.0461 1.2646 29.548 2.399 32.763 1.3514 7.7222-2.5162 18.699-8.4012 20.339-10.905 2.7068-4.1312 9.28-34.334 10.765-49.464 0.40488-4.125 1.2434-12.562 1.8634-18.75 1.7533-17.499 1.3559-64.864-0.58727-70-4.8176-12.735 3.9175-40.156 12.792-40.156 4.8216 0 5.4507 11.584 5.7276 105.47 0.0697 23.629 0.49355 41.143 1.0242 42.318 2.1522 4.7691 15.923 6.1943 35.937 3.7192 24.797-3.0666 29.252-5.8899 45.945-29.122 4.0846-5.6845 5.0834-16.6 2.2526-24.618-1.0529-2.9822-2.3612-8.3753-2.9074-11.985-0.54622-3.6094-2.1859-10.781-3.6438-15.938-2.7361-9.6772-6.8431-27.935-10.333-45.938-1.0996-5.6719-3.6037-16.008-5.5646-22.969-1.9609-6.9609-3.8679-14.747-4.2378-17.302-0.3699-2.5551-2.2617-7.8285-4.2039-11.719-1.9422-3.8902-4.4973-10.026-5.6779-13.636-1.1806-3.6094-2.416-6.7734-2.7453-7.0312-0.32935-0.25781-2.6486-7.0078-5.1538-15s-5.0738-15.375-5.7079-16.406c-0.6341-1.0312-1.6521-4.53-2.2622-7.7749-1.4026-7.4604-6.4662-21.529-11.84-32.898-5.9592-12.606-5.4968-15.272 3.18-18.333 6.7499-2.3815 9.9075 0.45865 13.274 11.939 0.93791 3.1989 5.5752 14.043 10.305 24.097 4.73 10.055 9.414 20.602 10.409 23.438 0.99501 2.8359 2.6687 6.324 3.7193 7.7513s2.6836 4.3992 3.6288 6.6044c1.6804 3.9202 8.9943 16.913 14.967 26.589 1.6471 2.6682 3.9944 7.3089 5.2163 10.312 1.2219 3.0036 4.7613 10.313 7.8653 16.242 3.104 5.9297 6.3526 12.68 7.2192 15 0.86643 2.3203 4.8698 11.391 8.8965 20.156 19.42 42.277 19.485 42.578 11.023 51.849-18.543 20.315-2.6117 28.324 33.694 16.938 7.3007-2.2896 17.694-21.692 18.768-35.037 0.667-8.2859-6.7219-41.842-11.522-52.327-1.2662-2.7655-3.1145-8.205-4.1075-12.088-2.5268-9.8797-7.2564-22.98-9.3657-25.943-0.97631-1.3711-2.4889-4.8046-3.3613-7.63-2.8973-9.3832-4.3566-12.603-7.4266-16.387-4.2437-5.2309-7.5082-11.113-10.281-18.525-1.304-3.4858-3.6461-8.1913-5.2047-10.457-1.5586-2.2653-4.4721-8.6946-6.4744-14.287-2.0023-5.5926-5.1671-12.933-7.0329-16.312s-4.6254-10.762-6.1325-16.406c-1.507-5.6444-3.8722-14.481-5.256-19.638-1.3944-5.1953-4.3062-12.719-6.5315-16.875-2.2085-4.125-4.7634-9.8203-5.6775-12.656-1.371-4.2533-3.0335-6.5114-9.4938-12.895-8.2942-8.1955-8.674-8.9231-6.3724-12.209 1.647-2.3513 6.1429-2.7708 9.417-0.8785 4.9655 2.8698 27.623 24.068 35.893 33.582 3.4095 3.9221 10.629 12.179 16.043 18.349 5.4141 6.1699 13.425 15.579 17.802 20.91 12.715 15.483 16.55 15.911 33.76 3.7645 10.379-7.3256 39.767-18.907 52.241-20.587 10.278-1.3843 17.273-2.9095 22.546-4.9154 7.0101-2.667 13.989-2.5452 48.194 0.84081 12.773 1.2644 17.067 1.3505 23.438 0.47023 4.2899-0.59275 11.287-1.3085 15.548-1.5906 4.2616-0.28208 13.121-1.3199 19.688-2.3062 24.716-3.7124 60.517-5.4325 76.526-3.6765 9.4731 1.0391 11.113 0.9971 14.754-0.37811 2.2532-0.85094 7.2607-2.0278 11.128-2.6152 29.312-4.4524 60.73-40.241 35.326-40.241-2.7941 0-8.6159-0.60283-12.937-1.3396-4.3215-0.73679-10.388-1.6282-13.482-1.9809-17.717-2.0198-23.155-4.2602-32.876-13.545-4.949-4.7267-9.776-8.313-13.964-10.375-7.2105-3.5497-4.2558-3.3482-40.816-2.784-13.328 0.2057-27.691-0.10276-34.219-0.73487-6.1875-0.59914-16.734-1.5435-23.438-2.0985-6.7031-0.55502-13.957-1.4013-16.12-1.8806-2.1627-0.47934-12.48-1.0969-22.928-1.3723-13.651-0.3599-21.489-1.0215-27.858-2.3515-12.196-2.5469-13.579-2.4282-28.058 2.4093-16.922 5.6539-24.68 6.3707-60.662 5.6054-18.971-0.40349-29.193-0.27165-31.406 0.4051-1.8047 0.5518-9.1776 1.6579-16.384 2.458-7.2067 0.80012-15.433 1.9759-18.281 2.6129-7.388 1.6524-14.326 0.54604-19.136-3.0514-4.54-3.3956-6.2766-4.2777-19.431-9.8698-14.825-6.3024-15.839-6.4455-48.174-6.7996-15.984-0.17506-43.406-0.56611-60.938-0.869-17.531-0.30288-48.673-0.14286-69.205 0.35562-30.347 0.73679-38.677 0.66884-44.531-0.36328-8.5924-1.5148-19.825-1.6394-25.014-0.27747-2.0625 0.54135-17.883 1.1999-35.156 1.4634-39.91 0.60887-42.869 0.69802-52.5 1.5815-4.3828 0.40206-17.883 1.1261-30 1.6089-51.772 2.063-60.272 2.6446-67.5 4.6178-18.727 5.1127-28.028 6.4557-38.438 5.5501-5.4141-0.47101-18.703-1.2697-29.531-1.7749-10.84-0.472-21.6-1.296-23.92-1.798s-6.96-0.935-10.31-0.961c-3.36-0.027-10.95-0.691-16.88-1.477s-15-1.858-20.16-2.384c-5.15-0.525-11.69-1.547-14.53-2.27-2.83-0.724-9.16-1.577-14.06-1.897-11.36-0.742-26.18-3.551-33.86-6.418-3.29-1.229-9.36-2.929-13.48-3.777-8.37-1.72-188.25-12.875-206.51-12.807-8.683 0.032-11.773-0.359-17.342-2.195-3.727-1.228-8.245-2.608-10.039-3.0661-2.008-0.5126-3.798-1.7879-4.656-3.3172-3.512-6.2572 4.936-7.8117 21.981-4.0448 10.444 2.3083 15.779 2.6003 51.998 2.8466 37.008 0.2517 51.948 1.3556 63.088 4.663 3.04 0.9035 8.63 1.4225 15.34 1.4225 5.8025 0 11.599 0.39886 12.881 0.88635 2.7066 1.029 9.3165 1.1606 19.602 0.3901 5.177-0.3878 8.5623-0.14012 11.719 0.85738 6.3837 2.0174 12.867 2.5643 20.376 1.7188 8.6935-0.97892 25.022 1.012 38.906 4.7438 17.531 4.7121 29.789 7.1776 41.25 8.297 5.9297 0.57914 15.211 1.6437 20.625 2.3657 5.4141 0.72199 17.438 1.755 26.719 2.2955 9.2812 0.54053 21.938 1.593 28.125 2.3389 6.1875 0.74587 15.094 1.8213 19.792 2.3898 6.0526 0.73238 10.151 0.7467 14.062 0.04913 3.036-0.54149 12.481-0.97462 20.989-0.96251 8.5078 0.0121 20.742-0.41259 27.188-0.94377 33.784-2.7842 54.204-4.7475 78.75-7.5714 30.967-3.5626 39.14-3.9928 63.281-3.3311 12.891 0.35333 26.391 0.98114 30 1.3951 3.6556 0.41928 11.131 0.35125 16.875-0.1536 7.0333-0.61811 14.784-0.57394 24.375 0.1389 19.663 1.4615 126.19-1.0866 135.94-3.2517 9.7619-2.1676 34.746-2.6918 43.968-0.92255 4.0728 0.78139 12.51 1.6693 18.75 1.9731 16.684 0.81234 19.388 1.5549 30.669 8.4209 5.4717 3.3305 11.589 6.6442 13.594 7.3639 2.0048 0.71964 5.877 2.4777 8.6048 3.9068l4.9596 2.5984 11.915-1.0793c6.5534-0.59363 17.189-1.7085 23.634-2.4775 6.4453-0.76901 23.953-1.8397 38.906-2.3793 27.525-0.99325 31.829-1.5129 55.312-6.6782 16.549-3.64 28.847-4.2159 37.969-1.7778 8.2343 2.2008 19.2 3.8482 37.031 5.5633 5.6718 0.54556 15.797 1.659 22.5 2.4744 17.706 2.1537 51.254 2.7732 69.375 1.2811 24.721-2.0355 24.837-2.023 35.017 3.783l8.7673 4.9999 12.465 0.22183c6.8558 0.12201 12.884 0.4804 13.395 0.79644 0.5114 0.31603 11.567 0.81645 24.568 1.112 23.521 0.53477 27.01 0.9944 30.346 3.9981 3.4122 3.0718 3.6374 5.6012 1.0054 11.294-2.0396 4.412-2.4813 6.8458-2.684 14.792-0.5566 21.814-30.328 46.277-61.474 50.513-2.3203 0.31557-6.2095 1.2071-8.6427 1.9812-3.577 1.1379-11.834 1.4562-43.125 1.6626-29.665 0.1956-40.89 0.60098-48.076 1.7362-24.558 3.8795-56.283 5.3269-78.407 3.577-12.803-1.0126-14.086-0.96229-19.219 0.75389-8.324 2.7834-14.424 4.3813-30.343 7.9488-41.875 9.384-57.08 16.33-78.027 35.648-15.174 13.993-16.729 18.573-11.389 33.531 1.3523 3.7877 3.85 10.894 5.5505 15.793 1.7003 4.8984 4.4333 12.281 6.0733 16.406 1.6399 4.125 3.7346 10.059 4.6547 13.186 0.9202 3.1274 2.5669 7.4384 3.6594 9.5799 1.0926 2.1415 2.5891 6.3326 3.3258 9.3137 1.2813 5.1851 6.6121 20.562 10.726 30.94 12.377 31.222 0.9444 67.758-24.261 77.532-9.607 3.7256-9.7266 6.2771-0.88163 18.822 14.847 21.059 15.967 26.216 8.4489 38.921-13.72 23.187-39.06 35.223-55.595 26.407-2.9541-1.5751-7.3838-3.1243-9.8438-3.4426-2.46-0.31837-7.2149-1.6138-10.566-2.8788-5.6162-2.1197-14.125-3.7843-38.906-7.6112-25.099-3.876-50.961-1.994-54.451 3.9625-2.5142 4.2902-7.2193 8.8563-9.1362 8.8664-0.60497 0.003-2.3656 0.68511-3.9124 1.5154-28.069 15.066-32.029 16.389-43.125 14.403zm193.6-26.299c16.964-8.8254 26.404-25.206 20.806-36.101-12.624-24.568-39.212-25.756-53.163-2.375-9.6653 16.198-11.966 29.033-5.8905 32.855 12.88 8.1018 28.941 10.462 38.247 5.6206zm382.86-394.23c6.0799-6.0799-7.9756-9.6731-38.136-9.749-18.133-0.04567-14.777 4.9045 5.3907 7.952 5.6718 0.85706 12.211 1.8939 14.531 2.304 7.692 1.3597 16.595 1.1118 18.214-0.50696zm-644.69 368.89c-5.817-1.3699-16.759-7.9408-21.769-13.072-5.6591-5.797-8.6135-7.4595-13.313-7.4912-1.9592-0.0132-7.1481-0.84616-11.531-1.8509-6.5927-1.5114-11.564-1.831-28.79-1.8509-11.452-0.0132-23.897-0.42924-27.656-0.92445-11.313-1.4902-23.914-2.9282-37.773-4.3104-33.749-3.3661-41.414-4.1812-43.594-4.6355-1.2891-0.26871-6.5917-0.88818-11.784-1.3766-5.1919-0.48842-12.937-1.9928-17.212-3.3432-6.9818-2.2056-16.275-3.9555-37.489-7.0597-3.8239-0.55955-10.066-2.2542-13.872-3.7659-3.8054-1.5117-10.802-3.4104-15.547-4.2193-10.28-1.7522-13.274-3.3749-24.569-13.313-17.401-15.311-23.098-18.589-57.184-32.902l-10.312-4.3301h-12.188c-6.7031 0-15.352 0.5081-19.219 1.1291-3.8672 0.62101-13.992 2.0189-22.5 3.1064-8.5078 1.0875-17.789 2.5605-20.625 3.2734-12.617 3.1715-52.395 8.2084-85.225 10.792-6.9127 0.54392-12.888 1.1863-13.278 1.4276-1.0048 0.62099-26.156 2.3186-41.184 2.7798-22.526 0.69124-49.19 2.5008-50.308 3.414-0.60877 0.49726-4.1255 0.65161-7.9688 0.34974-3.7835-0.29716-19.911 0.21873-35.838 1.1464-33.234 1.9357-37.263 1.2126-32.156-5.7714 1.2733-1.7414 89.022-7.5769 140.67-9.3549 7.8067-0.26875 19.256-1.137 25.444-1.9295 6.1875-0.79249 13.781-1.4543 16.875-1.4708 3.0938-0.0164 7.3125-0.44735 9.375-0.95764s8.2434-1.3182 13.735-1.7954c5.4919-0.47721 13.718-1.7702 18.281-2.8734 4.5628-1.1032 12.093-2.3596 16.733-2.7921 4.6406-0.43251 14.555-2.2551 22.031-4.0503 7.4766-1.7952 16.118-3.5603 19.204-3.9225 3.0855-0.36222 8.359-1.2584 11.719-1.9914 11.653-2.5424 38.992-2.8356 45.767-0.49075 3.1997 1.1073 7.0275 2.0133 8.5062 2.0133 4.1388 0 20.268 4.3332 26.146 7.0245 2.8933 1.3246 8.1336 3.0618 11.645 3.8605 8.9122 2.027 15.742 7.2344 22.758 17.352 10.275 14.817 13.968 16.884 43.16 24.156 48.522 12.087 87.241 18.8 119.53 20.723 8.0365 0.47874 19.14 1.8266 24.844 3.0156 10.85 2.2621 18.818 2.4315 83.149 1.7677 20.667-0.21325 20.42-0.27085 29.82 6.9727 11.869 9.1466 15.188 13.544 15.289 20.255 0.1116 7.3973-3.0489 9.349-11.802 7.2878z"/>
</svg>
