<?xml version="1.0" encoding="utf-8"?>

<!DOCTYPE svg PUBLIC "-//W3C//DTD SVG 1.1//EN" "http://www.w3.org/Graphics/SVG/1.1/DTD/svg11.dtd">
<svg version="1.1" id="Layer_1" xmlns="http://www.w3.org/2000/svg" xmlns:xlink="http://www.w3.org/1999/xlink" x="0px" y="0px"
	 viewBox="0 0 1212 704" enable-background="new 0 0 1212 704" xml:space="preserve">
<g>
	<linearGradient id="SVGID_1_" gradientUnits="userSpaceOnUse" x1="824.6517" y1="128.672" x2="980.6517" y2="48.672">
		<stop  offset="0" style="stop-color:#ACCB25"/>
		<stop  offset="1" style="stop-color:#BAE331"/>
	</linearGradient>
	<path fill="url(#SVGID_1_)" d="M929.9,34.4c7.8-0.8,13.1-7.5,19.9-10.8c0.6,1.4,1.2,2.8,1.8,4.2c4.4,1.6,8.6-1.4,13.1-0.9
		c1,3.9,5.6,3.4,8.8,3.2c0.2,4.5-2.8,8.5-2.1,13c4.3,0.4,8.6,0.1,12.8,1c0.1,2.3,0.1,4.7,0.1,7.1c3.4-0.3,6.9-0.8,10.1,0.8
		c-0.5,3-1.3,5.9-2.3,8.8c0.9,3.4,4.6,4.2,7.4,5.7c2.3,1.1,4.4,2.5,6.6,3.8c0,1,0.1,1.9,0.1,2.9c-2.1,2.6-4.7,4.7-6.4,7.6
		c0.5,1,1.3,1.8,2,2.7c5,0.2,10.1,0.1,15.1,0c0.1,0.4,0.4,1.1,0.5,1.5c-8.6,3.9-16.6,9.3-24.6,14.3c-0.4,0.1-1.3,0.2-1.7,0.2
		c-0.7-1.4-1.4-2.8-2.3-4c-2-0.9-4.1,0.5-5.9,1.5c-4.8,3.2-9,7.1-13.4,10.8c-2.6,2.1-4.3,5.1-5.7,8.1c-2.7,3-6.6,4.4-10,6.3
		c-1.3-0.6-2.6-1.2-3.9-1.8c0.7-0.6,1.5-1.2,2.3-1.9c-2.5-1.6-4-4.2-5.7-6.5c-18.1,5.3-35.7,12.1-54,16.6c-3.3,0.9-6.6,1.4-9.9,1.5
		c-8.7,0.5-17.2,3-25.9,3.2c-9.1-0.2-16.4-6.2-23.8-10.8c-2.2-1.5-5-1.3-7.6-1.5c0.6-1.7,1.3-3.3,1.9-5c2.3-2.4,4.8-4.7,7.2-7.2
		c8.9-9.8,19.6-18.6,32.3-23c10.3-4,20.8-7.6,30.9-12.2c5.1-2.4,11.1-2.9,15.4-6.9c-0.1-0.7-0.4-2.1-0.5-2.8c-1.2,0-2.4,0.1-3.5,0.1
		c0-2.6-0.5-5.2-0.9-7.8c-1.1,1.1-2.3,2.2-3.4,3.3c-0.2-2-0.6-4-0.9-6c-1-2.2-2.5-4.2-3.8-6.3c-2.7-0.2-5.3-0.4-8-0.6
		c0.2-0.3,0.5-1,0.7-1.3c0.5,0,1.7-0.1,2.2-0.1c4.6-6.3,8.1-13.4,13.4-19.2c0.5,0,1.5-0.1,2-0.1c0,1.9,0.1,3.7,0.7,5.5
		c1.3-0.1,2.5-0.1,3.8-0.3c0.9-1.5,4.1-2.6,5-0.6c0.4,2.3,0.5,4.7,0.6,7c0.2-0.3,0.6-1,0.8-1.3c3.8-2.1,6.8-5.3,10.6-7.3
		C930.8,30.7,930.8,32.8,929.9,34.4 M915.2,70.2c-15.3,6.7-31.5,11.3-46.7,18.2c-10.6,4-21.4,9.3-28.4,18.5
		c3.5,2.1,7.4-0.9,10.9-1.8c15.7-7.3,32.8-11,50-12.9c7.4-1,15,1.9,22.2-0.8c2.8-1,7.3-1.2,7.5-5.1c-4.1,0.5-6.5-3.2-8.5-6.1
		c-1,1.7-2.3,0.5-3.5-0.1c0.8-0.7,1.6-1.3,2.4-2c-0.3-0.4-0.9-1.1-1.2-1.4c0.3-1.7,2.6-3.8,0.7-5.2c-2.2,1.5-1.9,5.7-4.7,6
		c-1.3-3.8,1.9-6.8,4.6-8.9C918.7,69.1,916.9,69.4,915.2,70.2 M918.6,96.5c-6.1,0.3-12.3,0.3-18.3-0.5c-5.1-0.6-10.1,0.9-15,2.1
		c-15.8,4.7-31.1,11.9-47.7,13.6c-1.3,0.2-2.7,0.3-3.6,1.4c3.1,8.3,11.3,13.4,19.7,15c8.9,0.7,17.9,0.4,26.7-1.5
		c5.3,0.8,10-2.3,15.1-3c9.6-1.8,18.8-5.2,28.2-7.6c5.2-1.2,9.7-4,14.8-5.6c1.5-0.4,3.7-1.8,3-3.7c-2.2-1.4-3.8-3.4-4.7-5.9
		c-1.6,0.3-3.1,0.4-4.7,0c1.1-0.6,2.2-1.3,3.3-1.9c-1.3-0.7-2.6-1.4-3.8-2.2c1.5-0.3,2.9-0.9,4.1-1.8
		C930,94.2,924.3,96.3,918.6,96.5z"/>
	<path fill="#A9CE30" stroke="#A9CE30" stroke-width="0.2" d="M815.2,72.4c5.7-2.9,11.4-5.7,17.5-7.6c-0.9,1.4-1.9,2.8-3.3,3.7
		c-5.2,3.5-10.1,7.4-15.4,10.6c-6.2,4-12.4,8.3-19.5,10.3c-18.1,4.8-36.5,8.4-54.8,12.4c-5.2,0.5-10.1,2.4-15.1,3.8
		c-12.7,3.7-25.5,7.3-37.8,12.2c-3,1.2-5.9,2.8-8.9,4.1c-0.7,0-2-0.1-2.7-0.1c1.3-1,2.5-2,3.8-2.9c13.1-6.4,25.9-14.1,40.2-17.7
		c7.7-1.4,15.6-1.4,23.3-2.9c18.1-3.3,36.4-7.1,53.4-14.4C803,81.4,808.5,75.8,815.2,72.4z"/>
	<path fill="#B9AF4E" stroke="#B9AF4E" stroke-width="0.2" d="M982.9,97c1.7-1,3.8-2.4,5.9-1.5c0.9,1.2,1.6,2.7,2.3,4
		c1.3,6.4,3.3,12.7,3.2,19.2c0,8.6-0.5,17.2-2.5,25.6c-0.5-0.1-1.6-0.3-2.2-0.4c-5.2,6.9-11.2,13.3-14.8,21.2
		c-0.5-2.5-1.7-4.7-3.3-6.7c0.8-1.4,1.5-2.8,2.2-4.2c-3.9-1.4-7.9-2.9-12.1-2.4c-2.6,0.4-5.2,0.7-7.8,0.2c0-0.6-0.1-1.9-0.1-2.6
		c4-11,7.6-22.2,10.1-33.6c1.3-3.1,3-6,5.7-8.1C973.9,104.1,978.2,100.2,982.9,97z"/>
	<path fill="#91A237" stroke="#91A237" stroke-width="0.2" d="M828.3,108.7c2-1.2,3.2-3.4,5-4.9c0.3,1.7,0.6,3.3,1,5
		c-2.3,2.5-4.8,4.8-7.2,7.2c0.3-2,0.5-4,0.9-6C828.1,109.7,828.2,109,828.3,108.7z"/>
	<path fill="#C3814A" stroke="#C3814A" stroke-width="0.2" d="M814.6,141.8c2.1-11.3,5.8-23,13.5-31.8c-0.4,2-0.6,4-0.9,6
		c-0.6,1.7-1.3,3.3-1.9,5c-1.2,3.6-1.3,7.3-1.1,11c0.3,7.8-2,15.6-0.3,23.4c-0.8,1.2-1.6,2.4-2.4,3.6c0.1,0.5,0.2,0.9,0.3,1.4
		c-1,1.1-2,2.1-3,3.2c-0.9-2.9-1.3-5.8-1.7-8.8C816.2,150.5,813.3,146.4,814.6,141.8z"/>
	<g>
		<path fill="#AFCE27" stroke="#AFCE27" stroke-width="0.2" d="M866.6,85.8c10.3-4,20.8-7.6,30.9-12.2c5.1-2.4,11.1-2.9,15.4-6.9
			c-0.1-0.7-0.4-2.1-0.5-2.8c-1.2,0.1-2.4,0.1-3.5,0.1c0-2.6-0.5-5.2-0.9-7.8c-1.1,1.1-2.3,2.2-3.4,3.3c-0.2-2-0.6-4-0.9-6
			c-1-2.2-2.5-4.2-3.8-6.3c-2.7-0.2-5.3-0.4-8-0.7c0.2-0.3,0.5-1,0.7-1.3c0.3-1.2,0.5-2.4,0.5-3.6c-0.7,0.1-2,0.3-2.7,0.4
			c-0.8,1.3-1.6,2.7-2.6,3.9c-6,6.7-11.5,13.9-17.4,20.7c-5.4,5.5-11.4,10.4-17.1,15.6c-7.3,6.5-14,13.7-20.1,21.4
			c0.3,1.7,0.6,3.3,1,5C843.2,99,853.9,90.2,866.6,85.8z"/>
		<path fill="#AFCE27" stroke="#AFCE27" stroke-width="0.2" d="M840.1,107c3.5,2.1,7.4-0.9,10.9-1.8c15.7-7.3,32.8-11,50-12.9
			c7.4-1,15,1.9,22.2-0.8c2.8-1,7.3-1.2,7.5-5.1c-4.1,0.5-6.5-3.2-8.5-6.1c-1,1.7-2.3,0.5-3.6-0.1c0.8-0.6,1.6-1.3,2.4-2
			c-0.3-0.4-0.9-1.1-1.2-1.4c0.3-1.7,2.6-3.8,0.7-5.2c-2.2,1.5-1.9,5.7-4.7,6c-1.3-3.8,1.9-6.8,4.6-8.9c-1.8,0.4-3.6,0.7-5.3,1.5
			c-15.3,6.7-31.5,11.3-46.7,18.2C857.9,92.4,847.1,97.8,840.1,107z"/>
		<path fill="#AFCE27" stroke="#AFCE27" stroke-width="0.2" d="M923.7,116c5.2-1.2,9.7-4,14.8-5.6c1.5-0.4,3.7-1.8,3-3.6
			c-2.2-1.4-3.8-3.4-4.7-5.9c-1.6,0.3-3.1,0.4-4.7,0c1.1-0.6,2.2-1.3,3.3-1.8c-1.3-0.7-2.6-1.4-3.8-2.2c1.5-0.3,2.9-0.9,4.1-1.8
			c-5.8-0.9-11.5,1.3-17.2,1.5c-6.1,0.3-12.3,0.3-18.3-0.5c-5.1-0.6-10.1,0.9-15,2.1c-15.8,4.7-31.1,11.9-47.6,13.6
			c-1.3,0.1-2.7,0.3-3.6,1.4c1.7,0.1,3.8-0.5,5.2,0.9c5.7,4.6,12.5,7.5,19.4,9.8c9,3.2,18.3-1.5,27.4,0.4c-1.7,1.2-3.6,2-5.7,2.4
			c5.3,0.8,10-2.3,15.1-3C905.1,121.9,914.2,118.5,923.7,116z"/>
		<path fill="#AFCE27" stroke="#AFCE27" stroke-width="0.2" d="M949.9,120.3c0.7-0.6,1.5-1.2,2.3-1.9c-2.5-1.6-4-4.2-5.7-6.5
			c-18.1,5.3-35.7,12.1-54,16.6c4.3-0.9,8,1.7,11.3,4c2.8,2.2,6.5,1.4,9.7,1.1c10-2.5,20.1-4.5,30.1-6.7c3.6-1.2,6.8-3.3,10.2-4.8
			C952.5,121.5,951.2,120.9,949.9,120.3z"/>
	</g>
	<path fill="#8FA62F" stroke="#8FA62F" stroke-width="0.2" d="M834,113.2c1.7,0.1,3.8-0.5,5.2,0.9c5.7,4.6,12.5,7.5,19.4,9.8
		c9,3.2,18.3-1.5,27.5,0.4c-1.7,1.2-3.6,2-5.7,2.4c-8.7,1.9-17.8,2.2-26.7,1.5C845.3,126.6,837.1,121.5,834,113.2z"/>
	<linearGradient id="SVGID_2_" gradientUnits="userSpaceOnUse" x1="597.2552" y1="183.7773" x2="873.2552" y2="21.2773">
		<stop  offset="0" style="stop-color:#BFE835"/>
		<stop  offset="1" style="stop-color:#C9F852"/>
	</linearGradient>
	<path fill="url(#SVGID_2_)" stroke="#BFE835" stroke-width="0.2" d="M875.9,32.3c-2.3,1.5-5.4,1.4-7.2,3.6
		c-5.2,5.6-9.1,12.2-14.5,17.6c-1.4,0-2.8,0-4.2,0c-1.1-1.5-2.2-3-3.3-4.5c-4.7,1.8-7.4,6.4-10.2,10.3c-1.9-1.5-3-3.5-3.7-5.8
		c-3.9,3.6-6.5,8.4-10.3,12.2c-0.9-0.7-1.6-1.6-2.3-2.5c-0.4-1.8-0.9-3.6-1.3-5.4c-4.8,3.5-9.1,7.8-12.6,12.6
		c-1.3-3.1,1.4-6,1.3-9.1c-1,0.3-2,0.6-3,0.9c-4.4,3.8-9.6,6.7-13.3,11.2c-1.1-0.2-2.1-0.3-3.2-0.3c-0.6-4.8-0.5-9.6,0.2-14.3
		c-3.9,0.1-8,0.2-11.8,1.6c-1.5,1-3.3,1.2-5.1,0.9c-1.9-2-2.2-5.4-4.9-6.5c-4.4,5.6-9.3,10.7-14,16c-0.4,0.1-1,0.3-1.4,0.4
		c-0.6-2.6-0.8-5.3-1.6-7.8c-6,0-7.1,8.3-12.8,9.1c-0.1-3.3,0.3-6.6,1.2-9.8c-7.2,0.9-13.6,4.9-20.3,7.4c0,0.2,0.1,0.5,0.1,0.7
		c-2,0.4-4.1,0.9-5.3,2.8c-1.4-1.2-2.7-2.6-4-3.9c-6.6,5.6-13.2,11.1-18.8,17.7c-8.3,8.6-18.6,14.9-27.2,23c-1.5,1.7-4.6,2.5-4.7,5
		l-1.1-0.4c-2.8,3.5-6.5,6-9.7,9.1c-11.4,10.9-22.9,21.7-33.9,33c-6.4,7.5-14.1,14.2-18.4,23.2c-0.7,2-1,4.2-1.5,6.3
		c-0.1,0.3-0.3,1.1-0.3,1.4c3.1-4.1,4.3-9.4,8-13.1c13.7-14.7,27.4-30.8,46.4-38.7c9.4-4.6,18.6-9.5,27.8-14.6
		c1.3-1,2.5-1.9,3.8-2.9c13.1-6.4,25.9-14.1,40.2-17.7c7.7-1.4,15.6-1.4,23.3-2.9c18.1-3.3,36.4-7.1,53.4-14.4
		c7.1-2.7,12.6-8.2,19.3-11.7c5.7-2.9,11.4-5.7,17.5-7.5c-0.9,1.4-1.9,2.8-3.3,3.7c-5.1,3.5-10.1,7.4-15.4,10.6
		c-6.2,4-12.4,8.3-19.5,10.3c-18.1,4.8-36.5,8.4-54.8,12.4c-5.2,0.5-10.1,2.4-15.1,3.8c-12.7,3.7-25.5,7.3-37.8,12.2
		c-3,1.2-5.9,2.8-8.9,4.1c-7.4,3.7-14,8.8-21.1,12.9c-7.7,4.8-16.2,8.8-22.9,15.1c-7.5,6.8-15.1,13.6-21.9,21.1
		c-3.2,3.5-6.9,6.8-8.9,11.1c-1.1,2.3-2,4.7-3,7.1c0.7-0.3,1.4-0.7,2.1-1.1c9.1-8,18.7-15.6,29.1-21.9c17-9.6,36.3-14.1,55.4-16.9
		c11.6-2.2,23.4-3.2,35.1-3.6c3.9-0.2,7.8,0.3,11.5,1.6c-2.5,1.5-4.9,3.2-7,5.2c2.4,0,4.9-0.4,7.2-1c2.5-1.2,5-2.5,7.2-4.2
		c7.3-5.5,15.2-10.2,22.2-16.1l0.5,0.6c3-2.9,6.5-5.2,9.9-7.4c6.4-4.9,12.8-9.9,18.4-15.8c6.6-6.8,13.5-13.3,21.7-18.1
		c8.3-5.1,17.3-9.1,26.1-13.4c6.1-3.2,10.8-8.3,15.5-13.2c3.4-4.2,7.4-8,10.6-12.5c4.7-6.3,10.1-12.1,13.6-19.2
		C878.1,32.3,877,32.3,875.9,32.3z"/>
	<path fill="#90A630" stroke="#90A630" stroke-width="0.2" d="M824.2,132c-0.2-3.7-0.1-7.5,1.1-11c2.5,0.3,5.3,0.1,7.6,1.5
		c7.4,4.6,14.7,10.5,23.8,10.8c8.7-0.2,17.2-2.8,25.9-3.2c3.3-0.1,6.7-0.6,9.9-1.5c4.3-0.9,8,1.7,11.3,4c2.8,2.2,6.5,1.4,9.7,1.1
		c-3.2,0.9-6.5,1.6-9.8,2.3c-2.2-0.4-4.4-0.9-6.7-0.8c-15.9,0.7-31.5,4.6-47.5,5.2C841.2,137.3,833.4,131.6,824.2,132z"/>
	<path fill="#ACCB26" stroke="#ACCB26" stroke-width="0.2" d="M897,135.1c2.3-0.1,4.5,0.4,6.7,0.8c-9.5,2.2-18.8,5-28.2,7.5
		c-8.7,2.4-18,0.8-26-3.1C865.5,139.7,881.1,135.8,897,135.1z"/>
	<path fill="#9C9642" stroke="#9C9642" stroke-width="0.2" d="M989.6,143.9c0.5,0.1,1.6,0.3,2.2,0.4c-0.7,3.9-1.1,7.8-2.2,11.6
		l-0.2-0.9c-0.2-1.1-0.3-2.2-0.4-3.4c-1.5,1.7-3.1,3.3-4.4,5.1c-4.7,6.9-10.7,13.2-13.3,21.3c-0.5,0.7-0.9,1.3-1.4,2
		c0-0.5,0-1.6,0-2.1c-1.8,1-3.6,1.9-5.4,3c1.7-1.7,3.4-3.5,5.1-5.3c-0.9-0.8-1.7-1.7-2.5-2.5c2.2-3,5-5.5,7.8-7.9
		C978.4,157.2,984.4,150.8,989.6,143.9z"/>
	<path fill="#82813A" stroke="#82813A" stroke-width="0.2" d="M984.6,156.7c1.3-1.8,2.9-3.5,4.4-5.1c0.1,1.1,0.3,2.3,0.4,3.4
		c0,3.1-1.4,5.9-2.3,8.8c-1,4.2-4.4,7.1-7.4,10c-2.5,1.9-5,4.5-8.4,4.2C973.9,169.8,979.9,163.6,984.6,156.7z"/>
	<path fill="#B7743E" stroke="#B7743E" stroke-width="0.2" d="M821.5,159.1c0.8-1.2,1.6-2.4,2.4-3.6c0.5,6.2,2.4,12.1,3.3,18.1
		c-1.8,1.2-3.5,2.5-5.3,3.7l-0.5,0.4c-0.3-4.8-1.8-9.3-2.6-14c1-1.1,2-2.1,3-3.2C821.6,160,821.5,159.5,821.5,159.1z"/>
	<path fill="#E9F09C" stroke="#E9F09C" stroke-width="0.2" d="M918.7,159.3c1.7-0.2,3.7-0.8,5.2,0.3c0.3,1.6,0.3,3.3,0.4,4.9
		c-4.7,1.2-9.7,1.9-13.6,5c-1.4,1.3-2.7,2.7-3.9,4.1c0-0.7,0.1-2.1,0.1-2.8c-5.9,0.6-11.3,3.3-16.9,4.7c4.4-4.8,8.9-9.9,15.3-12
		C909.7,161.9,914.1,160.4,918.7,159.3z"/>
	<path fill="#9F602D" stroke="#9F602D" stroke-width="0.2" d="M486.1,162c0.7,0.1,2.1,0.4,2.8,0.6c2.7,2.5,6.3,4.6,7.3,8.4
		c2.1,7,2.7,14.4,5.2,21.4c2.5,6.9,4.5,14,6.1,21.2c-2.5,5.6-5.2,11.2-9.2,16c-0.8,0.7-1.6,1.1-2.5,1.7c0.9,0.5,1.8,1,2.6,1.6
		c-2.3,1.9-4.6,3.8-7,5.5c-0.3-4,0.3-8-0.4-12c-0.7-0.9-1.5-1.5-2.4-2.2c-1.7-1.4-4.4-2.4-4.2-5c-0.5-4.6-0.4-9.2-1.3-13.8
		c-0.6-5.8,0.5-11.6,0-17.4C482.3,179,486.1,170.7,486.1,162z"/>
	<path fill="#C5CF7D" stroke="#C5CF7D" stroke-width="0.2" d="M910.6,169.4c3.9-3.1,8.9-3.8,13.6-5c-1.3,2.3-2.7,4.9-5.4,5.7
		C916.1,171.5,913.3,170.3,910.6,169.4z"/>
	<path fill="#B2AB49" stroke="#B2AB49" stroke-width="0.2" d="M962.5,170.4c2-2,3.4-4.6,6-5.9c2.1,0.1,4.2,0.4,6.3,0.7
		c-2.8,2.4-5.6,4.9-7.8,7.9C965.5,172.2,963.9,171.4,962.5,170.4z"/>
	<path fill="#69452F" stroke="#69452F" stroke-width="0.2" d="M926.2,174.3c2.5-3.1,3.8-7.4,7.7-9.1c0.1,2.2,0.3,4.3,0,6.5
		c-2.9,7-8.8,12.2-12.7,18.5c-1.9,3-1.8,6.7-1.7,10.1c0.1,3.1,0.4,6.3,0.4,9.4c-0.8,2.1-1.8,4-2.8,6c-1.1-0.8-2-1.9-3.3-2.4
		c-1.5,0.2-3,0.7-4.4,1.1c-0.3,0.7-0.8,2.1-1,2.8c2.5,0.6,5,1.5,7.6,2c-5.4-0.3-11.1-0.7-16.4,0.8c-4.1,0-8.1,0.8-12.1,1.6
		c-1.6,0.5-3.3,0.7-5,0.9c-1.3,0.7-2.7,1.1-4.1,1.4c-4-1.3-8.1-2.7-12.4-3c1.4-3.8,4.5-6.7,8.5-7.6c-1-0.4-1.5-1.7-0.2-2.2
		c0.4,0.2,1.1,0.6,1.4,0.8c4.1-1.7,8.1-3.7,12.6-3.8c-0.5-0.2-1.4-0.5-1.9-0.6c0.8-0.1,2.3-0.3,3.1-0.4c6.9-3.1,14.5-5.9,19.3-12.2
		C914.7,188,920.6,181.3,926.2,174.3z"/>
	<path fill="#F8F1B7" stroke="#F8F1B7" stroke-width="0.2" d="M956.9,173.6c1.3-1.9,3.6-2.4,5.6-3.3c1.4,1.1,3,1.8,4.5,2.6
		c0.8,0.8,1.7,1.7,2.5,2.5c-1.7,1.8-3.4,3.6-5.1,5.3c-3.9,2.3-6.8,5.8-9.4,9.4c-2.4,3.6-7.2,1.6-10.7,1.7
		C950.6,187.4,953.3,180.1,956.9,173.6z"/>
	<path fill="#D9F84A" stroke="#D9F84A" stroke-width="0.2" d="M698.9,178.3c18.6-4.7,37.8-5,56.8-6.9c-5.2,1.7-10.7,2.3-16.1,3
		c-22.6,2.9-45,7.4-66.9,13.4c-9.8,3-19.8,5.4-29.2,9.4c-15.3,5.3-29.8,12.6-44.9,18.5c-3.6,1.4-7.1,2.9-10.6,4.3
		c-3.3-0.7-6.3-2.3-9-4.4c8.2-0.1,16.3-1.6,23.8-4.8c12-4.8,23.6-10.8,35.9-14.9C658.4,188.6,678.7,183.5,698.9,178.3z"/>
	<path fill="#BEC575" stroke="#BEC575" stroke-width="0.2" d="M890,175.5c5.7-1.4,11-4.1,16.9-4.7c0,0.7-0.1,2.1-0.1,2.8
		c-0.6,1.1-1.2,2.1-1.8,3.2c-7.3,2.4-14.5,5-22,6.8C885.3,180.9,887.6,178.1,890,175.5z"/>
	<path fill="#A86E16" stroke="#A86E16" stroke-width="0.2" d="M921.2,190.2c4-6.3,9.9-11.5,12.7-18.5c-0.4,3.7-2.1,8,0.3,11.4
		c2.1,1.9,4.5,3.5,6.3,5.6c-0.6,1.1-1.1,2.2-1.7,3.4c-0.5,0.4-1.6,1.2-2.2,1.6c0.7,0,2.1,0.1,2.8,0.1l0,0.9
		c-3.9-0.7-8.4-0.9-11.1,2.6c-3.2,0.2-6.1,1.6-8.9,3.1C919.4,196.9,919.4,193.2,921.2,190.2z"/>
	<path fill="#A35E2E" stroke="#A35E2E" stroke-width="0.2" d="M827.2,173.6c1.3,6.9,3.3,13.6,5,20.4c-1.7,0.7-3.4,1.4-5.1,2.2
		c-0.4-0.3-0.9-0.6-1.3-0.9c-0.1,4.6-0.6,9.1,0,13.7c0.3,3,1.1,6.1,0.3,9.1l-0.8,0c-1-13.6-1.1-27.3-3.4-40.8
		C823.7,176,825.4,174.8,827.2,173.6z"/>
	<path fill="#A3AA59" stroke="#A3AA59" stroke-width="0.2" d="M883,183.6c7.5-1.8,14.7-4.4,22-6.8c-2,3.5-3,7.5-4.8,11.2
		c-0.3-1.4-0.6-2.8-0.9-4.2c-7.5,1.8-14.9,4-21.9,7.1C879,188.2,881,185.9,883,183.6z"/>
	<path fill="#965423" stroke="#965423" stroke-width="0.2" d="M964.4,180.8c1.8-1,3.6-2,5.4-3c0,0.5,0,1.6,0,2.1
		c-1,1.7-2.4,3.1-3.5,4.7c-1.1,2-1.7,4.1-2.5,6.2c-1.1,2.3-2.6,4.5-3.1,7.1c0-0.4-0.1-1.3-0.2-1.7c0-0.4-0.1-1.1-0.2-1.4
		c-1.2,0.8-2.4,1.7-3.6,2.5c-0.8-0.4-1.5-0.8-2.3-1.2c-5.6,3.6-12.5,4-18,7.5c-3,1.9-7,1.7-9.6,4.3c-1.3-0.1-2.7-0.2-4-0.3
		c0.6,0.8,1.2,1.5,1.8,2.3c-1.2,0.1-1.8,0.8-1.8,2c-1-0.7-2-1.5-3-2.2c0-3.1-0.2-6.3-0.4-9.4c2.8-1.5,5.7-2.8,8.9-3.1
		c2.7-3.5,7.2-3.3,11.1-2.6l0-0.9c-0.7,0-2.1-0.1-2.8-0.1c0.5-0.4,1.6-1.2,2.2-1.6c0.1,0.3,0.3,0.8,0.5,1.1c1.6-0.4,3.3-0.9,5-1.2
		c3.5,0,8.3,1.9,10.7-1.7C957.7,186.6,960.5,183.1,964.4,180.8z"/>
	<path fill="#919845" stroke="#919845" stroke-width="0.2" d="M877.4,190.8c7-3.1,14.4-5.3,21.9-7.1c0.3,1.4,0.6,2.8,0.9,4.2
		c-0.2,0.4-0.5,1.1-0.7,1.5c-8.4-1.2-15.7,4.3-23.3,7C876.3,194.5,876.7,192.6,877.4,190.8z"/>
	<path fill="#7A802F" stroke="#7A802F" stroke-width="0.2" d="M876.2,196.4c7.6-2.6,14.9-8.2,23.3-7c-1.6,3.1-2.6,6.6-4.9,9.3
		c-3.4,3.6-8.9,3.3-13,5.7c-2.8-1.2-5.6-3.4-8.8-2.9c1.1-0.6,2.2-1.2,3.4-1.7C876.2,198.7,876.2,197.5,876.2,196.4z"/>
	<path fill="#904B18" stroke="#904B18" stroke-width="0.2" d="M827.2,196.1c1.7-0.8,3.4-1.5,5.1-2.2c1.5,5.1,3,10.4,2.9,15.8
		c-0.2,4.5-2.6,8.6-5,12.2c-0.5,0.4-1.5,1.2-1.9,1.6l-0.5,0.2c-1.3,0.6-2.5,1.1-3.8,1.7c0-0.5,0.1-1.5,0.2-2
		c0.3-1.2,0.8-2.4,1.3-3.6c0.2-0.5,0.7-1.5,0.9-2c0.8-3,0-6.1-0.3-9.1c-0.6-4.5-0.1-9.1,0-13.7C826.3,195.5,826.7,195.8,827.2,196.1
		z"/>
	<path fill="#853C2D" stroke="#853C2D" stroke-width="0.2" d="M956.8,197.3c1.2-0.8,2.4-1.7,3.6-2.5c0,0.4,0.1,1.1,0.2,1.4
		c-1,4-3.9,7.2-7.3,9.3c-0.1,0.2-0.2,0.6-0.3,0.8c-0.3,0-1-0.1-1.4-0.1c-1.8,1.4-3.9,2-6.1,2.4c-6.6,1.2-13.3,2.6-20,2.3l-0.8-1
		c-0.6-0.8-1.2-1.5-1.8-2.3c1.3,0.1,2.6,0.2,4,0.3c2.6-2.6,6.6-2.4,9.6-4.3c5.6-3.6,12.5-4,18-7.5
		C955.2,196.5,956,196.9,956.8,197.3z"/>
	<path fill="#BC7941" stroke="#BC7941" stroke-width="0.2" d="M526,198.4l0.1,0c7.1-0.8,14.2,0.6,20.6,3.7c6.5,2.7,13,5.5,19.2,8.9
		c1.5,2,2.5,5.7,0,7.2c-5.9-3.7-12-7.2-18.4-10c-4.2-0.5-8.9-3.5-12.9-1.4c-4.5,2.8-7.9,7-9.8,11.9c0.9,0.7,1.8,1.4,2.7,2.1
		c-3,6.3-7.8,11.7-9.7,18.4c1.7-1.1,3.5-2.1,5.6-1.9c-1.6,2.2-3.4,4.2-5.3,6.1c-2.5,2.2-4.6,5.7-8.3,5.8c-4.5,0.2-9.1,1.1-12.4,4.4
		l-0.4,0.4c-1.9,0.6-3.8,1.2-5.6,1.7c0-2.1,0-4.2,0.1-6.4c2-0.7,3.6-2,5-3.6c0.8-0.2,1.6-0.4,2.4-0.7c1.1-4.6,4.3-8.2,5.7-12.6
		c0.5-2,3-1.9,4.6-2.4c1.3-2.2,2.6-4.4,3.3-6.8c-0.3-0.6-0.9-1.8-1.2-2.4c1.4-4.7,4.9-8.3,6.9-12.7C519.6,204,522.9,201.2,526,198.4
		z"/>
	<path fill="#A26130" stroke="#A26130" stroke-width="0.2" d="M866.2,205.5c2.2-1.4,4.4-2.8,6.7-4c3.2-0.5,6,1.7,8.8,2.9
		c-2.3,2.3-4.7,4.6-7.2,6.7c-1.3,0.5-0.9,1.8,0.2,2.2c-4,0.9-7.1,3.8-8.5,7.6c-8.5,1.5-17.1,2.6-25.6,4.6c-1.5,0.2-2.7,1.2-3.6,2.4
		c-2.8-2.1-6-3.3-9.4-4l0.5-0.2c2.5,0.2,5.1,0.9,7.6,0c5.4-2,11.4-2.3,16.5-5.3C857.7,215.1,860.8,209,866.2,205.5z"/>
	<path fill="#929131" stroke="#929131" stroke-width="0.2" d="M583.7,209.8c6.9-2,13.5-7.2,21-5.1c-0.3,2.1-0.8,4.1-1.8,6
		c-7.5,3.2-15.6,4.7-23.8,4.8c-3.5-0.3-6.3-2.6-9.7-3.4c0.8,3,1.2,6.8,4.2,8.4c3.1,1.6,6.5,2.7,9.8,3.9c1.1,2,2.5,3.8,3.9,5.4
		c2.7,3.4,4.2,7.4,5.9,11.3c-4.6,3.1-10.4,3.8-15.3,6.6c-1.1-3.1-1.3-6.9-4.2-9c0.3-1.6,0.5-3.2-0.2-4.7c-2.1-5.5-4.2-11.1-7.6-15.9
		c2.5-1.6,1.6-5.2,0-7.2c1.6-0.7,3.2-1.6,4.6-2.6C574.7,209.9,579.3,211.4,583.7,209.8z"/>
	<path fill="#84382D" stroke="#84382D" stroke-width="0.2" d="M919.9,209.7c1,0.7,2,1.4,3,2.2c0.2,0.2,0.7,0.5,0.9,0.6
		c0.7,2,1.2,4.1,1.5,6.3l0.6,0.8c0.3,3.1,0.3,6.2,0.1,9.3c-1.1,0.6-2.2,1-3.4,1.2c-1-0.4-2-0.8-3-1.2c-0.8-1-1.5-2-2.2-3.1
		c-0.3-2.2-0.4-4.6-1.4-6.6c-2.6-0.5-5.1-1.4-7.6-2c0.3-0.7,0.8-2.1,1-2.8c1.5-0.4,2.9-1,4.4-1.1c1.3,0.5,2.2,1.6,3.3,2.4
		C918.1,213.8,919.1,211.8,919.9,209.7z"/>
	<path fill="#D8E953" stroke="#D8E953" stroke-width="0.2" d="M569.4,212.1c3.4,0.8,6.2,3.1,9.7,3.4c2.6,2.2,5.6,3.7,9,4.4
		c0,0.4,0,1.3,0,1.7c6.4,3.6,13,6.7,19.6,10c1.7,0.9,3.5,1.5,5.4,1.8c1.1,0.8,2.1,1.6,3.3,2.4c8.3,4.6,17.1,8.2,25.5,12.6
		c8.8,4.6,17.9,8.4,26.4,13.6c1.5,0.9,3.3,1.4,4.9,2c1.4,0.6,2.7,1.3,3.8,2.3c3.2,3.3,7.6,5.1,11.3,7.7
		c15.6,10.3,31.5,20.2,46.4,31.5c1.8,1.3,3.6,2.9,6,2.9c2.8-0.2,5.5-0.4,8.3-0.3l1.1,1.2c-2.6,0.3-5.2,0.9-7.8,1.4
		c8.8,9.3,19.8,15.8,30,23.4c10.5,8.1,21.3,15.9,31.6,24.3c1.7,1.3,3.2,2.8,5.1,3.8c3.8,0.5,7.6-0.5,11.5-0.3
		c7.8-0.3,15.3,2.6,22.8,4.2c8.5,2.3,17.1,4.9,25.2,8.6c-10.4-0.8-19.9-6-30.1-7.9c-8.2-2.1-17-4.4-25.2-1.4
		c5.9,6,12.6,11.2,18.8,17c8,7.6,16.3,14.9,24.1,22.8c7.6,7.7,15.9,14.6,24,21.8c0.1,0.4,0.3,1.1,0.4,1.4
		c-6.7-6.5-14.1-12.1-20.8-18.7c-9.3-8.4-18.2-17.1-27.6-25.5c-6.1-4.9-12-10-18-15c-16.3-12.7-32.8-25.4-49.4-37.7
		c-4.7-3.6-9.7-6.8-14.7-10c-7.7-4.8-14.2-11.3-21.2-17.1c-5.8-5.2-12.6-8.8-19.1-12.9c-16.8-10.3-33.9-20-51-29.8
		c-20.7-11.4-42.2-21.4-63.1-32.4c-3.8-2.4-8-3.8-12.2-5c-3.3-1.2-6.7-2.3-9.8-3.9C570.5,218.9,570.1,215.1,569.4,212.1z"/>
	<path fill="#B1713A" stroke="#B1713A" stroke-width="0.2" d="M507.4,213.5c1.2,4.7,0.8,9.6,0.6,14.4c1.1-2.4,2.1-4.8,3-7.3
		c0.3,0.6,0.9,1.8,1.2,2.4c-0.8,2.4-2,4.7-3.3,6.8c-1.6,0.6-4.1,0.4-4.6,2.4c-1.5,4.4-4.7,8.1-5.7,12.6c-0.8,0.2-1.6,0.4-2.4,0.7
		c-1.4,1.6-3,2.9-5,3.6l0-1.5c0.1-3.2,0.2-6.4,0.1-9.6c2.4-1.7,4.8-3.5,7-5.5c-0.9-0.5-1.8-1-2.6-1.6c0.8-0.5,1.7-1,2.5-1.7
		C502.2,224.7,504.9,219.1,507.4,213.5z"/>
	<path fill="#929132" stroke="#929132" stroke-width="0.2" d="M629.7,215.3c4.4-0.4,8.9-1.7,13.4-0.4c1.8,0.6,4.5,0.6,5.1,2.9
		c0,1.4-0.8,2.8-1.9,3.6c-5.8,4.2-13.5,4.7-19,9.3c-4.8,0.8-9.5,1.8-14.2,2.9c-1.9-0.4-3.7-1-5.4-1.8c-6.5-3.3-13.2-6.4-19.6-10
		c0-0.4,0-1.3,0-1.7c3.5-1.4,7.1-2.9,10.6-4.3c4.7-0.3,9.3,0.5,14,0.7C618.3,216.7,624,215.8,629.7,215.3z"/>
	<path fill="#DAF64B" stroke="#DAF64B" stroke-width="0.2" d="M693.6,222.2c9.3-1.3,18.6-0.8,28-1c15.2-0.1,30.4,0.2,45.5-0.1
		c5.5,0.3,11,0.1,16.5,0.9c11.1,1.1,22.4,0.4,33.2,3.3c0.2-0.4,0.6-1.1,0.8-1.4c0.3,0,0.9-0.1,1.2-0.2c0.1,1.4,0.8,2.5,1.9,3.3
		c-3.6,0.2-7.2-0.3-10.8-0.7c-18.8-1.3-37.6-2.4-56.4-2.8c-17.3,0.5-34.7,0.5-52,1.5c-24,0.3-47.5,5.5-71.3,8.5
		c-4.7,0.7-9.3,1.5-14,2.4c-1.1-0.8-2.2-1.6-3.3-2.4c4.7-1.2,9.4-2.2,14.2-2.9C649.3,227.3,671.2,222.6,693.6,222.2z"/>
	<path fill="#AD6B3F" stroke="#AD6B3F" stroke-width="0.2" d="M840.5,225.5c8.4-1.9,17-3.1,25.6-4.6c4.3,0.3,8.3,1.7,12.4,3
		c6.4,3.5,12.9,6.9,19.2,10.6c3.6,2.8,7.6,5,11.5,7.4c3.6,3,8.1,4.8,11.6,8c-1.6,1.8-3.1,3.7-4.7,5.5c-1.7-0.2-2.9-1.7-4.3-2.6
		c-11.7-8-23.5-16.7-37.5-20.1c-3.3-0.8-6.5-1.5-9.8-2.3c-0.9,0.3-1.7,0.7-2.5,1c-6.6-3.5-14.4-3-21.7-3.2c-0.9-0.1-2.6-0.3-3.4-0.3
		C837.9,226.7,839,225.7,840.5,225.5z"/>
	<path fill="#A9BA2F" stroke="#A9BA2F" stroke-width="0.2" d="M583.3,224.4c4.2,1.2,8.5,2.6,12.2,5c-0.3,0.5-0.9,1.6-1.2,2.1
		c-2.4-1.2-4.8-2.3-7.2-3.3l0.1,1.7C585.8,228.2,584.4,226.4,583.3,224.4z"/>
	<path fill="#A3602D" stroke="#A3602D" stroke-width="0.2" d="M840.4,228.2c7.3,0.2,15-0.3,21.7,3.2c-1.6,2.9-4.4,4.7-6.9,6.6
		c-7.1,5.4-16.6,3.1-24.9,3.2l-1.2-0.4c-2.3-0.6-4.6-1-6.8-1.8c6-5.8,15-3.9,21.8-8C842.8,230,841.6,229.1,840.4,228.2z"/>
	<path fill="#D9F749" stroke="#D9F749" stroke-width="0.2" d="M587.2,228.2c2.5,1,4.9,2.1,7.2,3.3c1.3,3.8,2.7,7.6,4.2,11.4
		c4.1,10.6,9.2,21,11.7,32.2c-1.2-1.9-2.4-3.7-3.3-5.8c-4.5-9.5-9.8-18.5-13.9-28.1c-1.7-3.9-3.1-8-5.9-11.3L587.2,228.2z"/>
	<path fill="#CDE08C" stroke="#CDE08C" stroke-width="0.2" d="M481.1,230.4c0.3-0.2,0.9-0.5,1.1-0.6c-0.3,2.2-0.5,4.3-1.2,6.4
		c-2.2,2.6-5.2,4.1-8.2,5.7c2-2.6,4.5-4.7,7.3-6.5C480.4,233.7,480.7,232.1,481.1,230.4z"/>
	<path fill="#919130" stroke="#919130" stroke-width="0.2" d="M594.4,231.5c0.3-0.5,0.9-1.6,1.2-2.1c20.9,11,42.4,21,63.1,32.4
		c17.1,9.8,34.2,19.5,51,29.8c6.5,4.1,13.3,7.8,19.1,12.9c7,5.8,13.5,12.2,21.2,17.1c-0.5,0.4-1.4,1.3-1.9,1.7
		c-3.9-2.1-7.6-4.5-11.3-6.9c-4.7-3.2-10-5.2-14.8-8.3c-8-4.5-15.4-9.9-23.3-14.7c-3.7-2.1-7.2-4.4-10.7-6.8c-1.3-2.9-1.9-6.1-4-8.5
		c-0.1,0.6-0.2,1.7-0.2,2.3c-0.1,0.8-0.2,2.5-0.3,3.3c-8.6-5-16.6-11-25.6-15.4c-7.6-4-14.9-9-23.1-11.6c-2.1-3.2-3.4-7.7-7.5-8.8
		c0.3,0.7,0.9,2.2,1.2,2.9c0,0.5,0,1.4,0.1,1.9c-5.5-2.4-10.7-5.5-16.4-7.6c-4.4-1.6-9.1-1.8-13.6-2.2
		C597.1,239.1,595.7,235.3,594.4,231.5z"/>
	<path fill="#929132" stroke="#929132" stroke-width="0.2" d="M616.3,235.9c4.6-0.9,9.3-1.7,14-2.4c5.1-0.4,10.3,0.2,14.8,2.8
		c10.9,5.1,20.2,12.8,30,19.7c2,1.5,3.9,3.2,5.8,4.9c-1.4,0.5-2.9,0.9-4.3,1.4c0.3,0.1,1,0.4,1.3,0.5c-1.6,0.4-3.1,0.8-4.7,1.2
		c-1.7-0.6-3.4-1.1-4.9-2c-8.5-5.1-17.6-9-26.4-13.6C633.4,244.1,624.6,240.5,616.3,235.9z"/>
	<linearGradient id="SVGID_3_" gradientUnits="userSpaceOnUse" x1="427.615" y1="174.935" x2="677.885" y2="174.935">
		<stop  offset="0" style="stop-color:#C8F84C"/>
		<stop  offset="0.2571" style="stop-color:#B3D93E"/>
		<stop  offset="0.558" style="stop-color:#9EBB30"/>
		<stop  offset="0.8162" style="stop-color:#91A928"/>
		<stop  offset="1" style="stop-color:#8DA225"/>
	</linearGradient>
	<path fill="url(#SVGID_3_)" stroke="#B4DB42" stroke-width="0.2" d="M677.9,122c-7.4,3.7-14,8.8-21.1,12.9
		c-7.7,4.8-16.2,8.8-22.9,15.1c-7.5,6.8-15.1,13.6-21.9,21.1c-3.2,3.5-6.9,6.8-8.9,11.1c-1.1,2.3-2,4.7-3,7.1
		c-1.3,1.7-2.6,3.3-4.3,4.5c-7.4,5.5-15,11-24,13.9c-4.2-2.3-8.8-4-13.1-6.1c-3.5-1.9-7.2-3.4-10.9-4.6c-7.3-1.7-14.6-0.3-21.7,1.3
		l-0.1,0c-3,2.8-6.3,5.6-8.1,9.5c-1.9,4.4-5.4,8-6.9,12.7c-0.9,2.5-1.9,4.9-3,7.3c0.2-4.8,0.6-9.7-0.6-14.4
		c-1.5-7.2-3.5-14.3-6.1-21.2c-2.5-6.9-3.2-14.3-5.2-21.4c-1-3.8-4.6-5.9-7.3-8.4c-0.7-0.1-2.1-0.4-2.8-0.6c0.1,8.7-3.8,17-3,25.8
		c0.4,5.8-0.6,11.6,0,17.5c0.8,4.5,0.8,9.2,1.3,13.8c-0.1,2.6,2.6,3.6,4.2,5c-1.6,2.4-3.5,4.8-6.3,5.9c-0.3,0.2-0.8,0.5-1.1,0.6
		c-0.4,1.6-0.7,3.3-1,4.9c-2.8,1.8-5.3,3.9-7.3,6.5c-7.4,4.4-14.9,10-23.9,9.9c-3.6-2.4-7.6-3.9-11.2-6.3c0.3-1.8,0.2-3.5-0.1-5.3
		c-3,0.1-6-0.1-8.9-0.8c0.1-0.9,0.3-1.9,0.4-2.8c1.8-1,3.3-2.5,4.4-4.2c-1.7-0.5-3.4-1-5.1-1.5c1.3-1.5,2.8-2.8,4.4-3.9
		c0-0.8,0.1-1.7,0.1-2.5c-1.8-0.5-3.6-0.9-5.5-1.3c5.1-3.9,9.5-8.7,14.1-13.2c4.2-4,7.8-9.3,8.1-15.3c0.9-9.1,4.8-17.7,10.9-24.5
		c2.4-5,3.1-11,7.4-14.9l1.4,0.4l-0.8-0.8c6.1-4.6,11.8-9.9,18.5-13.5c0-0.2,0.1-0.6,0.1-0.7c7.4-4.5,14.1-10,21-15.2l0.9,0.2l0-1
		c4.7-3.1,9.2-6.5,14.1-9.3c3.2-3.6,7-6.8,8.7-11.4c2.3-0.1,4.7,0.3,6.6,1.8l-0.6-0.8c2.2-2.9,4.3-5.9,6.4-8.8
		c1.3,0.8,2.6,1.5,3.9,2.4c-0.2,2.4-0.4,4.9-0.5,7.3c4.5-0.9,9.9-2.3,12.1-6.8c1.2-2.3,3.7-3.4,5.8-4.8c0.7,0,2,0,2.7,0
		c-1.5,2.5-2.7,5.2-3.5,8.1c2-0.3,4-0.7,6-1.1c1.1-0.9,2.4-1.7,3.6-2.4c0.7-1.1,1.3-2.2,1.9-3.3c0.5-0.1,1.5-0.3,2.1-0.4
		c0.8,2.5,0.3,5.2-0.1,7.7c0.8-0.6,1.7-1.1,2.5-1.7c0.7-1.5,2.1-1.9,3.6-2.2c0,2.7-0.1,5.5-0.1,8.2c2.1-0.7,4-1.8,5.7-3.2
		c0.3,2.4,0.2,5,1.6,7c2.1,1.7,4.7,2.6,7.1,3.8c0.1,0.3,0.4,1,0.5,1.3c-4.6,0.2-7.1,4.2-9.6,7.4c1.8,0,3.7,0,5.5,0
		c0.1,1.2,0.1,2.4,0.2,3.6c-1.2,1.2-2.3,2.6-3.1,4.1c2.3-0.1,4.4-1.4,6.6-2c-0.9,1.9-1.6,3.9-1.9,6c0.7,0.1,2.2,0.4,2.9,0.5
		c-0.6,1.1-1.1,2.2-1.5,3.3c0.4,0.5,1.1,1.5,1.5,2c2,0.9,3.9,2,5.7,3.1c-0.1,0.5-0.3,1.4-0.4,1.8c-3.8,1.1-7.8,2-10.9,4.6
		c-1.8,2.9-3,6.1-4,9.3c-0.8,2.1,2,2,3.1,2.8c-0.1,1.9-0.5,3.8-1.1,5.6c0.6,0.1,1.9,0.3,2.5,0.4c0.1,0.8,0.2,1.6,0.3,2.4
		c-1.1,2.1-2.4,4.2-4.1,5.9c-0.3,2.5,1.7,3.5,3.9,3.8c-0.7,2-1,4.2-1.5,6.3c-1,1.3-2.2,2.4-3.4,3.5c0,1.5,0.1,3,0.2,4.6
		c1.7-1.9,2.2-4.3,2.8-6.7c3.1-4.1,4.3-9.4,8-13.1c13.7-14.7,27.4-30.8,46.4-38.7c9.4-4.6,18.6-9.5,27.8-14.6
		C675.9,121.9,677.2,122,677.9,122z M565.8,218.2c-5.9-3.7-12-7.2-18.4-10c-4.2-0.5-8.9-3.5-12.9-1.4c-4.5,2.8-7.9,7-9.8,12
		c0.9,0.7,1.8,1.4,2.6,2c-3,6.3-7.8,11.7-9.7,18.4c1.7-1.1,3.5-2.1,5.6-1.9c-1.6,2.2-3.4,4.2-5.3,6.1c-2.5,2.2-4.6,5.7-8.3,5.8
		c-4.5,0.2-9.1,1.1-12.4,4.4c4.2,0.1,8.4,0.2,12.7,0.4c-0.3,0.5-1,1.3-1.4,1.8c2.5-0.2,5-0.2,7.5-0.2c-0.1-1.2-0.2-2.4-0.2-3.6
		c2.2-0.8,4.3-1.7,6.4-2.6c4.8-2.2,9.2-5.2,14.1-7.2c2.9-0.7,5.8-1,8.7-1.6c5.9-0.9,12.2-0.5,17.7-3.2c-1.9-2.4-4.1-4.6-5.1-7.5
		c6.2,1.2,10.7,6,16,8.9c0.3-1.6,0.4-3.2-0.2-4.7C571.3,228.6,569.2,223,565.8,218.2z"/>
	<path fill="#DBF74E" stroke="#DBF74E" stroke-width="0.2" d="M627.4,247.9c4.1,1.1,5.4,5.6,7.5,8.8c6.9,12.9,15.4,25,23.5,37.2
		c2.9,5,4.9,10.4,7.5,15.5c6.1,13.6,12.7,26.9,18,40.8c3,8,6.6,15.7,9.6,23.6c-4.8-9-9-18.2-13.4-27.3
		c-7.1-14.4-12.9-29.5-20.4-43.7c-9.6-17.7-20.4-34.8-31.1-51.9C628.3,250,627.7,248.6,627.4,247.9z"/>
	<path fill="#A15B32" stroke="#A15B32" stroke-width="0.2" d="M916.1,255.5c1.6-1.8,3.2-3.6,4.7-5.5c8,5.1,15.8,10.6,23.8,15.7
		c4.9,3.7,10.4,6.4,15.1,10.2c-3.3-0.8-6.4,0.3-8.7,2.6c0.4,1,0.7,2,1.1,3c-4.3-4.6-10.4-6.7-15.5-10.3
		c-7.3-4.8-13.8-10.7-21.1-15.5L916.1,255.5z"/>
	<path fill="#D7E2B8" stroke="#D7E2B8" stroke-width="0.2" d="M496.8,253.9l0.4-0.4c4.2,0.1,8.4,0.2,12.6,0.4
		c-0.3,0.4-1,1.3-1.4,1.8c-1.2,0.1-2.4,0.3-3.7,0.4c-3.4,0.2-6.9,0.2-10.3,0.3C495.3,255.6,496,254.7,496.8,253.9z"/>
	<path fill="#E1DBD8" stroke="#E1DBD8" stroke-width="0.2" d="M357.1,259.1c3.7-0.4,7.4-0.7,11.2-0.6c0.9,0.2,2.7,0.6,3.6,0.8
		C367,260,361.9,260.5,357.1,259.1z"/>
	<path fill="#DBF74C" stroke="#DBF74C" stroke-width="0.2" d="M677.9,262.9c14.8-3.3,30.1-1.4,45.1-1.7c11.4,1,22.8,1.4,34.1,2.8
		c15.2,1.3,30,4.8,44.9,7.6c10.8,2.4,21.5,5,32.3,7.7c6.1,1.8,12.7,3,17.7,7.4c-8.8-1.3-17.1-5-25.8-6.7
		c-23.2-5.8-46.6-11.1-70.5-13.3c-15.3-1.8-30.6-2.2-46-3.4c-8.8,0-17.5,0.9-26.2,2c-2.2,0.3-4.3,0.7-6.4,1.1
		c-1.1-1-2.4-1.8-3.8-2.3C674.7,263.7,676.3,263.3,677.9,262.9z"/>
	<path fill="#E0D9D6" stroke="#E0D9D6" stroke-width="0.2" d="M285.1,264c3.1-0.4,6.2-0.8,9.3-0.6c1.8,0.2,3.6,0.5,5.5,0.8
		C294.9,264.9,290,264.8,285.1,264z"/>
	<path fill="#909131" stroke="#909131" stroke-width="0.2" d="M677,266.4c2.1-0.4,4.2-0.8,6.4-1.1c2.3,0.3,5,0.1,6.9,1.7
		c2.8,2.3,5.5,4.6,8.6,6.5c4.6,2.9,8.6,6.7,13,9.9c8.3,5.1,15.3,12.1,23.1,17.9c2,1.7,3.9,3.4,6,5c-0.1,0.7-0.2,1.4-0.2,2.1
		c-2.4,0-4.2-1.6-6-2.9c-14.9-11.3-30.8-21.2-46.4-31.5C684.5,271.5,680.2,269.7,677,266.4z"/>
	<path fill="#839625" stroke="#839625" stroke-width="0.2" d="M969.4,272.5c3.9-2.5,8.1-6,13-5.2c2.6,1.5,5.7,2.1,8.7,1.8
		c-0.5,0.5-0.9,1.1-1.4,1.6c1.6,0.1,3.1,0.2,4.7,0.3c-1.5,0.6-3,1.2-4.5,1.9c2.1,0.9,4.2,2.2,6.5,2c7.5-0.3,14.7-4,22.3-2.8
		c-4.1,2.1-8.5,3.7-12.9,5c-3.8,1.1-7.8,1-11.4,2.7c-0.5,0.9-0.8,1.8-1.2,2.7c2.8-0.3,5.8-0.8,8.3,0.8c-2,0.4-4.1,0.6-6.1,0.9
		c4.4,1.3,8,4.3,11.3,7.3c2.6,2.6,6.4,2,9.7,2.1c10.3-0.3,20.7,0.4,31,1.5c9.4,1.3,18.6,3.1,27.9,4.8c8.2,1.8,16.7,2.2,24.5,5.3
		c4.8,2,9.9,3.7,13.8,7.4c-6.5-1.4-12.6-4-19.1-5.2c-8.5-1.8-17.3-2.7-25.9-3.9c-10.3-1.9-20.6-3.2-31-4c-6.7-1.1-13.5-0.6-20.3-0.4
		c-2.8,0-5.5,0.8-8.3,1.5c2.5,1.6,5.3,3.5,5.1,6.9c1.1,0.4,2.3,0.8,3.4,1.2c0.1,0.8,0.2,1.7,0.4,2.5c0.6,0.2,1.2,0.3,1.8,0.5
		c1,2.2,2.8,3.9,4.8,5.1c3.7,2.5,6.1,6.6,10.1,8.7c8.3,1.8,16.8,1.6,25.2,2.4c5.6,1.5,11.2,3.2,16.8,4.8c6.1,1.7,12,4.1,18.3,5.2
		c10,3.3,20.3,5.9,29.9,10.5c3.5,2,6.9,4.1,10.7,5.6c0.1,0.5,0.4,1.5,0.6,1.9c-8.5-5.3-18.3-7.9-27.7-11c-10.4-3.3-21-6-31.5-9.1
		c-7.6-2.9-15.7-4-23.6-5.4c-8-0.5-16-0.5-23.9,0c10.8,7.5,20.1,16.9,29.4,26.3c3.3,3.4,8.3,4.2,12.7,5.3
		c10.4,2.3,20.2,6.6,29.8,11.2c4.9,2.2,9.4,5.1,14.4,6.9c3,1.5,5.9,3.1,8.5,5.2c-0.4,0.3-1.3,1-1.8,1.3c-4.5-1-8.5-3.4-12.9-4.8
		c-5.6-1.9-11-4.2-16.4-6.5c-4.4-1.9-9.3-1.5-14-0.8c1.4,1.2,2.8,2.3,4.2,3.4c1.6-0.2,3.1-0.4,4.7-0.6c0.4,0.5,1.2,1.4,1.6,1.8
		c-1.5,0.6-3,1.1-4.4,1.7c1.8,0.5,3.6,1.2,5.4,1.8c1.7,4.1,5,7.1,8.6,9.6c2.6,1.6,3.5,4.7,4.6,7.3c0.9-0.5,1.8-1,2.7-1.4
		c1.6,1.8,3,3.7,4.3,5.6c1.1,1.9,3.5,2.3,4.9,3.8c1.3,1.8,2.1,3.9,3.5,5.6c2.2,1.2,5.6,0.5,6.8,3.1c1.4,2.3,3,4.4,4.9,6.2
		c2.8,2.8,3.7,7.5,7.7,9c2.1,1,5,0.8,6.2,3.1c1.3,2.3,1.7,5,2.3,7.6c2.3,0.2,4.3-0.7,5.6-2.7c2,1.6,4.2,2.9,6.3,4.4
		c0,1.3-0.1,2.5,0,3.8c-1.3,0.1-2.6,0.3-3.9,0.4c2.2,2,5.1,2.9,7.1,5.3c3,2.7,6.2,5.5,7.9,9.3c-3.3,0-6.7-0.1-10-0.2
		c1.4,2.3,4.1,4.2,4,7.1c-1.4,0-2.8,0-4.2,0.1c0,0.4,0.1,1.3,0.1,1.7c5.6,2,9.4,7,13.3,11.3c-0.1,1-0.1,2.1-0.2,3.2
		c-1.9,0-3.8,0-5.7,0c1.3,1.1,2.7,2.2,4.2,3c0.8,0.6,1.4,1.3,2,2.2c3.1,4.6,7.4,9.1,7.6,14.9c-2-0.4-4.1-0.6-5.9-1.8l-0.1-0.6
		c-0.2-2.1-1.2-4-2.9-5.1c-7.3-5.7-13.5-12.6-20.4-18.7c-9.4-8.9-15.6-20.4-23.5-30.6c-4.7-5.7-8.3-12.2-13-17.9
		c-7.9-9.2-15.1-18.9-23.1-28c-4.5-5-8.4-10.6-13.1-15.4c-4.8,8.6-0.7,18.5,0,27.6c-4.9-4.9-5.1-12.8-4-19.2
		c0.4-5.6,1.7-12.5-3-16.7c-9.1-8.9-17.7-18.4-26.8-27.2c-3.9-3.2-7.6-7.3-12.8-8.2c0,5.9,0.8,11.7,2.7,17.3
		c3.2,9.5,6.6,19.1,7.2,29.2c-2-4.2-2.4-8.9-4.1-13.2c-2.7-7.2-5.5-14.5-7-22.1c-1.1-5.1-1.3-10.8-5-14.9c-4.3-5-7.4-11.2-12.9-15.1
		c-5.9-4.3-11.8-8.4-18.2-11.9c0.9,6,3,11.7,4.6,17.5c2.8,8.9,4.7,18.1,6.1,27.3c1.4,8.8,3.3,17.5,5.5,26.1c0.7,2.4,0.8,4.8,0.6,7.3
		c-4.6-14-7.3-28.4-10.1-42.8c-2-7.6-3-15.5-6-22.8c-2.3-5.5-3.8-11.6-8.4-15.7c-4.4-3.9-8.7-8-13.6-11.3c-0.6,2.7-0.7,5.5-0.2,8.2
		c0.9,5.3,0.3,10.8,1.6,16.1c2.8,12,1.2,24.3,2.2,36.5c0,4.3,0.3,8.8-1.7,12.7c-1-3.3-1.6-6.6-1.7-10c-0.5-7.3-0.6-14.7-1.2-22
		c-1.4-8.4,0.3-16.9-1.5-25.3c-1.2-6.8-4-13.1-6.6-19.4c-1.6-4.7-6.7-6.4-10.3-9.3c0,1,0,2.1-0.1,3.1l-0.4,1c-0.7-2.8-1-5.8-2.1-8.5
		c-0.4-1-0.8-2-1.1-3c2.3-2.4,5.4-3.4,8.7-2.6c1.7,0.2,3.3,0.3,5,0.4C966.3,275,967.8,273.7,969.4,272.5z"/>
	<path fill="#64504E" stroke="#64504E" stroke-width="0.2" d="M581.7,261.3c-6.9,1.7-14.1,0.9-21.1,1.2c-4.7-0.1-9.4,0.2-14-0.9
		c-9.9-0.5-19.4-3.1-29.1-4.9c-4.2-0.9-8.4-0.1-12.6-0.5c-3.4,0.2-6.9,0.2-10.3,0.3c0.7-0.9,1.5-1.7,2.2-2.5
		c-1.9,0.6-3.8,1.2-5.6,1.7c0-2.1,0.1-4.2,0.1-6.4l0-1.5c0-0.4-0.1-1.2-0.1-1.5c-3.6-0.8-7.2-2.1-10.9-1.7c-5.1,2.1-9.3,6-14.8,7.2
		c-17.9,4.6-36.5,5.5-54.8,8c-11.6,1.1-23.2,3.4-34.9,2.3c2.2,0.3,4.4,0.5,6.6,0.9c-9.2,0.4-18.4,1.9-27.6,2.7
		c-5.1,0.6-10.3,1.5-15.2,3c-8.6,2.4-17.3-0.4-26-0.5c1.1-0.2,2.2-0.4,3.3-0.6c-14.1-3.3-28.4-0.3-42.7,0c3.1,0.5,6.2,0.4,9.4,0.4
		l0,0.6c-11.8-1.2-23.5,0.5-35.2,1.7l-0.6,0.1c-5.1,0-10,0.9-15.1,1.3c-6.4,0.7-12.9,1.6-19.3,2.8c-0.1,0.1-0.4,0.4-0.5,0.6
		c-17.2,3.2-34.7,4.3-52.2,5.1c-13.3,0.1-26.7,0.4-39.9-1.8c-7.9-0.4-15.8,1.9-23.8,1.5c-11.5-1.4-22.9-4-34.5-4.6
		c0.7-0.2,1.4-0.5,2.1-0.7c-3.8-0.2-7.8,0-11.5-1.4c-2.5-1.2-3.7-3.9-5.3-6.1c-0.8-1.2-1.6-2.4-2.4-3.6c-1.6,0-3.2,0.1-4.8,0.2
		c-2.1,0.4-4.2,1-6.4,1.2c-1.1,0.1-2.3,0.3-3.4,0.4c0.5,2.3,1,4.9,3.2,6.1c9.7,6.5,18.9,13.7,28.1,21c1.2,1.1,2.8,1.3,4.3,1.1
		c3.1,2.6,7.5,2.7,11.3,3.5c12.1,1.4,24.1,3,36,5.6c3.7,0.8,7.3,2.3,11.2,2.3l0.6,0.3c4.3,1.3,8.9,1.6,13.1,3.1
		c1.3,0.1,2.5,0.1,3.8,0.2c2.9-5.8,6.1-11.5,10.4-16.4c2.3-2.6,6.2-2.2,9.3-1.6c3.8,0.9,8,0.8,11.4,2.8c5.7,0.4,11.4-0.9,17.1-0.9
		c15-0.7,30-1.5,45-2.2c6.2-1.6,12.8,0.3,18.9-1.5c4.8-0.2,9.7-0.3,14.5-0.3l0-0.9c4.2,0.1,8.3-0.1,12.4-0.8
		c13.5-0.8,27-2.5,40.5-3.1l0.1-0.9c8.6,0.5,17.1-2,25.7-1.2c-2.1-0.4-4.2-0.7-6.3-1.1c4.8,0.3,9.6,0.3,14.3-0.7
		c11-0.9,22-2.3,33-3.3c2.7-1.5,6-0.5,9-1c3.6-0.7,7.3-1,11-1.1c2.9-1,6.1-0.6,9.1-1.2l0.1-0.4l0.3,0l0.1,0.4
		c9.4-0.6,18.8-1.7,28.2-2.5c2.6-0.1,5.4,0.1,7.9-0.8c7.8,0,15.5-2.2,23.4-1.2c2.1,0.9,4.3,2.2,6.6,2.5c1.6,0.8,3.5,1.2,5.1,2
		c1.3,0.2,2.6,0.6,3.9,1.1c1.3,0.3,2.9,0.2,4,1.2c1.7,0.1,3.5,0.2,5.2,0.4c2.8,1.4,6.1,0.6,9.2,1c10.2,1.3,20.6,0.5,30.8,1.2
		c8.3,0.8,16.7,0.7,24.9,2.2c5.4,0.2,10.6,1.5,16,1.7c1.3,0.5,2.7,0.8,4.1,0.8C585.9,275.2,583.7,268.3,581.7,261.3z M43.8,271.7
		c1,0.8,2,1.5,3.1,2.2C45.8,273.2,44.8,272.5,43.8,271.7z M77.7,295.5c3.1,0.6,6.2,1.1,9.4,1.6C84,296.6,80.8,296.1,77.7,295.5z
		 M250.7,270.5c0.8,0.2,1.6,0.4,2.4,0.7C252.4,270.9,251.6,270.7,250.7,270.5z"/>
	<linearGradient id="SVGID_4_" gradientUnits="userSpaceOnUse" x1="64.8436" y1="252.0291" x2="152.0556" y2="252.0291">
		<stop  offset="0" style="stop-color:#FFFFFF"/>
		<stop  offset="1" style="stop-color:#C9C9C9"/>
	</linearGradient>
	<path fill="url(#SVGID_4_)" stroke="#E3DDDA" stroke-width="0.2" d="M491.3,238.1c-0.3-4,0.3-8-0.4-12c-0.7-0.9-1.5-1.5-2.4-2.2
		c-1.6,2.4-3.5,4.8-6.3,5.9c-0.3,2.2-0.5,4.3-1.2,6.4c-2.2,2.6-5.2,4.1-8.2,5.6c-7.4,4.4-14.9,10-23.9,9.9
		c-12.3,1.7-24.7,2.6-37.1,3.5c-5.1,2-10.8,0.2-15.8,2c-6.7,0.1-13.4,0.1-20.1,0.8c-2.6-0.8-5.2-0.3-7.7,0.5
		c0.9,0.2,2.7,0.6,3.6,0.8c-4.9,0.7-9.9,1.2-14.7-0.3c-2.4-0.7-4.8-0.2-7.2,0.1c-4,0.5-8.1,0-12.1,0.8c-5.3,1-10.8,0.2-16.2,0.9
		c-9,1.5-18.3,0.5-27.2,2.6c1.8,0.2,3.6,0.5,5.4,0.8c-4.9,0.7-9.9,0.6-14.8-0.2c-2.6-0.5-5.2-0.1-7.7,0.5c-2.5-0.1-5,0.2-7.5,0.5
		l-0.4-0.4c-7.3,1.3-14.8,0.5-22.1,1.6c-13.9,0.7-27.9,2-41.8,2.8c-2.3,0.1-4.6,0.6-6.8,1.1c-1.8-0.8-4-0.4-5.5,0.8
		c-7.3,0.5-14.5,1.1-21.8,1.4h-0.1c-6.1,0-12.1,0.1-18.1,0.8c-4.1-1.1-8.4-0.4-12.6-0.6c-3.1,0.1-6.3-0.5-9.4,0.6
		c-6.5-0.8-13-0.9-19.5-1c0.7,0.5,1.5,0.9,2.3,1.1c-0.8-0.3-1.6-0.6-2.3-1.1l-0.5-0.3c-0.3,0-0.9,0.1-1.2,0.2
		c-5.8-0.1-11.7,0-17.3-1.7c-4.9,0.8-9.8,0-14.7-0.6c-2.2-0.2-4.6,0-6.6-1.1c0.1,0.1,0.3,0.2,0.4,0.3c-1-0.6-2.1-0.9-3.2-1.1
		c-6.3-0.8-12.7-1.4-18.8-3.4c-3.5-0.9-4.7-4.7-7.4-6.7c-1.5-0.6-3.5-1.8-4.9-0.4c1.2,0.7,2.4,1.3,3.6,2c-0.5,0.4-1.4,1.1-1.8,1.4
		c0.3,0.7,0.9,2,1.2,2.7c1.6-0.1,3.2-0.2,4.8-0.2c0.8,1.2,1.5,2.5,2.4,3.6c1.6,2.2,2.8,4.9,5.3,6.1c3.7,1.4,7.6,1.3,11.5,1.4
		c-0.7,0.2-1.4,0.5-2.1,0.7c11.6,0.6,22.9,3.3,34.5,4.6c8,0.4,15.8-1.9,23.8-1.5c13.2,2.2,26.6,1.8,39.9,1.8
		c17.5-0.8,35-1.9,52.2-5.1c0.1-0.2,0.4-0.5,0.5-0.6c6.4-1.1,12.8-2.1,19.3-2.8c5-0.3,10-1.2,15.1-1.3l0.6-0.1
		c11.7-1.2,23.5-2.9,35.2-1.7l0-0.6c-3.1,0-6.3,0.1-9.4-0.4c14.2-0.3,28.6-3.3,42.7,0c-1.1,0.2-2.2,0.4-3.3,0.6
		c8.6,0,17.4,2.8,26,0.5c4.9-1.6,10.1-2.4,15.2-3c9.2-0.8,18.3-2.3,27.6-2.7c-2.2-0.3-4.4-0.6-6.6-0.9c11.7,1.1,23.3-1.2,34.9-2.3
		c18.3-2.6,36.9-3.4,54.8-8c5.5-1.2,9.7-5.1,14.8-7.2c3.7-0.5,7.3,0.9,10.9,1.7c0,0.4,0.1,1.2,0.1,1.5
		C491.3,244.6,491.4,241.3,491.3,238.1z M199.1,270.3c0.4,0.3,0.9,0.6,1.2,0.8C200,270.9,199.5,270.6,199.1,270.3z"/>
	<path fill="#180E0D" stroke="#180E0D" stroke-width="0.2" d="M417.9,272.5l0.3,0l0.1,0.4l-0.5,0L417.9,272.5z"/>
	<path fill="#DAF74B" stroke="#DAF74B" stroke-width="0.2" d="M684.2,278.2c2.1,2.4,2.8,5.6,4,8.5c4.2,7.7,9.2,15.1,13.8,22.5
		c6.9,9.6,11.7,20.5,17.3,30.8c7.3,14.3,15.2,28.3,22.2,42.7c-3.2-4.5-5.9-9.3-8.8-14c-12.3-20.4-24.5-40.8-35.1-62.1
		c-4.4-8.8-10.6-16.8-13.7-26.2C684,279.9,684.1,278.8,684.2,278.2z"/>
	<path fill="#50343B" stroke="#50343B" stroke-width="0.2" d="M152.7,291.8c2.3-2.6,6.2-2.2,9.3-1.6c3.8,0.9,8,0.8,11.4,2.8
		c-2.4,0.3-4.9,0.3-7.3,0.3l-0.1,0.8c-2.6,0-5.3,0.1-7.9,0.1l-0.1,1c-0.7,0-2.2,0-3,0c0.1,0.5,0.2,1.5,0.2,2c-0.3,0-0.8,0-1,0
		c-1.2,3.9-1.9,9.4-7,10.2l-0.1,0.8c-1.6,0-3.2,0-4.8,0C145.3,302.5,148.5,296.7,152.7,291.8z"/>
	<path fill="#DCF452" stroke="#DCF452" stroke-width="0.2" d="M749,308.2c5.6-0.2,11.1,0.2,16.7,0.8c19.2,1.8,38.3,4.9,56.7,10.9
		c12.6,4.7,25.1,9.9,37.5,15.4c2.9,1.1,5,3.5,6.7,6.1c-20.6-10.1-41.8-19.3-64.3-24.2c-17.1-4.2-34.7-5.3-52.1-7.9L749,308.2z"/>
	<path fill="#DBF74C" stroke="#DBF74C" stroke-width="0.2" d="M749.2,323.6c2.9,1.6,3,5.2,4.5,7.8c7,12.8,14.1,25.6,21.7,38.1
		c-8.2-8.8-14.7-18.9-19.5-29.8C753.7,334.3,750.2,329.4,749.2,323.6z"/>
	<path fill="#DCF94E" stroke="#DCF94E" stroke-width="0.2" d="M810.2,368.9c1.9,1.6,2.3,4.1,3.1,6.2c4,10,8.7,19.7,13.1,29.5
		c-3.3-4.1-5.3-9-8.2-13.3C814.2,384.4,809.1,377.3,810.2,368.9z"/>
	<path fill="#C6D475" stroke="#C6D475" stroke-width="0.2" d="M682.9,404.2c0.5,0,1.6,0,2.1-0.1c0.2,1.1,0.4,2.1,0.6,3.1
		c-1.2,0.1-2.4,0.1-3.6,0C682.3,406.2,682.6,405.2,682.9,404.2z"/>
	<path fill="#D1DD8E" stroke="#D1DD8E" stroke-width="0.2" d="M736.1,419.3c0.5-2.6,1.3-5.1,2.1-7.5c0.5,1.7,1.1,3.4,1.6,5.1
		c-1.5,0.3-2.4,1.2-2.9,2.6L736.1,419.3z"/>
	<path fill="#879229" stroke="#879229" stroke-width="0.2" d="M653.6,412.2c3.7,6.3,8.3,12.8,15.2,16c2.7,6,5.1,12.1,7.9,18
		c0,0.4-0.1,1.3-0.2,1.7c-5.7-1.2-10.9-3.9-16.5-5.3c0.4,6.8,3.8,12.7,5.7,19.1c-2.7,0.1-5.4,0.2-8,0.4c2.5,7,6.7,13.4,8.9,20.5
		c-0.5,0.4-1.4,1.1-1.9,1.5c-1.5,0.1-3,0.2-4.4,0.3c-0.3,8.2-1.3,17.4-7.7,23.4c-1.5,1.7-4.5,2.6-5.9,0.2
		c-3.6-5.1-3.2-11.8-5.6-17.4c-2.1-1.6-4.9-1.1-7.4-1.4c0.3-2,0.9-3.9,1.6-5.8c-0.4,0.1-1.2,0.2-1.6,0.3c-1.2,2-2.5,4-4.6,5.2
		c1-8.4,5.5-15.8,8.3-23.7C645.8,448.6,651.7,430.7,653.6,412.2z"/>
	<path fill="#D9F749" stroke="#D9F749" stroke-width="0.2" d="M668.8,428.1c0.2-1.7,0.4-3.3,0.5-5c6.3,8.9,9.6,19.3,15.5,28.4
		c2.3,4.6,3.8,9.8,7,13.9c3,1.3,6.5,1.2,9.7,1.7c10.7,1,21.4,2.3,32.1,3.8c3.5,0.5,7,0.4,10.5,0.2c8.8,2.2,16.4,7.5,25.1,10
		c-2.2,1-4.5,0.1-6.7-0.5c-3.8-1.2-7.7-2.4-11.5-3.5c-5.9-2.4-12.1-3.2-18.4-3.7c-12.8-0.9-25.5-3-38.3-3.6
		c2.9,5.6,7.8,9.5,12.3,13.6c8,8,16.9,15,25.4,22.3c3.4,4,9,2.1,13.5,2.4c8.8,0.2,17.9-1.2,26.3,1.9c9.9,3.5,19.6,7.6,29.3,11.6
		c11.4,5,21.3,12.6,31.3,19.8c-7.9-3.5-15.1-8.4-22.9-12.1c-15.8-8.2-32.8-13.7-49.9-18.2c-6.7-2-13.7-0.5-20.4,0.3
		c14.3,15.6,29.1,30.6,43.9,45.8c10.7,10.2,21,21,30.1,32.6c10.8,12.9,21.3,26,31.5,39.4c3.1,4.4,7.3,8.5,7.9,14.2
		c-16.8-26-38.5-48.1-59-71c-7.8-8.5-15.8-16.7-23.6-25.1c-8-8.7-16.2-17.3-25.1-25.1c-3.2-3-6.3-6.1-10.2-8
		c-3.8,10.4,0.8,20.9,1.9,31.4c1.3,9.4,3.9,18.6,4.7,28.1c-3.4-12.3-7.2-24.6-9.7-37.1c-1.4-8.6,0.4-17.5-0.9-26.1
		c-2.6-3.1-6.1-5.3-8.9-8.1c-10.1-9.6-20.5-18.9-29.9-29.1c-0.9-0.9-1.9-1.9-3.1-2.3c-1.4,1-2.1,2.7-3,4.1c-2,3.8-4.7,7.3-5.6,11.6
		c-1.6,7.6-0.7,15.4-1.5,23.1c-0.9,8.1-0.1,16.3-2,24.2c-0.7-2.9-1-5.8-1.1-8.8c0.4-10.7-0.3-21.5,1.5-32.1
		c0.9-9.4,4.1-18.4,8.9-26.4c-3.7-6.6-6.9-13.4-9.4-20.5C673.8,440.2,671.5,434.1,668.8,428.1z"/>
	<path fill="#D8E953" stroke="#D8E953" stroke-width="0.2" d="M887.4,433.6c-2.1-1.3-3.8-3.2-5.5-4.9c10.3,8.3,21.6,15.1,33,21.8
		C904.6,447,896.2,439.6,887.4,433.6z"/>
	<g>
		<linearGradient id="SVGID_5_" gradientUnits="userSpaceOnUse" x1="571.3131" y1="330.3083" x2="773.9798" y2="144.3083">
			<stop  offset="0" style="stop-color:#ADC42B"/>
			<stop  offset="0.5" style="stop-color:#8EA608"/>
			<stop  offset="1" style="stop-color:#B4D627"/>
		</linearGradient>
		<path fill="url(#SVGID_5_)" stroke="#B3C466" stroke-width="0.2" d="M583.7,209.8c6.9-2,13.5-7.1,21-5c-0.3,2.1-0.9,4.1-1.8,6
			c12.1-4.8,23.6-10.8,35.9-14.9c19.6-7.3,40-12.3,60.2-17.6c18.6-4.7,37.8-5,56.8-6.9c-5.2,1.7-10.7,2.3-16.1,3
			c-22.6,2.9-45,7.4-66.9,13.5c-9.8,3-19.8,5.4-29.2,9.4c-15.3,5.3-29.8,12.6-44.9,18.5c4.7-0.3,9.3,0.5,14,0.7
			c5.7,0.3,11.4-0.7,17.1-1.2c4.4-0.4,8.9-1.7,13.3-0.4c1.8,0.6,4.5,0.6,5.1,2.9c0,1.4-0.8,2.8-1.9,3.6c-5.8,4.2-13.5,4.7-19,9.3
			c22-3.3,44-8,66.3-8.5c9.3-1.3,18.6-0.8,28-1c15.2-0.1,30.4,0.2,45.5-0.1c5.5,0.3,11,0.1,16.5,0.9c11.1,1.1,22.4,0.4,33.2,3.3
			c0.2-0.4,0.6-1.1,0.8-1.5c0.2-0.4,0.6-1.3,0.8-1.7c1.7-2.1,4.4-2,6.9-2.2c0.2-0.5,0.7-1.5,0.9-2l-0.8,0l-1.4,0
			c-7.1-4-14.5-8.6-23-8c0.9-1.9,2.6-2.9,4.6-3.2c0.2-0.7,0.3-1.4,0.5-2.1c-1.6-0.6-3.5-0.9-4.7-2.3c-3.7-0.4-7.5-0.2-11.2-0.2
			c0.6-3.2,3.8-4.2,6.4-5.2c-4.3-3.8-10.3-3-15.7-2.9c-0.1-0.4-0.2-1.3-0.3-1.8c1-0.7,2-1.4,2.9-2.2c0.6-0.1,1.8-0.4,2.4-0.5
			c-0.9-2.2-2.5-4.1-4.3-5.6c-3.2-0.5-6.5-0.4-9.7-1.1c3.2-2.4,7.4-3,11.4-2.7c-0.1-0.5-0.4-1.4-0.5-1.9c-2.9-0.8-5.8-1.6-8.5-2.7
			c1.3-1,2.5-2,3.8-3c-0.5-1-1.1-2-1.6-3c-1.1-0.2-2.1-0.5-3.1-0.7c-3.4-2.1-7.6-1.2-11.3-0.9c0.1-2.6-0.1-5.3-0.3-7.9
			c-2.2-0.5-4.4-1.1-6.5-2c-2.1,0.1-4.9-0.9-6.3,1.3c0-1,0-2,0-3c0.5-0.3,1.6-1,2.2-1.3c-0.1-0.5-0.3-1.4-0.4-1.8
			c-1.8-0.1-3.8,0.1-5.4-1c-4-0.3-8.1-0.8-12.1-0.8c-2.4,0.7-4.8,1-7.2,1c2.1-2,4.5-3.8,7-5.2c-3.7-1.3-7.6-1.8-11.5-1.6
			c-11.8,0.4-23.6,1.4-35.1,3.6c-19.1,2.8-38.4,7.3-55.4,16.9c-10.4,6.3-20,13.9-29.1,21.9c-0.7,0.4-1.4,0.8-2.1,1.1
			c-1.3,1.7-2.6,3.3-4.3,4.5c-7.4,5.5-15,11-24,13.9c-0.3,0.1-0.9,0.4-1.3,0.5C574.7,209.9,579.3,211.4,583.7,209.8z"/>
		<linearGradient id="SVGID_6_" gradientUnits="userSpaceOnUse" x1="664.2897" y1="431.6161" x2="866.9564" y2="245.6161">
			<stop  offset="0" style="stop-color:#ADC42B"/>
			<stop  offset="0.5" style="stop-color:#8EA608"/>
			<stop  offset="1" style="stop-color:#B4D627"/>
		</linearGradient>
		<path fill="url(#SVGID_6_)" stroke="#B3C466" stroke-width="0.2" d="M918.7,447.9c-2.9-3.2-6.3-6.4-7.6-10.6
			c-0.6-2.4,1.7-3.8,3.4-4.8c-2.7-3.4-7.3-2.9-11-4.1c-0.6,0-1.9-0.1-2.6-0.1c0.1-1.8,0.9-3.9-0.5-5.5c-2.8-3.3-6.3-6-9.6-8.8
			c2.8,0,5.7,0.1,8.5-0.5c-2-7.6-8.2-12.7-13.8-17.7c-2.1-1.4-3.2-3.8-5.6-4.9c0-0.9,0-1.8,0-2.7c1-0.1,3-0.2,4-0.3l0.1,1
			c1.4,0.1,2.9,0.3,4.3,0.4c-1.3-6.5-5.8-11.8-9.8-16.8c-3.7-4.7-8.4-8.4-13.3-11.9c1.3-1.1,2.6-2.2,3.9-3.2c0-1,0-2.1,0-3.1
			c-2.5-2.6-5.4-5-8.9-5.8c2.8-0.7,5.5,0,8,1.3c0.5,0.2,1.6,0.4,2.1,0.6c2.5,1.3,5,3.1,8,3.3c-3.3-6.3-6.2-12.9-10.9-18.2
			c-1.7-1.2-3.3-2.5-4.3-4.4c2.7,0.2,5.4,0.7,8.1,0.1c-1.5-2.4-3.3-4.6-4.8-7c-0.4-0.3-1.1-0.9-1.4-1.2c-2.9-3.1-5.9-6.1-9.1-9
			c-2.1-1.9-4.4-4-4.8-7.1c3.4,0.5,6.8,0.5,10.1,0.1c-2.9-2.8-6.7-4.5-9.4-7.6c1.3-0.2,2.6-0.4,4-0.6c0.2-0.7,0.7-2.1,1-2.8
			c4,1.7,8.4,2,12.8,1.8c-1-2.1-2.3-4-4-5.5c-1.9-1.6-3.4-3.9-6-4.4v0c-0.3-0.4-0.8-1.1-1.1-1.5c-1.5-1.1-4.6-1.5-3.9-4.1
			c2.3-0.2,4.7-0.2,7-0.2c0.1-0.4,0.3-1.3,0.4-1.7c-3.9-2.3-7.1-5.9-11.5-7.4c-3-1.9-6.1-3.7-9.8-3.8c-0.1-0.8-0.1-1.7-0.2-2.5
			c2.6-0.6,5.2-1.3,7.7-2.3c-0.7-0.7-1.3-1.6-2.2-2c-5.1-2.7-10.4-5-15.6-7.5c2.4-2,5.4-3.1,8.4-3.7c-2.2-3.9-6.7-6-10.6-8.1
			c0.1-0.5,0.2-1.6,0.2-2.1c-2.3-0.5-4.6-1-6.8-1.8c6-5.8,15-3.9,21.8-8c-1.3-0.9-2.5-1.8-3.7-2.7c-0.9-0.1-2.6-0.3-3.4-0.3
			c-2.8-2.1-6-3.3-9.4-4c-1.3,0.5-2.5,1.1-3.8,1.7c0-0.5,0.1-1.5,0.2-2c-1.7,0-3.5,0-5.2,0.1c0.1,1.4,0.8,2.5,1.9,3.3
			c-3.6,0.2-7.2-0.3-10.8-0.7c-18.8-1.3-37.6-2.4-56.4-2.8c-17.3,0.5-34.7,0.5-52,1.5c-24,0.3-47.5,5.5-71.3,8.5
			c5.1-0.4,10.3,0.2,14.8,2.8c10.9,5.1,20.2,12.8,30,19.7c2,1.5,3.9,3.2,5.8,4.9c-1.4,0.5-2.9,0.9-4.3,1.4c0.3,0.1,0.9,0.4,1.3,0.5
			c14.8-3.3,30.1-1.4,45.1-1.7c11.4,1,22.8,1.4,34.1,2.8c15.2,1.3,30,4.8,44.9,7.6c10.8,2.4,21.5,5,32.3,7.7
			c6.1,1.8,12.7,3,17.7,7.4c-8.8-1.3-17.1-5-25.8-6.7c-23.2-5.8-46.6-11.1-70.5-13.3c-15.3-1.8-30.6-2.2-45.9-3.4
			c-8.8,0-17.6,0.9-26.2,2c2.3,0.3,5,0.1,6.9,1.7c2.8,2.3,5.5,4.6,8.6,6.5c4.6,2.9,8.6,6.7,13.1,9.8c8.3,5.2,15.3,12.1,23.1,17.9
			c2,1.7,3.9,3.4,6,5c-0.1,0.7-0.2,1.4-0.2,2.2c2.8-0.2,5.5-0.4,8.3-0.3c5.6-0.2,11.1,0.2,16.7,0.8c19.2,1.8,38.3,4.9,56.7,10.9
			c12.6,4.7,25.1,9.9,37.5,15.4c2.9,1.1,5.1,3.5,6.7,6.1c-20.6-10.1-41.8-19.3-64.3-24.2c-17.1-4.2-34.7-5.3-52.1-7.9
			c-2.6,0.3-5.2,0.9-7.8,1.4c8.8,9.3,19.8,15.8,30,23.4c10.5,8.1,21.3,15.9,31.6,24.3c1.7,1.3,3.2,2.8,5.1,3.8
			c3.8,0.5,7.6-0.5,11.4-0.3c7.9-0.3,15.3,2.6,22.8,4.2c8.6,2.3,17.1,4.9,25.2,8.6c-10.4-0.8-19.9-6-30.1-7.9
			c-8.2-2.1-17-4.4-25.2-1.4c5.9,6,12.6,11.2,18.8,17c8,7.6,16.3,14.9,24.1,22.8c7.6,7.7,15.9,14.6,24,21.8c0.1,0.4,0.3,1.1,0.4,1.4
			c-6.7-6.5-14.1-12.1-20.8-18.7c-9.3-8.4-18.2-17.1-27.6-25.5c-6.1-4.9-12-10-18-15c-16.4-12.7-32.8-25.4-49.4-37.7
			c-4.7-3.6-9.7-6.8-14.7-10c-0.5,0.4-1.4,1.3-1.9,1.7c-3.9-2.1-7.6-4.5-11.3-6.9c-4.7-3.2-10-5.2-14.8-8.3
			c-8-4.5-15.4-9.9-23.3-14.7c-3.7-2.1-7.2-4.4-10.7-6.8c4.2,7.7,9.2,15.1,13.8,22.5c6.9,9.6,11.7,20.5,17.3,30.8
			c7.3,14.3,15.2,28.3,22.2,42.7c-3.2-4.5-5.9-9.3-8.8-14c-12.3-20.4-24.5-40.8-35.1-62.1c-4.4-8.8-10.6-16.8-13.7-26.2
			c-0.1,0.8-0.2,2.5-0.3,3.3c-8.6-5-16.6-11-25.6-15.4c-7.6-4-14.9-9-23.1-11.6c6.9,12.9,15.4,25,23.5,37.2c2.9,5,4.9,10.3,7.5,15.5
			c6.1,13.6,12.7,26.9,18,40.8c3,8,6.6,15.7,9.6,23.6c-4.8-9-9.1-18.2-13.4-27.3c-7.1-14.4-12.9-29.5-20.4-43.7
			c-9.6-17.7-20.4-34.8-31.1-51.9c0,0.5,0,1.4,0.1,1.9c-5.5-2.4-10.7-5.5-16.4-7.6c-4.4-1.6-9.1-1.8-13.6-2.2
			c4.1,10.6,9.2,21,11.7,32.2c-1.2-1.9-2.4-3.7-3.3-5.8c-4.5-9.5-9.8-18.5-13.9-28.1c-4.6,3.1-10.4,3.8-15.3,6.6
			c1.3,4.4,2.5,8.9,3.8,13.4c2.1,7,4.3,14,5.9,21.1l0.1,0.3c2.1,6.7,4.3,13.3,5.9,20.1c1.9,13.1-0.6,26.5,1.8,39.6
			c2,0,4.1-0.2,5.8-1.4c0.1,3-0.4,5.9-0.9,8.9c-0.5,2.8,0.8,5.3,1.7,7.9c0.4-0.1,1.3-0.4,1.8-0.6c0.3-1.2,0.4-2.5,1.2-3.6
			c0.4,6.7-0.7,13.6,1.1,20.2c0.9-0.1,1.8-0.3,2.6-0.4c0.9-2.6,2.1-5,3.5-7.3c0.4,0,1.2,0,1.6,0c-0.3,5-0.9,10,0.5,14.9
			c1.1,0.9,2.2,1.8,3.3,2.8c2,0,3.9-0.7,5.4-1.9c-0.3,4.8-0.6,10,2.6,14c3.3-0.1,5.9-2.3,8.5-3.9c-0.2,4.6-0.5,9.4,1.6,13.8
			c1.1,0,2.2,0.1,3.4,0.1c0.3-0.5,0.9-1.5,1.2-2c0.9-0.1,1.7-0.1,2.6-0.2c0.7,2.5,1,5.1,1.1,7.7c0.8,1.1,1.6,2.2,2.4,3.3
			c1.5-2.2,4-2.9,6.6-3l0.5,0.9c3.7,6.3,8.3,12.8,15.1,16c0.2-1.7,0.4-3.3,0.5-5c-1.5-4.3-2.4-8.9-1.8-13.4c0.5-2.8,1.4-7,5.1-6.8
			c0.7,3.5,2.2,6.7,4,9.7l-2.4-0.2c2.3,1.2,4.6,2.5,7.1,3.3c0.3-2.8,0.3-5.7,0.8-8.5c0.2-1,0.5-2.1,0.8-3.1c0.5,0,1.6,0,2.1-0.1
			c0.2,1,0.4,2.1,0.6,3.1c1.2,4.5,3.5,9.1,7.4,11.7c-0.2-3-0.3-6.2,1.4-8.9c1,3,2.7,5.5,4.5,8c2.1,2.8,4.6,5.8,8.5,5.7
			c-0.2-1.8-0.4-3.5-0.6-5.3c6.9,5.7,12.2,15.7,22.3,15.7c-2.5-5.7-6.1-11.1-7.1-17.4c0.3-1.2,0.7-2.4,1.2-3.5
			c0.6,0,1.6,0.1,2.2,0.1c0.2,0.4,0.5,1.4,0.6,1.8c1.9,2.8,4.2,5.3,6.4,8c0.3,0,1,0,1.3,0c0.8-1.3,2-2.4,2.3-3.9
			c0.4-2.6,1.3-5.1,2.1-7.5c0.5,1.7,1.1,3.4,1.6,5.1c0.9,4.6,4.8,7.6,7.9,10.7c1.2,0.5,2.4,1,3.6,1.6c-1.5-2.5-1-5.4-0.2-7.9
			c0.4,0.1,1.2,0.3,1.6,0.4c4.6,7.8,10.3,16.1,19.5,18.8c-0.3-4.3-0.5-8.7-2.2-12.7c-0.3-3.1-0.2-6.2-0.1-9.3c0.6-0.3,1.7-0.8,2.3-1
			c0.1-0.3,0.3-1,0.3-1.4c3.2,5.1,8.1,10.2,14.5,10.3c0.1-1.9,0.2-3.7,0.3-5.6c0.7-0.9,1.4-1.7,2-2.6c1.8-0.3,3.7,0,4.5,1.9
			c3.8,6,7.3,12.3,12.6,17.3c2.2,1.3,4.5,2.5,7.2,2.4c-1.5-2.4-3.7-4.7-3.5-7.7c0-4.1,1.4-8.2,0.9-12.3c1,1.9,2.1,3.8,3.3,5.5
			c1.3,1.4,2.8,2.6,4.5,3.5c1.1-1.9,2-4,2.7-6.1c6.4,4.5,10.9,11.5,18,15.2c1.8,0.9,3.8,0.6,5.8,0.7c-1.7-4.8-5.4-9.8-3.1-15
			c2.1,4,3.4,8.3,6,12c0.5,0.1,1.4,0.2,1.8,0.3c0-2.1-0.5-5.9,2.7-5.7c-0.1,3.9,4.4,4.8,6.1,7.8c0.1-0.5,0.3-1.5,0.4-2.1l1.5-0.6
			c0.6,0.9,1.2,1.8,1.8,2.8c0,0,0,0,0,0c3.2,4.1,7.7,7.8,12.9,8.8c-1.2-3.7-3.1-7.6-1.1-11.3c3.9-0.2,6.6,3.4,8.3,6.4
			c1.1,3.9,3,8.1,6.9,9.9c2.5,1.5,4.3-1.4,6.2-2.6c2.2,0.9,3.9,2.4,5.4,4.2c0.3,2.6,0.6,5.1,1,7.7c0.8,0.5,1.6,0.9,2.4,1.4
			c0.1-1.4,0.4-2.8,0.7-4.2c3.8-0.1,7.7-0.6,11.5-0.9c1.3-0.2,2.8,0,3.8-1c1.7-0.6,3.4-1,5.1-1.5
			C923.3,452.5,921.1,450.1,918.7,447.9z M816.5,271.8c1.1,0.3,2.2,0.4,3.3,0.5C818.7,272.2,817.6,272.1,816.5,271.8z M828.2,269.7
			c1.1,0,2.2,0.1,3.3,0.2C830.4,269.8,829.3,269.7,828.2,269.7z M836.4,267c-0.4,0.6-0.8,1.1-1.2,1.7
			C835.6,268.1,836,267.5,836.4,267L836.4,267z M846.9,288.1c0.5-0.2,0.9-0.3,1.4-0.3C847.9,287.9,847.4,288,846.9,288.1z
			 M755.9,339.7c-2.2-5.4-5.7-10.3-6.6-16.1c2.9,1.6,3,5.2,4.5,7.8c7,12.8,14.1,25.6,21.7,38.1C767.2,360.8,760.7,350.6,755.9,339.7
			z M818.2,391.3c-4-6.9-9.1-14-8-22.4c1.9,1.6,2.3,4.1,3.1,6.2c4,10,8.7,19.7,13.1,29.5C823.2,400.5,821.1,395.6,818.2,391.3z
			 M887.4,433.6c-2.1-1.3-3.8-3.2-5.5-4.9c10.3,8.3,21.6,15.1,33,21.8C904.6,447,896.2,439.6,887.4,433.6z"/>
	</g>
	<path fill="#8F9A37" stroke="#8F9A37" stroke-width="0.2" d="M849.1,540.7c-1.2-7-2.5-14.3-5.9-20.6c-4.9-9.8-11.8-18.8-20.4-25.6
		c-6.6-5.6-14.3-9.6-21.2-14.7c-9.3-8.4-18.7-16.8-29.4-23.5c-3.8-2-8-3.2-11.9-5.1c-14.1-5.2-27.8-11.2-41.4-17.5
		c-7-3.9-14.1-7.6-21.4-10.9c-4.8-1.8-9-4.7-13.8-6.4c-0.6-0.2-1.8-0.5-2.4-0.7c-2.5-0.8-4.8-2.1-7.1-3.3c-2.3-0.9-4.5-1.8-6.7-2.7
		c-0.6,4.5,0.3,9.1,1.8,13.4c6.3,8.9,9.6,19.3,15.5,28.4c6.2,0.9,10.8,5.5,16.6,7.3c3.5,0.7,7.2,0.3,10.6,1.3
		c4.9,1.6,9.6,3.7,14.5,5.4c5.8,2.1,11.9,3.2,17.6,5.7c8.8,2.2,16.4,7.5,25.2,10c5,1.5,9.8,3.8,14.4,6.3c-6-0.9-11.3-4.1-17.3-4.7
		c0.9,0.8,1.8,1.6,2.7,2.3c13.4,9.4,25.9,19.8,38.6,30.1c5.5,3.6,9.9,8.5,14.9,12.7c-0.9-2.9-1.9-5.7-2.9-8.6
		c4.4,2.9,7.6,7.2,11.5,10.8c5.4,5,10.7,10.4,17.1,14.2C849.7,544.6,848.8,541.7,849.1,540.7z"/>
	<g>
		<linearGradient id="SVGID_7_" gradientUnits="userSpaceOnUse" x1="975.587" y1="431.5571" x2="1155.587" y2="286.8904">
			<stop  offset="0" style="stop-color:#858B34"/>
			<stop  offset="0.5021" style="stop-color:#94AB28"/>
			<stop  offset="1" style="stop-color:#BFE128"/>
		</linearGradient>
		<path fill="url(#SVGID_7_)" stroke="#A0AA75" stroke-width="0.2" d="M982.5,267.3c2.6,1.5,5.7,2.1,8.7,1.8
			c-0.5,0.5-0.9,1.1-1.4,1.6c1.6,0.1,3.1,0.2,4.7,0.3c-1.5,0.6-3,1.2-4.5,1.8c2.1,0.9,4.2,2.2,6.5,2c7.5-0.3,14.7-4,22.3-2.8
			c-4.1,2.1-8.5,3.7-12.9,5c-3.8,1.1-7.8,1-11.4,2.7c-0.4,0.9-0.8,1.8-1.1,2.7c2.8-0.3,5.8-0.8,8.3,0.8c-2,0.4-4.1,0.6-6.1,0.9
			c4.4,1.3,8,4.3,11.3,7.3c2.6,2.6,6.4,2,9.7,2.1c10.3-0.3,20.7,0.4,31,1.5c9.4,1.3,18.6,3.1,27.9,4.8c8.2,1.8,16.7,2.2,24.5,5.3
			c4.8,2,9.9,3.7,13.8,7.4c-6.4-1.4-12.6-4-19.1-5.2c-8.5-1.8-17.3-2.7-25.9-3.9c-10.3-1.9-20.6-3.2-31-4
			c-6.7-1.1-13.5-0.6-20.3-0.4c-2.8,0-5.6,0.8-8.3,1.5c2.5,1.6,5.3,3.5,5.1,6.9c1.1,0.4,2.3,0.8,3.4,1.2c0.1,0.8,0.2,1.7,0.4,2.5
			c0.6,0.2,1.2,0.3,1.8,0.5c1.1,2.2,2.8,3.9,4.8,5.1c3.7,2.5,6.1,6.6,10.1,8.7c8.3,1.8,16.8,1.6,25.2,2.4c5.6,1.5,11.2,3.2,16.8,4.8
			c6.1,1.7,12,4.1,18.3,5.2c10,3.3,20.3,5.9,29.9,10.5v0c3.5,2,6.9,4.1,10.7,5.6c0.1,0.5,0.4,1.5,0.6,1.9c-8.5-5.3-18.3-7.9-27.7-11
			c-10.4-3.3-21-6-31.5-9.1c-7.6-2.9-15.7-4-23.6-5.4c-8-0.5-16-0.5-24,0c10.8,7.5,20.1,16.9,29.4,26.3c3.3,3.4,8.3,4.2,12.7,5.3
			c10.4,2.3,20.2,6.6,29.8,11.2c4.9,2.2,9.4,5.1,14.4,6.9c3,1.5,5.9,3.2,8.5,5.2c-0.4,0.3-1.3,1-1.8,1.3c-4.5-1-8.5-3.4-12.9-4.8
			c-5.6-1.9-11-4.2-16.4-6.5c-4.4-1.9-9.4-1.5-14-0.8c1.4,1.2,2.8,2.3,4.2,3.4c1.6-0.2,3.1-0.4,4.7-0.6c0.4,0.5,1.2,1.4,1.6,1.8
			c-1.5,0.6-3,1.1-4.4,1.7c1.8,0.5,3.6,1.2,5.4,1.8c1.7,4.1,5,7.1,8.6,9.6c2.6,1.6,3.5,4.7,4.6,7.3c0.9-0.5,1.8-1,2.7-1.4
			c1.6,1.8,3,3.7,4.3,5.6c1.1,1.9,3.5,2.3,4.9,3.8c1.3,1.8,2.1,3.9,3.5,5.6c2.2,1.2,5.6,0.5,6.8,3.1c1.4,2.3,3,4.3,4.9,6.2
			c2.8,2.8,3.7,7.5,7.7,9c2.1,1,5,0.8,6.2,3.1c1.3,2.3,1.7,5,2.3,7.6c2.3,0.2,4.3-0.7,5.6-2.7l0.6-0.6c-0.4-0.3-1.3-1-1.7-1.4
			c3.7,1.3,7.3,2.9,11,4.2c-1.9-5.4-3.3-10.9-3-16.6c-1.8-1.7-3.4-3.9-6-4.4c1.8-0.3,3.5-0.7,5.3-1.2c-1.7-3.3-4.4-6.2-5.4-9.8
			c-0.2-0.4-0.6-1-0.8-1.4c4.4,2.6,9,5.9,14.3,6.2c-2.3-3.7-4.5-7.4-6.1-11.4c-0.8-2,1-4,0.5-6c-1.3-3.5-4-6-6.3-8.8
			c3.6-0.5,6.5,1.9,9.9,2.4c0.2-2.3-0.4-4.5-1.1-6.7c-1.2-3.3-4-5.7-6.8-7.5c1.1,0,2.3,0,3.4,0c3.2,2.3,7.5,2.4,10.4,5.3
			c0.4-5.9-4-10.5-6.4-15.5c1.4,0.1,2.8,0.3,4.2,0.4c1.2-4.5-5.4-5.4-6.1-8.9c2.1,0,4.2-0.1,6.3-0.1c-0.1-1.2-0.2-2.4-0.3-3.7
			c-0.2,0.2-0.5,0.5-0.6,0.7c-2.5-1.9-4.8-4.2-7.6-5.6c0.5-1.1,1.6-1.5,2.7-1.9c-0.1-0.9-0.3-1.7-0.4-2.6c-2-3.5-4.8-6.5-6.2-10.3
			c1.1,0.2,2.3,0.4,2.6,1.7c1.4,0.2,2.4,1.2,3.1,2.4c1.6,0,3.2-0.1,4.7-0.4c2-5-1.5-9.2-3.7-13.3c0.7-0.2,2.2-0.7,2.9-0.9
			c-0.2-1-0.5-1.9-0.7-2.9c-2.4-1.9-6.7-2.1-7.2-5.7c0.7,0.1,2,0.4,2.6,0.5c0.1-1.1,0.1-2.2,0.2-3.2c-3.1-3-7.5-4.5-10-8.1
			c1.8,0.1,3.5,0.2,5.3,0.3c-0.6-3.5-4-5.3-6.3-7.5c-2.1-1.9-4.6-3.3-7.1-4.8c3.1-0.5,6.4,0.1,9.1,1.9c2.8,2,6.4,1.4,9.7,1.4
			c0-1,0-2,0.1-3c-3.5-2.4-6.7-5.3-10.5-7.2c0.1-0.9,0.3-1.9,0.5-2.8c1.6-0.5,5.4,0.6,5.1-2c-1.8-2-4.6-2.6-6.8-4
			c-2.1-0.5-4.2-1.1-6.3-1.6c1.8-0.2,3.2-0.9,4.3-2.2c-1.8-1.3-3.8-2.4-6-3c-4.3-1.3-8.9-2.2-12.6-5c1.8-0.2,3.5-0.3,5.3-0.5
			c-0.1-0.5-0.3-1.5-0.4-2c-7.6-3.8-16.6-3.8-24.5-7c-7.7-4.8-17-6.5-25.9-6.2c-12.7-0.2-24.7,4.6-37.2,5.3l1,0.6
			c-7.5,0.6-14.9,1.7-22.4,1.8c0.2,0.3,0.4,0.8,0.6,1.1c-2.7-0.2-5.4,0.2-8.1,0.8c-5.2,1.1-10.6,1.3-15.9,2.1l0.9,0.5
			c-2.6,0.3-5.3,0.7-7.8,1.5c-2.4,1.6-5.3,1.7-8,2c0.9,0.2,1.9,0.4,2.9,0.6c-3.1-0.1-6.1,0.5-9,1.2L982.5,267.3z M1087.4,328.9
			c0.7,0.6,1.2,1.3,1.6,2C1088.6,330.2,1088.1,329.4,1087.4,328.9z M1089.6,332.6c0.3,0.8,0.5,1.7,0.9,2.5
			C1090.2,334.2,1089.9,333.4,1089.6,332.6z"/>
		<linearGradient id="SVGID_8_" gradientUnits="userSpaceOnUse" x1="992.6249" y1="452.7562" x2="1172.6249" y2="308.0895">
			<stop  offset="0" style="stop-color:#858B34"/>
			<stop  offset="0.5021" style="stop-color:#94AB28"/>
			<stop  offset="1" style="stop-color:#BFE128"/>
		</linearGradient>
		<path fill="url(#SVGID_8_)" stroke="#A0AA75" stroke-width="0.2" d="M1172.4,498c-7.3-5.7-13.5-12.6-20.4-18.7
			c-9.4-8.9-15.6-20.4-23.5-30.6c-4.7-5.7-8.3-12.2-13-17.9c-7.9-9.2-15.1-18.9-23.1-28c-4.5-5-8.4-10.6-13.1-15.4
			c-4.8,8.6-0.7,18.5,0,27.6c-4.9-4.9-5.1-12.8-4-19.2c0.4-5.6,1.7-12.5-3-16.7c-9.1-8.9-17.7-18.4-26.8-27.2
			c-3.9-3.2-7.6-7.3-12.8-8.2c0,5.8,0.8,11.7,2.7,17.3c3.2,9.5,6.6,19.1,7.2,29.2c-2-4.2-2.4-8.9-4.1-13.2c-2.7-7.2-5.5-14.5-7-22.1
			c-1.1-5.1-1.3-10.8-5-14.9c-4.3-5-7.4-11.2-12.9-15.1c-5.9-4.3-11.8-8.4-18.2-11.9c0.9,6,3,11.7,4.6,17.5
			c2.8,8.9,4.7,18.1,6.1,27.3c1.4,8.8,3.3,17.5,5.5,26.1c0.7,2.4,0.8,4.8,0.6,7.3c-4.6-14-7.3-28.4-10.1-42.8
			c-1.9-7.6-3-15.5-6-22.8c-2.3-5.5-3.8-11.6-8.4-15.7c-4.4-3.9-8.7-8-13.6-11.3c-0.6,2.7-0.7,5.5-0.2,8.2
			c0.9,5.3,0.3,10.8,1.6,16.1c2.8,12,1.2,24.3,2.2,36.5c0,4.3,0.3,8.8-1.7,12.7c-1-3.3-1.6-6.6-1.7-10c-0.5-7.3-0.6-14.7-1.2-22
			c-1.4-8.4,0.3-16.9-1.5-25.3c-1.2-6.8-4-13.1-6.6-19.4c-1.6-4.7-6.7-6.4-10.3-9.3c0,1,0,2.1-0.1,3.2c0,3.1,0.4,6.1,1,9.2
			c1.7,15.5,2.6,31.1,3.3,46.6c0,0,0,0,0,0c0.3,15.3-0.1,30.6-1.7,45.9c-0.1,4.7-0.8,9.4,0,14.1c1,2,2.5,3.6,3.7,5.4
			c4.6,6.1,6.5,13.8,11.2,19.8c1,0.5,2.2-0.2,3.3-0.2c1.3-2.4,2.4-4.8,3.6-7.3c0,5.1-0.8,10.5,1.1,15.4c2.4,3.9,5.5,7.3,8.3,11
			c0.4,0.1,1.3,0.3,1.8,0.5c0.1-0.9,0.1-2.6,0.2-3.5c3.7,4.7,7.2,11.6,14.2,11.2c-1.4-6.6-0.4-13.4,0-20.1c1.3,2.7,2.5,5.5,3.9,8.2
			c1.7-0.3,4,0.8,5.1-0.9c1.8,3,4.1,5.7,7.3,7.3c3.9,1.9,6.9,5.3,11.1,6.8c1.1-4.3,1.9-9.1,0.1-13.4c4.7,1.4,9,4.1,12.5,7.5
			c3.4,3.2,2.6,9,6.3,11.8c1.6-2,0-5.8,2.7-6.6l0.6,1.3c4.2,3.7,8.5,7.3,13.4,10.1c0.7,0,2.1,0,2.8,0c-0.3-2.2-0.7-4.4-1.1-6.6
			c0.6-2.8,0.9-5.6,0.9-8.5c0.6-0.1,1.8-0.4,2.4-0.6c2.7,3.7,5.2,7.5,7.5,11.4c0.2-1.9,0.5-3.8,0.8-5.6c0.9,0.4,1.9,0.8,2.8,1.2
			c1,4.3,4.1,7.3,6.6,10.7c1.4,0,2.9,0.1,4.3,0.1c2,2.1,4.4,4,7.4,4.2c0.3-4-0.6-8.1,0.1-12.1c2.6,1.5,5.2,3.1,7.8,4.7
			c5.1,4.4,9.2,11.2,16.3,12.3c-0.6-4.5-1.3-9-1.1-13.6c2.2,0.4,2.8,2.7,3.8,4.3c2,4,4.5,7.6,7.7,10.7c0.5,1,1,2.1,1.6,3.2
			c0.9,0.1,1.7,0.2,2.6,0.4c0.2-1.7,0.3-3.4,0.5-5c0.8,0,2.5-0.1,3.4-0.1c3.6,4.9,6.6,10.4,10.7,14.9c2.7-0.1,5.1-1.6,7.8-2.2
			c0.5,1.8,0.9,3.7,1.3,5.6c0.2,1.3,0.5,2.6,1,3.9c1.5-1.3,3.2-2.8,5.3-2.3c1.4,1.1,3,2,4.5,2.9
			C1175.1,501.1,1174.1,499.2,1172.4,498z M960,341.6C960,341.6,960,341.6,960,341.6c0.6,1.8,1.1,3.6,1.6,5.5
			C961.1,345.2,960.6,343.4,960,341.6z M1140.4,480.8c0.7-0.5,1.5-1,2.3-1.1C1141.8,479.8,1141.1,480.2,1140.4,480.8z"/>
	</g>
	<g>
		<linearGradient id="SVGID_9_" gradientUnits="userSpaceOnUse" x1="684.7749" y1="461.5104" x2="744.0349" y2="461.5104">
			<stop  offset="0" style="stop-color:#BADD25"/>
			<stop  offset="1" style="stop-color:#AABF36"/>
		</linearGradient>
		<path fill="url(#SVGID_9_)" stroke="#AABF36" stroke-width="0.2" d="M701.5,467.3c10.7,1,21.4,2.3,32.1,3.8
			c3.5,0.5,7,0.4,10.5,0.2c-5.7-2.5-11.8-3.5-17.6-5.7c-4.8-1.8-9.6-3.9-14.5-5.4c-3.4-1.1-7.1-0.6-10.6-1.3
			c-5.8-1.8-10.5-6.4-16.6-7.3c2.3,4.6,3.9,9.8,7,13.9C694.8,466.8,698.2,466.8,701.5,467.3z"/>
		<linearGradient id="SVGID_10_" gradientUnits="userSpaceOnUse" x1="626.7649" y1="561.46" x2="863.0449" y2="561.46">
			<stop  offset="0" style="stop-color:#BADD25"/>
			<stop  offset="1" style="stop-color:#AABF36"/>
		</linearGradient>
		<path fill="url(#SVGID_10_)" stroke="#AABF36" stroke-width="0.2" d="M861.7,668.7c0.8-6.8,0.7-13.7-0.9-20.4
			c0.6-0.4,1.7-1.1,2.3-1.5c-1.1-8.1-6.4-14.7-9-22.3c0.3-0.5,1-1.4,1.3-1.8c0.6-8.1-3.4-16-1.4-24.1c-1.7-1.3-3.3-2.6-4.9-3.9
			c0.4-0.5,1.1-1.6,1.5-2.1c1.2-0.5,2.5-1,3.7-1.5c0-0.4-0.1-1.3-0.2-1.8c-4.5-5-3.9-12.2-4.6-18.5c-0.8-4.1,3.4-7,2.6-11
			c-0.2-2.7-2-4.8-2.9-7.3c-1.1-2.5-0.8-5.3-0.9-8c-6.4-3.8-11.7-9.2-17.1-14.2c-3.9-3.6-7.1-7.9-11.5-10.8c1,2.9,2,5.7,2.9,8.6
			c-5-4.2-9.4-9.1-14.9-12.7c-12.7-10.3-25.3-20.7-38.6-30.1c-0.9-0.8-1.8-1.5-2.7-2.3c6,0.6,11.4,3.8,17.3,4.7
			c-4.7-2.4-9.4-4.7-14.4-6.3c-2.2,1-4.5,0.1-6.7-0.5c-3.8-1.2-7.7-2.4-11.5-3.5c-5.8-2.4-12.1-3.2-18.4-3.7
			c-12.8-0.9-25.5-3-38.3-3.6c2.9,5.6,7.8,9.5,12.3,13.6c8,8,16.9,15,25.4,22.3c3.4,4,9,2.1,13.6,2.4c8.8,0.2,17.9-1.2,26.3,1.9
			c9.9,3.5,19.6,7.6,29.3,11.6c11.4,5,21.3,12.6,31.3,19.8c-7.9-3.5-15.1-8.4-22.9-12.1c-15.8-8.2-32.8-13.7-49.9-18.2
			c-6.7-2-13.7-0.5-20.4,0.3c14.3,15.6,29.1,30.6,43.9,45.8c10.7,10.2,21,21,30.1,32.6c10.8,12.9,21.3,26,31.5,39.4
			c3.1,4.4,7.3,8.5,7.9,14.2c-16.8-26-38.5-48.1-59-71c-7.8-8.5-15.8-16.7-23.6-25.1c-8-8.7-16.2-17.3-25.1-25.1
			c-3.2-3-6.3-6.1-10.2-8c-3.8,10.4,0.8,20.9,1.9,31.4c1.3,9.4,3.9,18.6,4.7,28.1c-3.4-12.3-7.2-24.6-9.7-37.1
			c-1.4-8.6,0.4-17.5-0.9-26.1c-2.6-3.1-6.1-5.3-8.9-8.1c-10.1-9.6-20.5-18.9-29.9-29.1c-0.9-0.9-1.9-1.9-3.1-2.3
			c-1.4,1-2.1,2.7-3,4.1c-2,3.8-4.7,7.3-5.6,11.6c-1.6,7.6-0.7,15.4-1.5,23.1c-0.9,8.1-0.1,16.3-2,24.2c-0.7-2.9-1-5.8-1.1-8.8
			c0.4-10.7-0.3-21.5,1.5-32.1c0.9-9.4,4.1-18.4,8.9-26.4c-3.7-6.6-6.9-13.4-9.4-20.5c-0.1,0.4-0.1,1.3-0.2,1.7
			c-5.7-1.2-10.9-3.9-16.5-5.3c0.4,6.8,3.8,12.7,5.7,19.1c-2.7,0.1-5.4,0.2-8,0.3c2.5,7,6.6,13.4,8.9,20.5c-0.5,0.4-1.4,1.1-1.9,1.5
			c-1.5,0.1-2.9,0.2-4.4,0.3c-0.3,8.2-1.3,17.4-7.7,23.4c-1.6,1.7-4.5,2.6-5.9,0.2c-3.6-5.1-3.2-11.8-5.6-17.4
			c-2.1-1.6-4.9-1.1-7.4-1.4c-2.5,7.4-4.7,14.9-6.8,22.4c2.2,0.6,4.4,0.8,6.7,0.7c1.3,4.3,0.4,9.2,2.4,13.3c2.3,1.6,5.4,0,8-0.3
			c3.4,6.1-3.8,11.7-2.8,18c0.5,0,1.3,0.1,1.8,0.2c1.2-1,2.4-2,3.5-3.1c0.3,0,0.9-0.1,1.2-0.1c0.8,0.7,1.5,1.5,2.2,2.4
			c0.7,1.3,1.3,2.6,1.9,4l0.8-0.8l-0.9,0.8c2.6,2.5,4.8,6.8,9.1,5.7c1.1-2.1,2.2-4.1,3.6-6c0.8,0,1.7,0,2.5,0c3.4,4.2,6,9,9.5,13.1
			c0.9,0,1.8,0.1,2.7,0.1c1.4-1.8,3.1-3.5,5.4-4.1c0.2-0.4,0.5-1.2,0.7-1.6l-0.4,1.2c3.3,3.4,2.4,8.5,2.4,12.8
			c2.2-0.1,4.1-1.2,6-2.1c1.6-0.2,3.3-0.1,5-0.1c0,2.8,0.1,5.5,0.3,8.3c0.3,1.2,0.6,2.4,1,3.6c0.5,0.7,1.1,1.3,1.7,2
			c2.8,0.1,5.8-0.5,8.5,0.5c2.8,2.5,4.8,6.6,9.1,6.3c1.4-1.6,3.1-3.2,3.5-5.5c0.9-2.5,0.6-5.4,2.3-7.5c4.7,2,6.8,7.4,10,11.2
			c2.9-0.2,5.5-1.6,8.4-1.5c1.6,1.9,3.5,3.7,5,5.7c2.2,2.8,4.4,6.1,8.2,6.7c2.1,3.6,4.7,6.9,6.6,10.6l1.6,0.5
			c0.5-4.2-0.1-8.4-1.3-12.4c3.1,0.4,6.4,1.7,8.2,4.4c1.2,1.4,2,3.5,4,3.8c2.2,0.7,3.9-1.5,5.7-2.4c4,7.4,6.6,15.5,11.4,22.4
			c0.6,1.1,2,1.6,3,2.3c1.5-4.8-0.1-9.8-0.3-14.7c0.4,0.1,1.3,0.2,1.7,0.3c3.4,3.9,7,7.6,9.9,11.8c2.8,3.2,5.7,7.7,10.5,7.5
			c0.1-2.6,0-5.2-0.2-7.8c0.4,0.1,1.4,0.4,1.8,0.5c2.2,3.7,4.5,7.2,6.4,11c1.4,1.9,2.7,5.3,5.6,4.6c1.6-1,1.3-3,1.7-4.6
			c0.8,0,2.3,0,3.1,0c2.1,3.3,4.1,6.6,5.5,10.2c1.4,3.1,0.9,6.8,2.8,9.7c3.1-0.3,6.2-0.2,9.4-0.3c-0.1,4.3-1.9,8.4-1.5,12.7
			c1.2,5,4.8,9.1,6,14.2c1.5,0,3.1,0.1,4.7,0.3C862.3,676.5,861,672.6,861.7,668.7z M691.7,539.2c-0.8,0.8-1.5,1.8-2,2.9
			C690.2,541.1,690.9,540.1,691.7,539.2c0.5-0.6,1.1-1.1,1.8-1.5C692.8,538.1,692.2,538.7,691.7,539.2z M698.3,530.5
			c0.4-0.6,0.9-1.2,1.5-1.7C699.1,529.3,698.7,529.9,698.3,530.5z M716.9,508.6c0.3-0.8,0.6-1.7,0.6-2.6
			C717.4,506.9,717.2,507.7,716.9,508.6z M746.6,573.4c1,0.1,2.1,0.2,3.1,0.2C748.7,573.6,747.6,573.5,746.6,573.4z M758,553.3
			L758,553.3c0.6,0.4,1.2,0.7,1.8,1.1C759.2,554.1,758.6,553.7,758,553.3z M765.4,556.8c-1.8-2-3.7-3.9-5.6-5.8
			C761.8,552.9,763.6,554.8,765.4,556.8C765.4,556.8,765.4,556.8,765.4,556.8z"/>
	</g>
</g>
</svg>
